<?xml version="1.0" encoding="UTF-8" standalone="no"?>
<!DOCTYPE svg PUBLIC "-//W3C//DTD SVG 1.1//EN"
 "http://www.w3.org/Graphics/SVG/1.1/DTD/svg11.dtd">
<!-- Generated by graphviz version 12.0.0 (20240704.0754)
 -->
<!-- Title: dependency&#45;cruiser output Pages: 1 -->
<svg width="299pt" height="230pt"
 viewBox="0.00 0.00 298.50 230.00" xmlns="http://www.w3.org/2000/svg" xmlns:xlink="http://www.w3.org/1999/xlink">
<g id="graph0" class="graph" transform="scale(1 1) rotate(0) translate(4 226)">
<title>dependency&#45;cruiser output</title>
<polygon fill="white" stroke="none" points="-4,4 -4,-226 294.5,-226 294.5,4 -4,4"/>
<g id="clust1" class="cluster">
<title>cluster_src</title>
<path fill="#ffffff" stroke="black" stroke-width="2" d="M20,-8C20,-8 270.5,-8 270.5,-8 276.5,-8 282.5,-14 282.5,-20 282.5,-20 282.5,-202 282.5,-202 282.5,-208 276.5,-214 270.5,-214 270.5,-214 20,-214 20,-214 14,-214 8,-208 8,-202 8,-202 8,-20 8,-20 8,-14 14,-8 20,-8"/>
<text text-anchor="middle" x="145.25" y="-201.45" font-family="Helvetica,sans-Serif" font-weight="bold" font-size="9.00">src</text>
</g>
<g id="clust2" class="cluster">
<title>cluster_src/translators</title>
<path fill="#ffffff" stroke="black" stroke-width="2" d="M28,-16C28,-16 262.5,-16 262.5,-16 268.5,-16 274.5,-22 274.5,-28 274.5,-28 274.5,-120 274.5,-120 274.5,-126 268.5,-132 262.5,-132 262.5,-132 28,-132 28,-132 22,-132 16,-126 16,-120 16,-120 16,-28 16,-28 16,-22 22,-16 28,-16"/>
<text text-anchor="middle" x="145.25" y="-119.45" font-family="Helvetica,sans-Serif" font-weight="bold" font-size="9.00">translators</text>
</g>
<g id="clust3" class="cluster">
<title>cluster_src/translators/reactjs</title>
<path fill="#ffffff" stroke="black" stroke-width="2" d="M36,-24C36,-24 254.5,-24 254.5,-24 260.5,-24 266.5,-30 266.5,-36 266.5,-36 266.5,-94 266.5,-94 266.5,-100 260.5,-106 254.5,-106 254.5,-106 36,-106 36,-106 30,-106 24,-100 24,-94 24,-94 24,-36 24,-36 24,-30 30,-24 36,-24"/>
<text text-anchor="middle" x="145.25" y="-93.45" font-family="Helvetica,sans-Serif" font-weight="bold" font-size="9.00">reactjs</text>
</g>
<!-- src/banners&#45;manager.test.ts -->
<g id="node1" class="node">
<title>src/banners&#45;manager.test.ts</title>
<g id="a_node1"><a xlink:href="src/banners-manager.test.ts" xlink:title="banners&#45;manager.test.ts">
<path fill="#ddfeff" stroke="black" d="M141.08,-187.88C141.08,-187.88 37.92,-187.88 37.92,-187.88 34.96,-187.88 32,-184.92 32,-181.96 32,-181.96 32,-176.04 32,-176.04 32,-173.08 34.96,-170.12 37.92,-170.12 37.92,-170.12 141.08,-170.12 141.08,-170.12 144.04,-170.12 147,-173.08 147,-176.04 147,-176.04 147,-181.96 147,-181.96 147,-184.92 144.04,-187.88 141.08,-187.88"/>
<text text-anchor="start" x="40" y="-175.32" font-family="Helvetica,sans-Serif" font-size="9.00">banners&#45;manager.test.ts</text>
</a>
</g>
</g>
<!-- src/banners&#45;manager.ts -->
<g id="node2" class="node">
<title>src/banners&#45;manager.ts</title>
<g id="a_node2"><a xlink:href="src/banners-manager.ts" xlink:title="banners&#45;manager.ts">
<path fill="#ddfeff" stroke="black" d="M252.58,-172.88C252.58,-172.88 165.92,-172.88 165.92,-172.88 162.96,-172.88 160,-169.92 160,-166.96 160,-166.96 160,-161.04 160,-161.04 160,-158.08 162.96,-155.12 165.92,-155.12 165.92,-155.12 252.58,-155.12 252.58,-155.12 255.54,-155.12 258.5,-158.08 258.5,-161.04 258.5,-161.04 258.5,-166.96 258.5,-166.96 258.5,-169.92 255.54,-172.88 252.58,-172.88"/>
<text text-anchor="start" x="168" y="-160.32" font-family="Helvetica,sans-Serif" font-size="9.00">banners&#45;manager.ts</text>
</a>
</g>
</g>
<!-- src/banners&#45;manager.test.ts&#45;&gt;src/banners&#45;manager.ts -->
<g id="edge1" class="edge">
<title>src/banners&#45;manager.test.ts&#45;&gt;src/banners&#45;manager.ts</title>
<path fill="none" stroke="#000000" stroke-width="2" stroke-opacity="0.200000" d="M147.31,-171.76C148.46,-171.62 149.62,-171.47 150.78,-171.32"/>
<polygon fill="#000000" fill-opacity="0.200000" stroke="#000000" stroke-width="2" stroke-opacity="0.200000" points="150.93,-173.42 156.61,-170.58 150.4,-169.25 150.93,-173.42"/>
</g>
<!-- src/index.ts -->
<g id="node3" class="node">
<title>src/index.ts</title>
<g id="a_node3"><a xlink:href="src/index.ts" xlink:title="index.ts">
<path fill="#ddfeff" stroke="black" d="M110.58,-157.88C110.58,-157.88 68.42,-157.88 68.42,-157.88 65.46,-157.88 62.5,-154.92 62.5,-151.96 62.5,-151.96 62.5,-146.04 62.5,-146.04 62.5,-143.08 65.46,-140.12 68.42,-140.12 68.42,-140.12 110.58,-140.12 110.58,-140.12 113.54,-140.12 116.5,-143.08 116.5,-146.04 116.5,-146.04 116.5,-151.96 116.5,-151.96 116.5,-154.92 113.54,-157.88 110.58,-157.88"/>
<text text-anchor="start" x="73.75" y="-145.32" font-family="Helvetica,sans-Serif" font-size="9.00">index.ts</text>
</a>
</g>
</g>
<!-- src/index.ts&#45;&gt;src/banners&#45;manager.ts -->
<g id="edge2" class="edge">
<title>src/index.ts&#45;&gt;src/banners&#45;manager.ts</title>
<path fill="none" stroke="#000000" stroke-width="2" stroke-opacity="0.200000" d="M116.93,-152.37C127.07,-153.66 139.09,-155.19 151.02,-156.71"/>
<polygon fill="#000000" fill-opacity="0.200000" stroke="#000000" stroke-width="2" stroke-opacity="0.200000" points="150.44,-158.75 156.66,-157.43 150.98,-154.59 150.44,-158.75"/>
</g>
<!-- src/translators/reactjs/BannersProvider.tsx -->
<g id="node4" class="node">
<title>src/translators/reactjs/BannersProvider.tsx</title>
<g id="a_node4"><a xlink:href="src/translators/reactjs/BannersProvider.tsx" xlink:title="BannersProvider.tsx">
<path fill="#bbfeff" stroke="black" d="M252.58,-49.88C252.58,-49.88 165.92,-49.88 165.92,-49.88 162.96,-49.88 160,-46.92 160,-43.96 160,-43.96 160,-38.04 160,-38.04 160,-35.08 162.96,-32.12 165.92,-32.12 165.92,-32.12 252.58,-32.12 252.58,-32.12 255.54,-32.12 258.5,-35.08 258.5,-38.04 258.5,-38.04 258.5,-43.96 258.5,-43.96 258.5,-46.92 255.54,-49.88 252.58,-49.88"/>
<text text-anchor="start" x="168" y="-37.33" font-family="Helvetica,sans-Serif" font-size="9.00">BannersProvider.tsx</text>
</a>
</g>
</g>
<!-- src/index.ts&#45;&gt;src/translators/reactjs/BannersProvider.tsx -->
<g id="edge3" class="edge">
<title>src/index.ts&#45;&gt;src/translators/reactjs/BannersProvider.tsx</title>
<path fill="none" stroke="#000000" stroke-width="2" stroke-opacity="0.200000" d="M110.32,-139.63C122.66,-132.8 137.87,-122.41 147,-109 160.65,-88.95 143.38,-73.66 160,-56 160.14,-55.86 160.27,-55.71 160.41,-55.57"/>
<polygon fill="#000000" fill-opacity="0.200000" stroke="#000000" stroke-width="2" stroke-opacity="0.200000" points="161.58,-57.32 165.01,-51.97 158.99,-54.02 161.58,-57.32"/>
</g>
<!-- src/translators/reactjs/useBanner.ts -->
<g id="node5" class="node">
<title>src/translators/reactjs/useBanner.ts</title>
<g id="a_node5"><a xlink:href="src/translators/reactjs/useBanner.ts" xlink:title="useBanner.ts">
<path fill="#ddfeff" stroke="black" d="M238.33,-79.88C238.33,-79.88 180.17,-79.88 180.17,-79.88 177.21,-79.88 174.25,-76.92 174.25,-73.96 174.25,-73.96 174.25,-68.04 174.25,-68.04 174.25,-65.08 177.21,-62.12 180.17,-62.12 180.17,-62.12 238.33,-62.12 238.33,-62.12 241.29,-62.12 244.25,-65.08 244.25,-68.04 244.25,-68.04 244.25,-73.96 244.25,-73.96 244.25,-76.92 241.29,-79.88 238.33,-79.88"/>
<text text-anchor="start" x="182.25" y="-67.33" font-family="Helvetica,sans-Serif" font-size="9.00">useBanner.ts</text>
</a>
</g>
</g>
<!-- src/index.ts&#45;&gt;src/translators/reactjs/useBanner.ts -->
<g id="edge4" class="edge">
<title>src/index.ts&#45;&gt;src/translators/reactjs/useBanner.ts</title>
<path fill="none" stroke="#000000" stroke-width="2" stroke-opacity="0.200000" d="M107.72,-139.77C119.85,-132.61 135.86,-121.77 147,-109 155.23,-99.56 150.24,-91.85 160,-84 161.77,-82.57 163.69,-81.3 165.71,-80.17"/>
<polygon fill="#000000" fill-opacity="0.200000" stroke="#000000" stroke-width="2" stroke-opacity="0.200000" points="166.5,-82.11 171.09,-77.71 164.76,-78.29 166.5,-82.11"/>
</g>
<!-- src/translators/reactjs/BannersProvider.test.tsx -->
<g id="node6" class="node">
<title>src/translators/reactjs/BannersProvider.test.tsx</title>
<g id="a_node6"><a xlink:href="src/translators/reactjs/BannersProvider.test.tsx" xlink:title="BannersProvider.test.tsx">
<path fill="#bbfeff" stroke="black" d="M141.08,-49.88C141.08,-49.88 37.92,-49.88 37.92,-49.88 34.96,-49.88 32,-46.92 32,-43.96 32,-43.96 32,-38.04 32,-38.04 32,-35.08 34.96,-32.12 37.92,-32.12 37.92,-32.12 141.08,-32.12 141.08,-32.12 144.04,-32.12 147,-35.08 147,-38.04 147,-38.04 147,-43.96 147,-43.96 147,-46.92 144.04,-49.88 141.08,-49.88"/>
<text text-anchor="start" x="40" y="-37.33" font-family="Helvetica,sans-Serif" font-size="9.00">BannersProvider.test.tsx</text>
</a>
</g>
</g>
<!-- src/translators/reactjs/BannersProvider.test.tsx&#45;&gt;src/translators/reactjs/BannersProvider.tsx -->
<g id="edge5" class="edge">
<title>src/translators/reactjs/BannersProvider.test.tsx&#45;&gt;src/translators/reactjs/BannersProvider.tsx</title>
<path fill="none" stroke="#000000" stroke-width="2" stroke-opacity="0.200000" d="M147.31,-41C148.46,-41 149.62,-41 150.78,-41"/>
<polygon fill="#000000" fill-opacity="0.200000" stroke="#000000" stroke-width="2" stroke-opacity="0.200000" points="150.59,-43.1 156.59,-41 150.59,-38.9 150.59,-43.1"/>
</g>
<!-- src/translators/reactjs/useBanner.test.ts -->
<g id="node7" class="node">
<title>src/translators/reactjs/useBanner.test.ts</title>
<g id="a_node7"><a xlink:href="src/translators/reactjs/useBanner.test.ts" xlink:title="useBanner.test.ts">
<path fill="#ddfeff" stroke="black" d="M126.83,-79.88C126.83,-79.88 52.17,-79.88 52.17,-79.88 49.21,-79.88 46.25,-76.92 46.25,-73.96 46.25,-73.96 46.25,-68.04 46.25,-68.04 46.25,-65.08 49.21,-62.12 52.17,-62.12 52.17,-62.12 126.83,-62.12 126.83,-62.12 129.79,-62.12 132.75,-65.08 132.75,-68.04 132.75,-68.04 132.75,-73.96 132.75,-73.96 132.75,-76.92 129.79,-79.88 126.83,-79.88"/>
<text text-anchor="start" x="54.25" y="-67.33" font-family="Helvetica,sans-Serif" font-size="9.00">useBanner.test.ts</text>
</a>
</g>
</g>
<!-- src/translators/reactjs/useBanner.test.ts&#45;&gt;src/translators/reactjs/useBanner.ts -->
<g id="edge6" class="edge">
<title>src/translators/reactjs/useBanner.test.ts&#45;&gt;src/translators/reactjs/useBanner.ts</title>
<path fill="none" stroke="#000000" stroke-width="2" stroke-opacity="0.200000" d="M133.01,-71C143.4,-71 154.54,-71 164.97,-71"/>
<polygon fill="#000000" fill-opacity="0.200000" stroke="#000000" stroke-width="2" stroke-opacity="0.200000" points="164.89,-73.1 170.89,-71 164.89,-68.9 164.89,-73.1"/>
</g>
</g>
</svg>
