<?xml version="1.0" encoding="UTF-8" standalone="no"?>
<!DOCTYPE svg PUBLIC "-//W3C//DTD SVG 1.1//EN"
 "http://www.w3.org/Graphics/SVG/1.1/DTD/svg11.dtd">
<!-- Generated by graphviz version 12.2.1 (20241206.2353)
 -->
<!-- Title: dependency&#45;cruiser output Pages: 1 -->
<svg width="515pt" height="654pt"
 viewBox="0.00 0.00 514.75 654.00" xmlns="http://www.w3.org/2000/svg" xmlns:xlink="http://www.w3.org/1999/xlink">
<g id="graph0" class="graph" transform="scale(1 1) rotate(0) translate(4 650)">
<title>dependency&#45;cruiser output</title>
<polygon fill="white" stroke="none" points="-4,4 -4,-650 510.75,-650 510.75,4 -4,4"/>
<g id="clust1" class="cluster">
<title>cluster_src</title>
<path fill="#ffffff" stroke="black" stroke-width="2" d="M20,-8C20,-8 486.75,-8 486.75,-8 492.75,-8 498.75,-14 498.75,-20 498.75,-20 498.75,-626 498.75,-626 498.75,-632 492.75,-638 486.75,-638 486.75,-638 20,-638 20,-638 14,-638 8,-632 8,-626 8,-626 8,-20 8,-20 8,-14 14,-8 20,-8"/>
<text text-anchor="middle" x="253.38" y="-625.45" font-family="Helvetica,sans-Serif" font-weight="bold" font-size="9.00">src</text>
</g>
<g id="clust2" class="cluster">
<title>cluster_src/fixtures</title>
<path fill="#ffffff" stroke="black" stroke-width="2" d="M174.25,-22C174.25,-22 416.75,-22 416.75,-22 422.75,-22 428.75,-28 428.75,-34 428.75,-34 428.75,-152 428.75,-152 428.75,-158 422.75,-164 416.75,-164 416.75,-164 174.25,-164 174.25,-164 168.25,-164 162.25,-158 162.25,-152 162.25,-152 162.25,-34 162.25,-34 162.25,-28 168.25,-22 174.25,-22"/>
<text text-anchor="middle" x="295.5" y="-151.45" font-family="Helvetica,sans-Serif" font-weight="bold" font-size="9.00">fixtures</text>
</g>
<g id="clust3" class="cluster">
<title>cluster_src/translators</title>
<path fill="#ffffff" stroke="black" stroke-width="2" d="M28,-172C28,-172 411.75,-172 411.75,-172 417.75,-172 423.75,-178 423.75,-184 423.75,-184 423.75,-460 423.75,-460 423.75,-466 417.75,-472 411.75,-472 411.75,-472 28,-472 28,-472 22,-472 16,-466 16,-460 16,-460 16,-184 16,-184 16,-178 22,-172 28,-172"/>
<text text-anchor="middle" x="219.88" y="-459.45" font-family="Helvetica,sans-Serif" font-weight="bold" font-size="9.00">translators</text>
</g>
<g id="clust4" class="cluster">
<title>cluster_src/translators/reactjs</title>
<path fill="#ffffff" stroke="black" stroke-width="2" d="M36,-180C36,-180 403.75,-180 403.75,-180 409.75,-180 415.75,-186 415.75,-192 415.75,-192 415.75,-434 415.75,-434 415.75,-440 409.75,-446 403.75,-446 403.75,-446 36,-446 36,-446 30,-446 24,-440 24,-434 24,-434 24,-192 24,-192 24,-186 30,-180 36,-180"/>
<text text-anchor="middle" x="219.88" y="-433.45" font-family="Helvetica,sans-Serif" font-weight="bold" font-size="9.00">reactjs</text>
</g>
<g id="clust5" class="cluster">
<title>cluster_src/translators/reactjs/hooks</title>
<path fill="#ffffff" stroke="black" stroke-width="2" d="M44,-188C44,-188 395.75,-188 395.75,-188 401.75,-188 407.75,-194 407.75,-200 407.75,-200 407.75,-228 407.75,-228 407.75,-234 401.75,-240 395.75,-240 395.75,-240 44,-240 44,-240 38,-240 32,-234 32,-228 32,-228 32,-200 32,-200 32,-194 38,-188 44,-188"/>
<text text-anchor="middle" x="219.88" y="-227.45" font-family="Helvetica,sans-Serif" font-weight="bold" font-size="9.00">hooks</text>
</g>
<g id="clust6" class="cluster">
<title>cluster_src/translators/reactjs/provider</title>
<path fill="#ffffff" stroke="black" stroke-width="2" d="M185.5,-248C185.5,-248 282,-248 282,-248 288,-248 294,-254 294,-260 294,-260 294,-318 294,-318 294,-324 288,-330 282,-330 282,-330 185.5,-330 185.5,-330 179.5,-330 173.5,-324 173.5,-318 173.5,-318 173.5,-260 173.5,-260 173.5,-254 179.5,-248 185.5,-248"/>
<text text-anchor="middle" x="233.75" y="-317.45" font-family="Helvetica,sans-Serif" font-weight="bold" font-size="9.00">provider</text>
</g>
<g id="clust7" class="cluster">
<title>cluster_src/translators/reactjs/state</title>
<path fill="#ffffff" stroke="black" stroke-width="2" d="M201.25,-338C201.25,-338 388.5,-338 388.5,-338 394.5,-338 400.5,-344 400.5,-350 400.5,-350 400.5,-408 400.5,-408 400.5,-414 394.5,-420 388.5,-420 388.5,-420 201.25,-420 201.25,-420 195.25,-420 189.25,-414 189.25,-408 189.25,-408 189.25,-350 189.25,-350 189.25,-344 195.25,-338 201.25,-338"/>
<text text-anchor="middle" x="294.88" y="-407.45" font-family="Helvetica,sans-Serif" font-weight="bold" font-size="9.00">state</text>
</g>
<!-- src/api&#45;faucet.mocks.ts -->
<g id="node1" class="node">
<title>src/api&#45;faucet.mocks.ts</title>
<g id="a_node1"><a xlink:href="src/api-faucet.mocks.ts" xlink:title="api&#45;faucet.mocks.ts">
<path fill="#ddfeff" stroke="black" d="M406.58,-606.88C406.58,-606.88 324.42,-606.88 324.42,-606.88 321.46,-606.88 318.5,-603.92 318.5,-600.96 318.5,-600.96 318.5,-595.04 318.5,-595.04 318.5,-592.08 321.46,-589.12 324.42,-589.12 324.42,-589.12 406.58,-589.12 406.58,-589.12 409.54,-589.12 412.5,-592.08 412.5,-595.04 412.5,-595.04 412.5,-600.96 412.5,-600.96 412.5,-603.92 409.54,-606.88 406.58,-606.88"/>
<text text-anchor="start" x="326.5" y="-594.33" font-family="Helvetica,sans-Serif" font-size="9.00">api&#45;faucet.mocks.ts</text>
</a>
</g>
</g>
<!-- src/errors.ts -->
<g id="node2" class="node">
<title>src/errors.ts</title>
<g id="a_node2"><a xlink:href="src/errors.ts" xlink:title="errors.ts">
<path fill="#ddfeff" stroke="black" d="M484.83,-545.88C484.83,-545.88 442.67,-545.88 442.67,-545.88 439.71,-545.88 436.75,-542.92 436.75,-539.96 436.75,-539.96 436.75,-534.04 436.75,-534.04 436.75,-531.08 439.71,-528.12 442.67,-528.12 442.67,-528.12 484.83,-528.12 484.83,-528.12 487.79,-528.12 490.75,-531.08 490.75,-534.04 490.75,-534.04 490.75,-539.96 490.75,-539.96 490.75,-542.92 487.79,-545.88 484.83,-545.88"/>
<text text-anchor="start" x="447.25" y="-533.33" font-family="Helvetica,sans-Serif" font-size="9.00">errors.ts</text>
</a>
</g>
</g>
<!-- src/fixtures/ErrorBoundary.test.tsx -->
<g id="node3" class="node">
<title>src/fixtures/ErrorBoundary.test.tsx</title>
<g id="a_node3"><a xlink:href="src/fixtures/ErrorBoundary.test.tsx" xlink:title="ErrorBoundary.test.tsx">
<path fill="#bbfeff" stroke="black" d="M280.83,-77.88C280.83,-77.88 186.67,-77.88 186.67,-77.88 183.71,-77.88 180.75,-74.92 180.75,-71.96 180.75,-71.96 180.75,-66.04 180.75,-66.04 180.75,-63.08 183.71,-60.12 186.67,-60.12 186.67,-60.12 280.83,-60.12 280.83,-60.12 283.79,-60.12 286.75,-63.08 286.75,-66.04 286.75,-66.04 286.75,-71.96 286.75,-71.96 286.75,-74.92 283.79,-77.88 280.83,-77.88"/>
<text text-anchor="start" x="188.75" y="-65.33" font-family="Helvetica,sans-Serif" font-size="9.00">ErrorBoundary.test.tsx</text>
</a>
</g>
</g>
<!-- src/fixtures/ErrorBoundary.tsx -->
<g id="node4" class="node">
<title>src/fixtures/ErrorBoundary.tsx</title>
<g id="a_node4"><a xlink:href="src/fixtures/ErrorBoundary.tsx" xlink:title="ErrorBoundary.tsx">
<path fill="#bbfeff" stroke="black" d="M404.33,-84.88C404.33,-84.88 326.67,-84.88 326.67,-84.88 323.71,-84.88 320.75,-81.92 320.75,-78.96 320.75,-78.96 320.75,-73.04 320.75,-73.04 320.75,-70.08 323.71,-67.12 326.67,-67.12 326.67,-67.12 404.33,-67.12 404.33,-67.12 407.29,-67.12 410.25,-70.08 410.25,-73.04 410.25,-73.04 410.25,-78.96 410.25,-78.96 410.25,-81.92 407.29,-84.88 404.33,-84.88"/>
<text text-anchor="start" x="328.75" y="-72.33" font-family="Helvetica,sans-Serif" font-size="9.00">ErrorBoundary.tsx</text>
</a>
</g>
</g>
<!-- src/fixtures/ErrorBoundary.test.tsx&#45;&gt;src/fixtures/ErrorBoundary.tsx -->
<g id="edge1" class="edge">
<title>src/fixtures/ErrorBoundary.test.tsx&#45;&gt;src/fixtures/ErrorBoundary.tsx</title>
<path fill="none" stroke="#000000" stroke-width="2" stroke-opacity="0.200000" d="M287.15,-71.83C295.22,-72.26 303.57,-72.71 311.65,-73.15"/>
<polygon fill="#000000" fill-opacity="0.200000" stroke="#000000" stroke-width="2" stroke-opacity="0.200000" points="311.51,-75.24 317.62,-73.47 311.74,-71.05 311.51,-75.24"/>
</g>
<!-- src/fixtures/SuspenseBoundary.test.tsx -->
<g id="node5" class="node">
<title>src/fixtures/SuspenseBoundary.test.tsx</title>
<g id="a_node5"><a xlink:href="src/fixtures/SuspenseBoundary.test.tsx" xlink:title="SuspenseBoundary.test.tsx">
<path fill="#bbfeff" stroke="black" d="M291.33,-107.88C291.33,-107.88 176.17,-107.88 176.17,-107.88 173.21,-107.88 170.25,-104.92 170.25,-101.96 170.25,-101.96 170.25,-96.04 170.25,-96.04 170.25,-93.08 173.21,-90.12 176.17,-90.12 176.17,-90.12 291.33,-90.12 291.33,-90.12 294.29,-90.12 297.25,-93.08 297.25,-96.04 297.25,-96.04 297.25,-101.96 297.25,-101.96 297.25,-104.92 294.29,-107.88 291.33,-107.88"/>
<text text-anchor="start" x="178.25" y="-95.33" font-family="Helvetica,sans-Serif" font-size="9.00">SuspenseBoundary.test.tsx</text>
</a>
</g>
</g>
<!-- src/fixtures/SuspenseBoundary.tsx -->
<g id="node6" class="node">
<title>src/fixtures/SuspenseBoundary.tsx</title>
<g id="a_node6"><a xlink:href="src/fixtures/SuspenseBoundary.tsx" xlink:title="SuspenseBoundary.tsx">
<path fill="#bbfeff" stroke="black" d="M414.83,-129.88C414.83,-129.88 316.17,-129.88 316.17,-129.88 313.21,-129.88 310.25,-126.92 310.25,-123.96 310.25,-123.96 310.25,-118.04 310.25,-118.04 310.25,-115.08 313.21,-112.12 316.17,-112.12 316.17,-112.12 414.83,-112.12 414.83,-112.12 417.79,-112.12 420.75,-115.08 420.75,-118.04 420.75,-118.04 420.75,-123.96 420.75,-123.96 420.75,-126.92 417.79,-129.88 414.83,-129.88"/>
<text text-anchor="start" x="318.25" y="-117.33" font-family="Helvetica,sans-Serif" font-size="9.00">SuspenseBoundary.tsx</text>
</a>
</g>
</g>
<!-- src/fixtures/SuspenseBoundary.test.tsx&#45;&gt;src/fixtures/SuspenseBoundary.tsx -->
<g id="edge2" class="edge">
<title>src/fixtures/SuspenseBoundary.test.tsx&#45;&gt;src/fixtures/SuspenseBoundary.tsx</title>
<path fill="none" stroke="#000000" stroke-width="2" stroke-opacity="0.200000" d="M289.78,-108.33C293.51,-108.96 297.28,-109.6 301.05,-110.24"/>
<polygon fill="#000000" fill-opacity="0.200000" stroke="#000000" stroke-width="2" stroke-opacity="0.200000" points="300.55,-112.29 306.82,-111.22 301.25,-108.15 300.55,-112.29"/>
</g>
<!-- src/fixtures/query&#45;client.test.ts -->
<g id="node7" class="node">
<title>src/fixtures/query&#45;client.test.ts</title>
<g id="a_node7"><a xlink:href="src/fixtures/query-client.test.ts" xlink:title="query&#45;client.test.ts">
<path fill="#ddfeff" stroke="black" d="M272.58,-47.88C272.58,-47.88 194.92,-47.88 194.92,-47.88 191.96,-47.88 189,-44.92 189,-41.96 189,-41.96 189,-36.04 189,-36.04 189,-33.08 191.96,-30.12 194.92,-30.12 194.92,-30.12 272.58,-30.12 272.58,-30.12 275.54,-30.12 278.5,-33.08 278.5,-36.04 278.5,-36.04 278.5,-41.96 278.5,-41.96 278.5,-44.92 275.54,-47.88 272.58,-47.88"/>
<text text-anchor="start" x="197" y="-35.33" font-family="Helvetica,sans-Serif" font-size="9.00">query&#45;client.test.ts</text>
</a>
</g>
</g>
<!-- src/fixtures/query&#45;client.ts -->
<g id="node8" class="node">
<title>src/fixtures/query&#45;client.ts</title>
<g id="a_node8"><a xlink:href="src/fixtures/query-client.ts" xlink:title="query&#45;client.ts">
<path fill="#ddfeff" stroke="black" d="M396.08,-47.88C396.08,-47.88 334.92,-47.88 334.92,-47.88 331.96,-47.88 329,-44.92 329,-41.96 329,-41.96 329,-36.04 329,-36.04 329,-33.08 331.96,-30.12 334.92,-30.12 334.92,-30.12 396.08,-30.12 396.08,-30.12 399.04,-30.12 402,-33.08 402,-36.04 402,-36.04 402,-41.96 402,-41.96 402,-44.92 399.04,-47.88 396.08,-47.88"/>
<text text-anchor="start" x="337" y="-35.33" font-family="Helvetica,sans-Serif" font-size="9.00">query&#45;client.ts</text>
</a>
</g>
</g>
<!-- src/fixtures/query&#45;client.test.ts&#45;&gt;src/fixtures/query&#45;client.ts -->
<g id="edge3" class="edge">
<title>src/fixtures/query&#45;client.test.ts&#45;&gt;src/fixtures/query&#45;client.ts</title>
<path fill="none" stroke="#000000" stroke-width="2" stroke-opacity="0.200000" d="M278.68,-39C291.94,-39 306.51,-39 319.82,-39"/>
<polygon fill="#000000" fill-opacity="0.200000" stroke="#000000" stroke-width="2" stroke-opacity="0.200000" points="319.77,-41.1 325.77,-39 319.77,-36.9 319.77,-41.1"/>
</g>
<!-- src/fixtures/wrapperMaker.tsx -->
<g id="node9" class="node">
<title>src/fixtures/wrapperMaker.tsx</title>
<g id="a_node9"><a xlink:href="src/fixtures/wrapperMaker.tsx" xlink:title="wrapperMaker.tsx">
<path fill="#bbfeff" stroke="black" d="M272.21,-137.88C272.21,-137.88 195.29,-137.88 195.29,-137.88 192.33,-137.88 189.38,-134.92 189.38,-131.96 189.38,-131.96 189.38,-126.04 189.38,-126.04 189.38,-123.08 192.33,-120.12 195.29,-120.12 195.29,-120.12 272.21,-120.12 272.21,-120.12 275.17,-120.12 278.12,-123.08 278.12,-126.04 278.12,-126.04 278.12,-131.96 278.12,-131.96 278.12,-134.92 275.17,-137.88 272.21,-137.88"/>
<text text-anchor="start" x="197.38" y="-125.33" font-family="Helvetica,sans-Serif" font-size="9.00">wrapperMaker.tsx</text>
</a>
</g>
</g>
<!-- src/fixtures/wrapperMaker.tsx&#45;&gt;src/fixtures/ErrorBoundary.tsx -->
<g id="edge6" class="edge">
<title>src/fixtures/wrapperMaker.tsx&#45;&gt;src/fixtures/ErrorBoundary.tsx</title>
<path fill="none" stroke="#000000" stroke-width="2" stroke-opacity="0.200000" d="M278.35,-120.42C284.8,-118.61 291.27,-116.48 297.25,-114 303.52,-111.4 304.39,-109.42 310.25,-106 319.74,-100.46 330.29,-94.57 339.54,-89.49"/>
<polygon fill="#000000" fill-opacity="0.200000" stroke="#000000" stroke-width="2" stroke-opacity="0.200000" points="340.37,-91.43 344.63,-86.71 338.35,-87.74 340.37,-91.43"/>
</g>
<!-- src/fixtures/wrapperMaker.tsx&#45;&gt;src/fixtures/SuspenseBoundary.tsx -->
<g id="edge7" class="edge">
<title>src/fixtures/wrapperMaker.tsx&#45;&gt;src/fixtures/SuspenseBoundary.tsx</title>
<path fill="none" stroke="#000000" stroke-width="2" stroke-opacity="0.200000" d="M278.32,-126.31C285.62,-125.86 293.33,-125.39 301.01,-124.91"/>
<polygon fill="#000000" fill-opacity="0.200000" stroke="#000000" stroke-width="2" stroke-opacity="0.200000" points="301.11,-127.01 306.97,-124.55 300.85,-122.82 301.11,-127.01"/>
</g>
<!-- src/translators/reactjs/provider/ClaimProvider.tsx -->
<g id="node10" class="node">
<title>src/translators/reactjs/provider/ClaimProvider.tsx</title>
<g id="a_node10"><a xlink:href="src/translators/reactjs/provider/ClaimProvider.tsx" xlink:title="ClaimProvider.tsx">
<path fill="#bbfeff" stroke="black" d="M271.83,-303.88C271.83,-303.88 195.67,-303.88 195.67,-303.88 192.71,-303.88 189.75,-300.92 189.75,-297.96 189.75,-297.96 189.75,-292.04 189.75,-292.04 189.75,-289.08 192.71,-286.12 195.67,-286.12 195.67,-286.12 271.83,-286.12 271.83,-286.12 274.79,-286.12 277.75,-289.08 277.75,-292.04 277.75,-292.04 277.75,-297.96 277.75,-297.96 277.75,-300.92 274.79,-303.88 271.83,-303.88"/>
<text text-anchor="start" x="197.75" y="-291.32" font-family="Helvetica,sans-Serif" font-size="9.00">ClaimProvider.tsx</text>
</a>
</g>
</g>
<!-- src/fixtures/wrapperMaker.tsx&#45;&gt;src/translators/reactjs/provider/ClaimProvider.tsx -->
<g id="edge4" class="edge">
<title>src/fixtures/wrapperMaker.tsx&#45;&gt;src/translators/reactjs/provider/ClaimProvider.tsx</title>
<path fill="none" stroke="#000000" stroke-width="2" stroke-opacity="0.200000" d="M212.07,-138.21C192.61,-147.97 165.97,-165.51 158.25,-191 155.58,-199.83 155.58,-265.17 158.25,-274 161.45,-284.58 170.23,-290.56 180.73,-293.8"/>
<polygon fill="#000000" fill-opacity="0.200000" stroke="#000000" stroke-width="2" stroke-opacity="0.200000" points="180.16,-295.82 186.49,-295.14 181.12,-291.73 180.16,-295.82"/>
</g>
<!-- src/translators/reactjs/state/state.ts -->
<g id="node11" class="node">
<title>src/translators/reactjs/state/state.ts</title>
<g id="a_node11"><a xlink:href="src/translators/reactjs/state/state.ts" xlink:title="state.ts">
<path fill="#ddfeff" stroke="black" d="M386.58,-363.88C386.58,-363.88 344.42,-363.88 344.42,-363.88 341.46,-363.88 338.5,-360.92 338.5,-357.96 338.5,-357.96 338.5,-352.04 338.5,-352.04 338.5,-349.08 341.46,-346.12 344.42,-346.12 344.42,-346.12 386.58,-346.12 386.58,-346.12 389.54,-346.12 392.5,-349.08 392.5,-352.04 392.5,-352.04 392.5,-357.96 392.5,-357.96 392.5,-360.92 389.54,-363.88 386.58,-363.88"/>
<text text-anchor="start" x="351.25" y="-351.32" font-family="Helvetica,sans-Serif" font-size="9.00">state.ts</text>
</a>
</g>
</g>
<!-- src/fixtures/wrapperMaker.tsx&#45;&gt;src/translators/reactjs/state/state.ts -->
<g id="edge5" class="edge">
<title>src/fixtures/wrapperMaker.tsx&#45;&gt;src/translators/reactjs/state/state.ts</title>
<path fill="none" stroke="#000000" stroke-width="2" stroke-opacity="0.200000" d="M249.55,-138.24C263.99,-148.04 285.46,-164.89 297.25,-185 310.61,-207.79 301.55,-218.06 310.25,-243 322.51,-278.12 342.81,-316.65 354.8,-338.13"/>
<polygon fill="#000000" fill-opacity="0.200000" stroke="#000000" stroke-width="2" stroke-opacity="0.200000" points="352.82,-338.9 357.6,-343.09 356.48,-336.84 352.82,-338.9"/>
</g>
<!-- src/translators/reactjs/provider/ClaimProvider.tsx&#45;&gt;src/translators/reactjs/state/state.ts -->
<g id="edge38" class="edge">
<title>src/translators/reactjs/provider/ClaimProvider.tsx&#45;&gt;src/translators/reactjs/state/state.ts</title>
<path fill="none" stroke="#000000" stroke-width="2" stroke-opacity="0.200000" d="M255.02,-304.38C276.92,-314.5 311.97,-330.71 336.49,-342.05"/>
<polygon fill="#000000" fill-opacity="0.200000" stroke="#000000" stroke-width="2" stroke-opacity="0.200000" points="335.29,-343.81 341.62,-344.42 337.06,-340 335.29,-343.81"/>
</g>
<!-- src/manager.mocks.ts -->
<g id="node14" class="node">
<title>src/manager.mocks.ts</title>
<g id="a_node14"><a xlink:href="src/manager.mocks.ts" xlink:title="manager.mocks.ts">
<path fill="#ddfeff" stroke="black" d="M404.71,-497.88C404.71,-497.88 326.29,-497.88 326.29,-497.88 323.33,-497.88 320.38,-494.92 320.38,-491.96 320.38,-491.96 320.38,-486.04 320.38,-486.04 320.38,-483.08 323.33,-480.12 326.29,-480.12 326.29,-480.12 404.71,-480.12 404.71,-480.12 407.67,-480.12 410.62,-483.08 410.62,-486.04 410.62,-486.04 410.62,-491.96 410.62,-491.96 410.62,-494.92 407.67,-497.88 404.71,-497.88"/>
<text text-anchor="start" x="328.38" y="-485.32" font-family="Helvetica,sans-Serif" font-size="9.00">manager.mocks.ts</text>
</a>
</g>
</g>
<!-- src/translators/reactjs/provider/ClaimProvider.tsx&#45;&gt;src/manager.mocks.ts -->
<g id="edge37" class="edge">
<title>src/translators/reactjs/provider/ClaimProvider.tsx&#45;&gt;src/manager.mocks.ts</title>
<path fill="none" stroke="#000000" stroke-width="2" stroke-opacity="0.200000" d="M258.66,-304.31C272.18,-310.84 288.16,-320.94 297.25,-335 318.72,-368.2 294.23,-386.86 310.25,-423 318.97,-442.68 335.24,-461.26 347.7,-473.66"/>
<polygon fill="#000000" fill-opacity="0.200000" stroke="#000000" stroke-width="2" stroke-opacity="0.200000" points="346.19,-475.13 351.97,-477.78 349.11,-472.1 346.19,-475.13"/>
</g>
<!-- src/index.ts -->
<g id="node12" class="node">
<title>src/index.ts</title>
<g id="a_node12"><a xlink:href="src/index.ts" xlink:title="index.ts">
<path fill="#ddfeff" stroke="black" d="M118.21,-497.88C118.21,-497.88 76.04,-497.88 76.04,-497.88 73.08,-497.88 70.12,-494.92 70.12,-491.96 70.12,-491.96 70.12,-486.04 70.12,-486.04 70.12,-483.08 73.08,-480.12 76.04,-480.12 76.04,-480.12 118.21,-480.12 118.21,-480.12 121.17,-480.12 124.12,-483.08 124.12,-486.04 124.12,-486.04 124.12,-491.96 124.12,-491.96 124.12,-494.92 121.17,-497.88 118.21,-497.88"/>
<text text-anchor="start" x="81.38" y="-485.32" font-family="Helvetica,sans-Serif" font-size="9.00">index.ts</text>
</a>
</g>
</g>
<!-- src/index.ts&#45;&gt;src/errors.ts -->
<g id="edge8" class="edge">
<title>src/index.ts&#45;&gt;src/errors.ts</title>
<path fill="none" stroke="#000000" stroke-width="2" stroke-opacity="0.200000" d="M124.55,-489.66C170.87,-490.96 264.87,-494.21 297.25,-500 303.2,-501.06 304.34,-502.75 310.25,-504 362.14,-514.95 378.3,-501.64 428.75,-518 433.61,-519.58 438.57,-521.88 443.14,-524.34"/>
<polygon fill="#000000" fill-opacity="0.200000" stroke="#000000" stroke-width="2" stroke-opacity="0.200000" points="447.18,-529.07 443.02,-524.27 449.27,-525.43 447.18,-529.07"/>
</g>
<!-- src/index.ts&#45;&gt;src/translators/reactjs/provider/ClaimProvider.tsx -->
<g id="edge14" class="edge">
<title>src/index.ts&#45;&gt;src/translators/reactjs/provider/ClaimProvider.tsx</title>
<path fill="none" stroke="#000000" stroke-width="2" stroke-opacity="0.200000" d="M99.76,-479.92C104.78,-454.29 122.13,-380.32 162.25,-335 172.83,-323.05 187.88,-313.83 201.36,-307.28"/>
<polygon fill="#000000" fill-opacity="0.200000" stroke="#000000" stroke-width="2" stroke-opacity="0.200000" points="207.8,-306.6 201.47,-307.22 206.03,-302.79 207.8,-306.6"/>
</g>
<!-- src/manager.ts -->
<g id="node13" class="node">
<title>src/manager.ts</title>
<g id="a_node13"><a xlink:href="src/manager.ts" xlink:title="manager.ts">
<path fill="#ddfeff" stroke="black" d="M258.71,-567.88C258.71,-567.88 208.79,-567.88 208.79,-567.88 205.83,-567.88 202.88,-564.92 202.88,-561.96 202.88,-561.96 202.88,-556.04 202.88,-556.04 202.88,-553.08 205.83,-550.12 208.79,-550.12 208.79,-550.12 258.71,-550.12 258.71,-550.12 261.67,-550.12 264.62,-553.08 264.62,-556.04 264.62,-556.04 264.62,-561.96 264.62,-561.96 264.62,-564.92 261.67,-567.88 258.71,-567.88"/>
<text text-anchor="start" x="210.88" y="-555.33" font-family="Helvetica,sans-Serif" font-size="9.00">manager.ts</text>
</a>
</g>
</g>
<!-- src/index.ts&#45;&gt;src/manager.ts -->
<g id="edge9" class="edge">
<title>src/index.ts&#45;&gt;src/manager.ts</title>
<path fill="none" stroke="#000000" stroke-width="2" stroke-opacity="0.200000" d="M106.79,-498.14C118.35,-509.8 139.97,-529.8 162.25,-541 172.63,-546.21 184.64,-550 195.78,-552.72"/>
<polygon fill="#000000" fill-opacity="0.200000" stroke="#000000" stroke-width="2" stroke-opacity="0.200000" points="201.13,-556.1 195.75,-552.72 202.07,-552.01 201.13,-556.1"/>
</g>
<!-- src/index.ts&#45;&gt;src/manager.mocks.ts -->
<g id="edge10" class="edge">
<title>src/index.ts&#45;&gt;src/manager.mocks.ts</title>
<path fill="none" stroke="#000000" stroke-width="2" stroke-opacity="0.200000" d="M124.15,-489C167.84,-489 256.69,-489 313.26,-489"/>
<polygon fill="#000000" fill-opacity="0.200000" stroke="#000000" stroke-width="2" stroke-opacity="0.200000" points="319.34,-491.1 313.34,-489 319.34,-486.9 319.34,-491.1"/>
</g>
<!-- src/transformers.ts -->
<g id="node15" class="node">
<title>src/transformers.ts</title>
<g id="a_node15"><a xlink:href="src/transformers.ts" xlink:title="transformers.ts">
<path fill="#ddfeff" stroke="black" d="M397.58,-571.88C397.58,-571.88 333.42,-571.88 333.42,-571.88 330.46,-571.88 327.5,-568.92 327.5,-565.96 327.5,-565.96 327.5,-560.04 327.5,-560.04 327.5,-557.08 330.46,-554.12 333.42,-554.12 333.42,-554.12 397.58,-554.12 397.58,-554.12 400.54,-554.12 403.5,-557.08 403.5,-560.04 403.5,-560.04 403.5,-565.96 403.5,-565.96 403.5,-568.92 400.54,-571.88 397.58,-571.88"/>
<text text-anchor="start" x="335.5" y="-559.33" font-family="Helvetica,sans-Serif" font-size="9.00">transformers.ts</text>
</a>
</g>
</g>
<!-- src/index.ts&#45;&gt;src/transformers.ts -->
<g id="edge11" class="edge">
<title>src/index.ts&#45;&gt;src/transformers.ts</title>
<path fill="none" stroke="#000000" stroke-width="2" stroke-opacity="0.200000" d="M119.5,-498.28C131.84,-503.4 147.73,-509.59 162.25,-514 221.05,-531.88 237.83,-528.28 297.25,-544 303.09,-545.55 304.45,-546.31 310.25,-548 314.44,-549.22 318.81,-550.47 323.18,-551.71"/>
<polygon fill="#000000" fill-opacity="0.200000" stroke="#000000" stroke-width="2" stroke-opacity="0.200000" points="328.49,-555.38 323.28,-551.74 329.62,-551.33 328.49,-555.38"/>
</g>
<!-- src/translators/reactjs/hooks/useClaim.tsx -->
<g id="node16" class="node">
<title>src/translators/reactjs/hooks/useClaim.tsx</title>
<g id="a_node16"><a xlink:href="src/translators/reactjs/hooks/useClaim.tsx" xlink:title="useClaim.tsx">
<path fill="#bbfeff" stroke="black" d="M393.83,-213.88C393.83,-213.88 337.17,-213.88 337.17,-213.88 334.21,-213.88 331.25,-210.92 331.25,-207.96 331.25,-207.96 331.25,-202.04 331.25,-202.04 331.25,-199.08 334.21,-196.12 337.17,-196.12 337.17,-196.12 393.83,-196.12 393.83,-196.12 396.79,-196.12 399.75,-199.08 399.75,-202.04 399.75,-202.04 399.75,-207.96 399.75,-207.96 399.75,-210.92 396.79,-213.88 393.83,-213.88"/>
<text text-anchor="start" x="339.25" y="-201.32" font-family="Helvetica,sans-Serif" font-size="9.00">useClaim.tsx</text>
</a>
</g>
</g>
<!-- src/index.ts&#45;&gt;src/translators/reactjs/hooks/useClaim.tsx -->
<g id="edge12" class="edge">
<title>src/index.ts&#45;&gt;src/translators/reactjs/hooks/useClaim.tsx</title>
<path fill="none" stroke="#000000" stroke-width="2" stroke-opacity="0.200000" d="M124.52,-488.55C167.85,-486.27 253.56,-475.01 297.25,-423 322.68,-392.73 299.67,-373.09 310.25,-335 322.17,-292.11 344.57,-244.48 356.51,-220.55"/>
<polygon fill="#000000" fill-opacity="0.200000" stroke="#000000" stroke-width="2" stroke-opacity="0.200000" points="361.15,-216.01 356.57,-220.43 357.4,-214.12 361.15,-216.01"/>
</g>
<!-- src/translators/reactjs/hooks/useClaimTokens.tsx -->
<g id="node17" class="node">
<title>src/translators/reactjs/hooks/useClaimTokens.tsx</title>
<g id="a_node17"><a xlink:href="src/translators/reactjs/hooks/useClaimTokens.tsx" xlink:title="useClaimTokens.tsx">
<path fill="#bbfeff" stroke="black" d="M276.71,-213.88C276.71,-213.88 190.79,-213.88 190.79,-213.88 187.83,-213.88 184.88,-210.92 184.88,-207.96 184.88,-207.96 184.88,-202.04 184.88,-202.04 184.88,-199.08 187.83,-196.12 190.79,-196.12 190.79,-196.12 276.71,-196.12 276.71,-196.12 279.67,-196.12 282.62,-199.08 282.62,-202.04 282.62,-202.04 282.62,-207.96 282.62,-207.96 282.62,-210.92 279.67,-213.88 276.71,-213.88"/>
<text text-anchor="start" x="192.88" y="-201.32" font-family="Helvetica,sans-Serif" font-size="9.00">useClaimTokens.tsx</text>
</a>
</g>
</g>
<!-- src/index.ts&#45;&gt;src/translators/reactjs/hooks/useClaimTokens.tsx -->
<g id="edge13" class="edge">
<title>src/index.ts&#45;&gt;src/translators/reactjs/hooks/useClaimTokens.tsx</title>
<path fill="none" stroke="#000000" stroke-width="2" stroke-opacity="0.200000" d="M98.09,-479.95C98.41,-445.54 103.75,-321.02 162.25,-245 171.69,-232.73 186.03,-223.62 199.32,-217.22"/>
<polygon fill="#000000" fill-opacity="0.200000" stroke="#000000" stroke-width="2" stroke-opacity="0.200000" points="205.7,-216.62 199.37,-217.2 203.96,-212.8 205.7,-216.62"/>
</g>
<!-- src/translators/reactjs/state/state.mocks.ts -->
<g id="node18" class="node">
<title>src/translators/reactjs/state/state.mocks.ts</title>
<g id="a_node18"><a xlink:href="src/translators/reactjs/state/state.mocks.ts" xlink:title="state.mocks.ts">
<path fill="#ddfeff" stroke="black" d="M264.33,-363.88C264.33,-363.88 203.17,-363.88 203.17,-363.88 200.21,-363.88 197.25,-360.92 197.25,-357.96 197.25,-357.96 197.25,-352.04 197.25,-352.04 197.25,-349.08 200.21,-346.12 203.17,-346.12 203.17,-346.12 264.33,-346.12 264.33,-346.12 267.29,-346.12 270.25,-349.08 270.25,-352.04 270.25,-352.04 270.25,-357.96 270.25,-357.96 270.25,-360.92 267.29,-363.88 264.33,-363.88"/>
<text text-anchor="start" x="205.25" y="-351.32" font-family="Helvetica,sans-Serif" font-size="9.00">state.mocks.ts</text>
</a>
</g>
</g>
<!-- src/index.ts&#45;&gt;src/translators/reactjs/state/state.mocks.ts -->
<g id="edge15" class="edge">
<title>src/index.ts&#45;&gt;src/translators/reactjs/state/state.mocks.ts</title>
<path fill="none" stroke="#000000" stroke-width="2" stroke-opacity="0.200000" d="M100.25,-479.82C105.97,-457.23 123.94,-398.71 162.25,-370 170.3,-363.96 180.26,-360.24 190.12,-357.97"/>
<polygon fill="#000000" fill-opacity="0.200000" stroke="#000000" stroke-width="2" stroke-opacity="0.200000" points="196.34,-358.88 190.05,-357.99 195.52,-354.76 196.34,-358.88"/>
</g>
<!-- src/validators.ts -->
<g id="node19" class="node">
<title>src/validators.ts</title>
<g id="a_node19"><a xlink:href="src/validators.ts" xlink:title="validators.ts">
<path fill="#ddfeff" stroke="black" d="M391.96,-541.88C391.96,-541.88 339.04,-541.88 339.04,-541.88 336.08,-541.88 333.12,-538.92 333.12,-535.96 333.12,-535.96 333.12,-530.04 333.12,-530.04 333.12,-527.08 336.08,-524.12 339.04,-524.12 339.04,-524.12 391.96,-524.12 391.96,-524.12 394.92,-524.12 397.88,-527.08 397.88,-530.04 397.88,-530.04 397.88,-535.96 397.88,-535.96 397.88,-538.92 394.92,-541.88 391.96,-541.88"/>
<text text-anchor="start" x="341.12" y="-529.33" font-family="Helvetica,sans-Serif" font-size="9.00">validators.ts</text>
</a>
</g>
</g>
<!-- src/index.ts&#45;&gt;src/validators.ts -->
<g id="edge16" class="edge">
<title>src/index.ts&#45;&gt;src/validators.ts</title>
<path fill="none" stroke="#000000" stroke-width="2" stroke-opacity="0.200000" d="M124.15,-493.3C171.23,-501.08 270.75,-517.51 325.81,-526.61"/>
<polygon fill="#000000" fill-opacity="0.200000" stroke="#000000" stroke-width="2" stroke-opacity="0.200000" points="331.3,-529.64 325.72,-526.59 331.98,-525.5 331.3,-529.64"/>
</g>
<!-- src/manager.ts&#45;&gt;src/transformers.ts -->
<g id="edge20" class="edge">
<title>src/manager.ts&#45;&gt;src/transformers.ts</title>
<path fill="none" stroke="#000000" stroke-width="2" stroke-opacity="0.200000" d="M264.84,-559.93C280.8,-560.42 300.74,-561.03 318.58,-561.58"/>
<polygon fill="#000000" fill-opacity="0.200000" stroke="#000000" stroke-width="2" stroke-opacity="0.200000" points="318.06,-563.67 324.12,-561.76 318.19,-559.47 318.06,-563.67"/>
</g>
<!-- src/manager.ts&#45;&gt;src/validators.ts -->
<g id="edge21" class="edge">
<title>src/manager.ts&#45;&gt;src/validators.ts</title>
<path fill="none" stroke="#000000" stroke-width="2" stroke-opacity="0.200000" d="M264.84,-552.97C282.42,-549.45 304.84,-544.96 323.96,-541.12"/>
<polygon fill="#000000" fill-opacity="0.200000" stroke="#000000" stroke-width="2" stroke-opacity="0.200000" points="324.32,-543.19 329.79,-539.96 323.5,-539.07 324.32,-543.19"/>
</g>
<!-- src/transformers.ts&#45;&gt;src/errors.ts -->
<g id="edge25" class="edge">
<title>src/transformers.ts&#45;&gt;src/errors.ts</title>
<path fill="none" stroke="#000000" stroke-width="2" stroke-opacity="0.200000" d="M403.82,-554.5C410.45,-552.88 417.36,-551.12 428,-548.14"/>
<polygon fill="#000000" fill-opacity="0.200000" stroke="#000000" stroke-width="2" stroke-opacity="0.200000" points="428.35,-550.22 433.54,-546.56 427.2,-546.18 428.35,-550.22"/>
</g>
<!-- src/translators/reactjs/hooks/useClaim.tsx&#45;&gt;src/translators/reactjs/provider/ClaimProvider.tsx -->
<g id="edge26" class="edge">
<title>src/translators/reactjs/hooks/useClaim.tsx&#45;&gt;src/translators/reactjs/provider/ClaimProvider.tsx</title>
<path fill="none" stroke="#000000" stroke-width="2" stroke-opacity="0.200000" d="M358.93,-214.24C348.77,-230.26 325.64,-263.07 297.25,-280 293.87,-282.02 290.24,-283.76 286.48,-285.27"/>
<polygon fill="#000000" fill-opacity="0.200000" stroke="#000000" stroke-width="2" stroke-opacity="0.200000" points="285.93,-283.24 280.97,-287.21 287.33,-287.2 285.93,-283.24"/>
</g>
<!-- src/translators/reactjs/hooks/useClaimTokens.tsx&#45;&gt;src/translators/reactjs/hooks/useClaim.tsx -->
<g id="edge31" class="edge">
<title>src/translators/reactjs/hooks/useClaimTokens.tsx&#45;&gt;src/translators/reactjs/hooks/useClaim.tsx</title>
<path fill="none" stroke="#000000" stroke-width="2" stroke-opacity="0.200000" d="M283.06,-205C295.94,-205 309.74,-205 322.26,-205"/>
<polygon fill="#000000" fill-opacity="0.200000" stroke="#000000" stroke-width="2" stroke-opacity="0.200000" points="322.09,-207.1 328.09,-205 322.09,-202.9 322.09,-207.1"/>
</g>
<!-- src/translators/reactjs/state/state.mocks.ts&#45;&gt;src/translators/reactjs/state/state.ts -->
<g id="edge40" class="edge">
<title>src/translators/reactjs/state/state.mocks.ts&#45;&gt;src/translators/reactjs/state/state.ts</title>
<path fill="none" stroke="#000000" stroke-width="2" stroke-opacity="0.200000" d="M270.55,-355C288.98,-355 311.37,-355 329.67,-355"/>
<polygon fill="#000000" fill-opacity="0.200000" stroke="#000000" stroke-width="2" stroke-opacity="0.200000" points="329.26,-357.1 335.26,-355 329.26,-352.9 329.26,-357.1"/>
</g>
<!-- src/translators/reactjs/state/state.mocks.ts&#45;&gt;src/manager.mocks.ts -->
<g id="edge39" class="edge">
<title>src/translators/reactjs/state/state.mocks.ts&#45;&gt;src/manager.mocks.ts</title>
<path fill="none" stroke="#000000" stroke-width="2" stroke-opacity="0.200000" d="M270.53,-356.81C280.29,-358.96 290.13,-362.92 297.25,-370 314.44,-387.11 299.39,-401.31 310.25,-423 319.89,-442.25 336.03,-460.88 348.21,-473.41"/>
<polygon fill="#000000" fill-opacity="0.200000" stroke="#000000" stroke-width="2" stroke-opacity="0.200000" points="346.64,-474.81 352.36,-477.57 349.61,-471.84 346.64,-474.81"/>
</g>
<!-- src/manager.test.ts -->
<g id="node20" class="node">
<title>src/manager.test.ts</title>
<g id="a_node20"><a xlink:href="src/manager.test.ts" xlink:title="manager.test.ts">
<path fill="#ddfeff" stroke="black" d="M130.33,-567.88C130.33,-567.88 63.92,-567.88 63.92,-567.88 60.96,-567.88 58,-564.92 58,-561.96 58,-561.96 58,-556.04 58,-556.04 58,-553.08 60.96,-550.12 63.92,-550.12 63.92,-550.12 130.33,-550.12 130.33,-550.12 133.29,-550.12 136.25,-553.08 136.25,-556.04 136.25,-556.04 136.25,-561.96 136.25,-561.96 136.25,-564.92 133.29,-567.88 130.33,-567.88"/>
<text text-anchor="start" x="66" y="-555.33" font-family="Helvetica,sans-Serif" font-size="9.00">manager.test.ts</text>
</a>
</g>
</g>
<!-- src/manager.test.ts&#45;&gt;src/api&#45;faucet.mocks.ts -->
<g id="edge17" class="edge">
<title>src/manager.test.ts&#45;&gt;src/api&#45;faucet.mocks.ts</title>
<path fill="none" stroke="#000000" stroke-width="2" stroke-opacity="0.200000" d="M107.1,-568.08C118.66,-579.06 139.94,-596.95 162.25,-604 211.56,-619.57 271.03,-615.25 312.68,-608.77"/>
<polygon fill="#000000" fill-opacity="0.200000" stroke="#000000" stroke-width="2" stroke-opacity="0.200000" points="312.98,-610.85 318.56,-607.8 312.3,-606.7 312.98,-610.85"/>
</g>
<!-- src/manager.test.ts&#45;&gt;src/manager.ts -->
<g id="edge18" class="edge">
<title>src/manager.test.ts&#45;&gt;src/manager.ts</title>
<path fill="none" stroke="#000000" stroke-width="2" stroke-opacity="0.200000" d="M136.7,-559C154.73,-559 176.15,-559 194.17,-559"/>
<polygon fill="#000000" fill-opacity="0.200000" stroke="#000000" stroke-width="2" stroke-opacity="0.200000" points="193.7,-561.1 199.69,-559 193.69,-556.9 193.7,-561.1"/>
</g>
<!-- src/manager.test.ts&#45;&gt;src/manager.mocks.ts -->
<g id="edge19" class="edge">
<title>src/manager.test.ts&#45;&gt;src/manager.mocks.ts</title>
<path fill="none" stroke="#000000" stroke-width="2" stroke-opacity="0.200000" d="M133.77,-549.63C182.02,-536.95 268.06,-514.34 320.34,-500.6"/>
<polygon fill="#000000" fill-opacity="0.200000" stroke="#000000" stroke-width="2" stroke-opacity="0.200000" points="320.87,-502.64 326.14,-499.08 319.8,-498.58 320.87,-502.64"/>
</g>
<!-- src/transformers.test.ts -->
<g id="node21" class="node">
<title>src/transformers.test.ts</title>
<g id="a_node21"><a xlink:href="src/transformers.test.ts" xlink:title="transformers.test.ts">
<path fill="#ddfeff" stroke="black" d="M274.08,-597.88C274.08,-597.88 193.42,-597.88 193.42,-597.88 190.46,-597.88 187.5,-594.92 187.5,-591.96 187.5,-591.96 187.5,-586.04 187.5,-586.04 187.5,-583.08 190.46,-580.12 193.42,-580.12 193.42,-580.12 274.08,-580.12 274.08,-580.12 277.04,-580.12 280,-583.08 280,-586.04 280,-586.04 280,-591.96 280,-591.96 280,-594.92 277.04,-597.88 274.08,-597.88"/>
<text text-anchor="start" x="195.5" y="-585.33" font-family="Helvetica,sans-Serif" font-size="9.00">transformers.test.ts</text>
</a>
</g>
</g>
<!-- src/transformers.test.ts&#45;&gt;src/api&#45;faucet.mocks.ts -->
<g id="edge22" class="edge">
<title>src/transformers.test.ts&#45;&gt;src/api&#45;faucet.mocks.ts</title>
<path fill="none" stroke="#000000" stroke-width="2" stroke-opacity="0.200000" d="M280.49,-592.17C289.88,-592.82 299.85,-593.52 309.52,-594.19"/>
<polygon fill="#000000" fill-opacity="0.200000" stroke="#000000" stroke-width="2" stroke-opacity="0.200000" points="309.14,-596.27 315.27,-594.59 309.43,-592.08 309.14,-596.27"/>
</g>
<!-- src/transformers.test.ts&#45;&gt;src/manager.mocks.ts -->
<g id="edge23" class="edge">
<title>src/transformers.test.ts&#45;&gt;src/manager.mocks.ts</title>
<path fill="none" stroke="#000000" stroke-width="2" stroke-opacity="0.200000" d="M280.27,-584.44C286.59,-582.1 292.53,-578.75 297.25,-574 315.25,-555.87 294.71,-538.28 310.25,-518 315.16,-511.59 321.91,-506.43 328.98,-502.35"/>
<polygon fill="#000000" fill-opacity="0.200000" stroke="#000000" stroke-width="2" stroke-opacity="0.200000" points="329.66,-504.37 334.01,-499.74 327.72,-500.64 329.66,-504.37"/>
</g>
<!-- src/transformers.test.ts&#45;&gt;src/transformers.ts -->
<g id="edge24" class="edge">
<title>src/transformers.test.ts&#45;&gt;src/transformers.ts</title>
<path fill="none" stroke="#000000" stroke-width="2" stroke-opacity="0.200000" d="M280.49,-579.83C292.82,-577.36 306.17,-574.69 318.51,-572.22"/>
<polygon fill="#000000" fill-opacity="0.200000" stroke="#000000" stroke-width="2" stroke-opacity="0.200000" points="318.85,-574.29 324.32,-571.05 318.03,-570.17 318.85,-574.29"/>
</g>
<!-- src/translators/reactjs/hooks/useClaimTokens.test.tsx -->
<g id="node22" class="node">
<title>src/translators/reactjs/hooks/useClaimTokens.test.tsx</title>
<g id="a_node22"><a xlink:href="src/translators/reactjs/hooks/useClaimTokens.test.tsx" xlink:title="useClaimTokens.test.tsx">
<path fill="#bbfeff" stroke="black" d="M148.33,-213.88C148.33,-213.88 45.92,-213.88 45.92,-213.88 42.96,-213.88 40,-210.92 40,-207.96 40,-207.96 40,-202.04 40,-202.04 40,-199.08 42.96,-196.12 45.92,-196.12 45.92,-196.12 148.33,-196.12 148.33,-196.12 151.29,-196.12 154.25,-199.08 154.25,-202.04 154.25,-202.04 154.25,-207.96 154.25,-207.96 154.25,-210.92 151.29,-213.88 148.33,-213.88"/>
<text text-anchor="start" x="48" y="-201.32" font-family="Helvetica,sans-Serif" font-size="9.00">useClaimTokens.test.tsx</text>
</a>
</g>
</g>
<!-- src/translators/reactjs/hooks/useClaimTokens.test.tsx&#45;&gt;src/fixtures/query&#45;client.ts -->
<g id="edge27" class="edge">
<title>src/translators/reactjs/hooks/useClaimTokens.test.tsx&#45;&gt;src/fixtures/query&#45;client.ts</title>
<path fill="none" stroke="#000000" stroke-width="2" stroke-opacity="0.200000" d="M98.03,-195.74C98.27,-164.92 103.71,-65.36 162.25,-24 214.3,12.78 293.87,-9.96 336.01,-26.43"/>
<polygon fill="#000000" fill-opacity="0.200000" stroke="#000000" stroke-width="2" stroke-opacity="0.200000" points="335.01,-28.29 341.36,-28.59 336.59,-24.4 335.01,-28.29"/>
</g>
<!-- src/translators/reactjs/hooks/useClaimTokens.test.tsx&#45;&gt;src/translators/reactjs/provider/ClaimProvider.tsx -->
<g id="edge29" class="edge">
<title>src/translators/reactjs/hooks/useClaimTokens.test.tsx&#45;&gt;src/translators/reactjs/provider/ClaimProvider.tsx</title>
<path fill="none" stroke="#000000" stroke-width="2" stroke-opacity="0.200000" d="M150.32,-214.36C151.73,-215.45 153.04,-216.67 154.25,-218 172.9,-238.6 143.42,-259.57 162.25,-280 167.31,-285.49 173.84,-289.23 180.88,-291.75"/>
<polygon fill="#000000" fill-opacity="0.200000" stroke="#000000" stroke-width="2" stroke-opacity="0.200000" points="180.07,-293.7 186.41,-293.34 181.22,-289.66 180.07,-293.7"/>
</g>
<!-- src/translators/reactjs/hooks/useClaimTokens.test.tsx&#45;&gt;src/manager.mocks.ts -->
<g id="edge28" class="edge">
<title>src/translators/reactjs/hooks/useClaimTokens.test.tsx&#45;&gt;src/manager.mocks.ts</title>
<path fill="none" stroke="#000000" stroke-width="2" stroke-opacity="0.200000" d="M150.48,-214.22C151.84,-215.36 153.1,-216.61 154.25,-218 168.78,-235.56 148.51,-404.81 162.25,-423 180.44,-447.07 257.81,-467.31 311.4,-478.79"/>
<polygon fill="#000000" fill-opacity="0.200000" stroke="#000000" stroke-width="2" stroke-opacity="0.200000" points="310.85,-480.82 317.15,-480 311.72,-476.71 310.85,-480.82"/>
</g>
<!-- src/translators/reactjs/hooks/useClaimTokens.test.tsx&#45;&gt;src/translators/reactjs/hooks/useClaimTokens.tsx -->
<g id="edge30" class="edge">
<title>src/translators/reactjs/hooks/useClaimTokens.test.tsx&#45;&gt;src/translators/reactjs/hooks/useClaimTokens.tsx</title>
<path fill="none" stroke="#000000" stroke-width="2" stroke-opacity="0.200000" d="M154.44,-205C161.53,-205 168.79,-205 175.89,-205"/>
<polygon fill="#000000" fill-opacity="0.200000" stroke="#000000" stroke-width="2" stroke-opacity="0.200000" points="175.75,-207.1 181.75,-205 175.75,-202.9 175.75,-207.1"/>
</g>
<!-- src/translators/reactjs/provider/ClaimProvider.test.tsx -->
<g id="node23" class="node">
<title>src/translators/reactjs/provider/ClaimProvider.test.tsx</title>
<g id="a_node23"><a xlink:href="src/translators/reactjs/provider/ClaimProvider.test.tsx" xlink:title="ClaimProvider.test.tsx">
<path fill="#bbfeff" stroke="black" d="M280.08,-273.88C280.08,-273.88 187.42,-273.88 187.42,-273.88 184.46,-273.88 181.5,-270.92 181.5,-267.96 181.5,-267.96 181.5,-262.04 181.5,-262.04 181.5,-259.08 184.46,-256.12 187.42,-256.12 187.42,-256.12 280.08,-256.12 280.08,-256.12 283.04,-256.12 286,-259.08 286,-262.04 286,-262.04 286,-267.96 286,-267.96 286,-270.92 283.04,-273.88 280.08,-273.88"/>
<text text-anchor="start" x="189.5" y="-261.32" font-family="Helvetica,sans-Serif" font-size="9.00">ClaimProvider.test.tsx</text>
</a>
</g>
</g>
<!-- src/translators/reactjs/provider/ClaimProvider.test.tsx&#45;&gt;src/fixtures/query&#45;client.ts -->
<g id="edge32" class="edge">
<title>src/translators/reactjs/provider/ClaimProvider.test.tsx&#45;&gt;src/fixtures/query&#45;client.ts</title>
<path fill="none" stroke="#000000" stroke-width="2" stroke-opacity="0.200000" d="M281.2,-255.71C287.41,-252.61 293.06,-248.49 297.25,-243 321.85,-210.77 286.41,-93.8 310.25,-61 313.13,-57.04 316.84,-53.8 320.97,-51.13"/>
<polygon fill="#000000" fill-opacity="0.200000" stroke="#000000" stroke-width="2" stroke-opacity="0.200000" points="321.81,-53.06 326.1,-48.37 319.82,-49.36 321.81,-53.06"/>
</g>
<!-- src/translators/reactjs/provider/ClaimProvider.test.tsx&#45;&gt;src/fixtures/wrapperMaker.tsx -->
<g id="edge33" class="edge">
<title>src/translators/reactjs/provider/ClaimProvider.test.tsx&#45;&gt;src/fixtures/wrapperMaker.tsx</title>
<path fill="none" stroke="#000000" stroke-width="2" stroke-opacity="0.200000" d="M181.13,-258.98C170.51,-254.79 161.57,-247.97 158.25,-237 155.29,-227.22 155.29,-200.78 158.25,-191 159.18,-187.93 160.07,-187.35 162.25,-185 177.12,-168.94 196.89,-153.84 211.87,-143.37"/>
<polygon fill="#000000" fill-opacity="0.200000" stroke="#000000" stroke-width="2" stroke-opacity="0.200000" points="212.95,-145.17 216.72,-140.05 210.58,-141.71 212.95,-145.17"/>
</g>
<!-- src/translators/reactjs/provider/ClaimProvider.test.tsx&#45;&gt;src/translators/reactjs/state/state.ts -->
<g id="edge36" class="edge">
<title>src/translators/reactjs/provider/ClaimProvider.test.tsx&#45;&gt;src/translators/reactjs/state/state.ts</title>
<path fill="none" stroke="#000000" stroke-width="2" stroke-opacity="0.200000" d="M285.28,-274.26C289.46,-275.87 293.51,-277.77 297.25,-280 321.87,-294.68 342.53,-321.3 354.21,-338.56"/>
<polygon fill="#000000" fill-opacity="0.200000" stroke="#000000" stroke-width="2" stroke-opacity="0.200000" points="352.22,-339.36 357.27,-343.22 355.73,-337.06 352.22,-339.36"/>
</g>
<!-- src/translators/reactjs/provider/ClaimProvider.test.tsx&#45;&gt;src/manager.mocks.ts -->
<g id="edge34" class="edge">
<title>src/translators/reactjs/provider/ClaimProvider.test.tsx&#45;&gt;src/manager.mocks.ts</title>
<path fill="none" stroke="#000000" stroke-width="2" stroke-opacity="0.200000" d="M286.33,-271.49C290.44,-273.67 294.18,-276.45 297.25,-280 318.12,-304.14 298.14,-393.48 310.25,-423 318.42,-442.91 334.76,-461.46 347.38,-473.79"/>
<polygon fill="#000000" fill-opacity="0.200000" stroke="#000000" stroke-width="2" stroke-opacity="0.200000" points="345.93,-475.3 351.74,-477.89 348.81,-472.25 345.93,-475.3"/>
</g>
<!-- src/translators/reactjs/provider/ClaimProvider.test.tsx&#45;&gt;src/translators/reactjs/hooks/useClaim.tsx -->
<g id="edge35" class="edge">
<title>src/translators/reactjs/provider/ClaimProvider.test.tsx&#45;&gt;src/translators/reactjs/hooks/useClaim.tsx</title>
<path fill="none" stroke="#000000" stroke-width="2" stroke-opacity="0.200000" d="M264.74,-255.64C275.19,-252.07 286.88,-247.71 297.25,-243 312.82,-235.93 329.57,-226.47 342.45,-218.76"/>
<polygon fill="#000000" fill-opacity="0.200000" stroke="#000000" stroke-width="2" stroke-opacity="0.200000" points="343.31,-220.7 347.35,-215.79 341.13,-217.11 343.31,-220.7"/>
</g>
<!-- src/translators/reactjs/state/state.test.ts -->
<g id="node24" class="node">
<title>src/translators/reactjs/state/state.test.ts</title>
<g id="a_node24"><a xlink:href="src/translators/reactjs/state/state.test.ts" xlink:title="state.test.ts">
<path fill="#ddfeff" stroke="black" d="M258.33,-393.88C258.33,-393.88 209.17,-393.88 209.17,-393.88 206.21,-393.88 203.25,-390.92 203.25,-387.96 203.25,-387.96 203.25,-382.04 203.25,-382.04 203.25,-379.08 206.21,-376.12 209.17,-376.12 209.17,-376.12 258.33,-376.12 258.33,-376.12 261.29,-376.12 264.25,-379.08 264.25,-382.04 264.25,-382.04 264.25,-387.96 264.25,-387.96 264.25,-390.92 261.29,-393.88 258.33,-393.88"/>
<text text-anchor="start" x="211.25" y="-381.32" font-family="Helvetica,sans-Serif" font-size="9.00">state.test.ts</text>
</a>
</g>
</g>
<!-- src/translators/reactjs/state/state.test.ts&#45;&gt;src/translators/reactjs/state/state.ts -->
<g id="edge42" class="edge">
<title>src/translators/reactjs/state/state.test.ts&#45;&gt;src/translators/reactjs/state/state.ts</title>
<path fill="none" stroke="#000000" stroke-width="2" stroke-opacity="0.200000" d="M264.52,-378.12C283.94,-373.63 309.37,-367.75 329.72,-363.04"/>
<polygon fill="#000000" fill-opacity="0.200000" stroke="#000000" stroke-width="2" stroke-opacity="0.200000" points="330.06,-365.12 335.44,-361.72 329.12,-361.03 330.06,-365.12"/>
</g>
<!-- src/translators/reactjs/state/state.test.ts&#45;&gt;src/manager.mocks.ts -->
<g id="edge41" class="edge">
<title>src/translators/reactjs/state/state.test.ts&#45;&gt;src/manager.mocks.ts</title>
<path fill="none" stroke="#000000" stroke-width="2" stroke-opacity="0.200000" d="M264.65,-385.9C275.79,-387.52 287.97,-390.97 297.25,-398 307.23,-405.56 303.35,-412.55 310.25,-423 322.25,-441.17 338.33,-460.21 349.86,-473.14"/>
<polygon fill="#000000" fill-opacity="0.200000" stroke="#000000" stroke-width="2" stroke-opacity="0.200000" points="348.14,-474.36 353.72,-477.41 351.25,-471.55 348.14,-474.36"/>
</g>
</g>
</svg>
