<?xml version="1.0" encoding="UTF-8" standalone="no"?>
<!DOCTYPE svg PUBLIC "-//W3C//DTD SVG 1.1//EN"
 "http://www.w3.org/Graphics/SVG/1.1/DTD/svg11.dtd">
<!-- Generated by graphviz version 12.2.1 (20241206.2353)
 -->
<!-- Title: dependency&#45;cruiser output Pages: 1 -->
<svg width="534pt" height="524pt"
 viewBox="0.00 0.00 533.75 524.00" xmlns="http://www.w3.org/2000/svg" xmlns:xlink="http://www.w3.org/1999/xlink">
<g id="graph0" class="graph" transform="scale(1 1) rotate(0) translate(4 520)">
<title>dependency&#45;cruiser output</title>
<polygon fill="white" stroke="none" points="-4,4 -4,-520 529.75,-520 529.75,4 -4,4"/>
<g id="clust1" class="cluster">
<title>cluster_src</title>
<path fill="#ffffff" stroke="black" stroke-width="2" d="M20,-8C20,-8 505.75,-8 505.75,-8 511.75,-8 517.75,-14 517.75,-20 517.75,-20 517.75,-496 517.75,-496 517.75,-502 511.75,-508 505.75,-508 505.75,-508 20,-508 20,-508 14,-508 8,-502 8,-496 8,-496 8,-20 8,-20 8,-14 14,-8 20,-8"/>
<text text-anchor="middle" x="262.88" y="-495.45" font-family="Helvetica,sans-Serif" font-weight="bold" font-size="9.00">src</text>
</g>
<g id="clust2" class="cluster">
<title>cluster_src/fixtures</title>
<path fill="#ffffff" stroke="black" stroke-width="2" d="M59.25,-16C59.25,-16 346,-16 346,-16 352,-16 358,-22 358,-28 358,-28 358,-146 358,-146 358,-152 352,-158 346,-158 346,-158 59.25,-158 59.25,-158 53.25,-158 47.25,-152 47.25,-146 47.25,-146 47.25,-28 47.25,-28 47.25,-22 53.25,-16 59.25,-16"/>
<text text-anchor="middle" x="202.62" y="-145.45" font-family="Helvetica,sans-Serif" font-weight="bold" font-size="9.00">fixtures</text>
</g>
<g id="clust3" class="cluster">
<title>cluster_src/translators</title>
<path fill="#ffffff" stroke="black" stroke-width="2" d="M28,-166C28,-166 497.75,-166 497.75,-166 503.75,-166 509.75,-172 509.75,-178 509.75,-178 509.75,-430 509.75,-430 509.75,-436 503.75,-442 497.75,-442 497.75,-442 28,-442 28,-442 22,-442 16,-436 16,-430 16,-430 16,-178 16,-178 16,-172 22,-166 28,-166"/>
<text text-anchor="middle" x="262.88" y="-429.45" font-family="Helvetica,sans-Serif" font-weight="bold" font-size="9.00">translators</text>
</g>
<g id="clust4" class="cluster">
<title>cluster_src/translators/reactjs</title>
<path fill="#ffffff" stroke="black" stroke-width="2" d="M36,-174C36,-174 489.75,-174 489.75,-174 495.75,-174 501.75,-180 501.75,-186 501.75,-186 501.75,-404 501.75,-404 501.75,-410 495.75,-416 489.75,-416 489.75,-416 36,-416 36,-416 30,-416 24,-410 24,-404 24,-404 24,-186 24,-186 24,-180 30,-174 36,-174"/>
<text text-anchor="middle" x="262.88" y="-403.45" font-family="Helvetica,sans-Serif" font-weight="bold" font-size="9.00">reactjs</text>
</g>
<!-- src/fixtures/ErrorBoundary.test.tsx -->
<g id="node1" class="node">
<title>src/fixtures/ErrorBoundary.test.tsx</title>
<g id="a_node1"><a xlink:href="src/fixtures/ErrorBoundary.test.tsx" xlink:title="ErrorBoundary.test.tsx">
<path fill="#bbfeff" stroke="black" d="M165.83,-41.88C165.83,-41.88 71.67,-41.88 71.67,-41.88 68.71,-41.88 65.75,-38.92 65.75,-35.96 65.75,-35.96 65.75,-30.04 65.75,-30.04 65.75,-27.08 68.71,-24.12 71.67,-24.12 71.67,-24.12 165.83,-24.12 165.83,-24.12 168.79,-24.12 171.75,-27.08 171.75,-30.04 171.75,-30.04 171.75,-35.96 171.75,-35.96 171.75,-38.92 168.79,-41.88 165.83,-41.88"/>
<text text-anchor="start" x="73.75" y="-29.32" font-family="Helvetica,sans-Serif" font-size="9.00">ErrorBoundary.test.tsx</text>
</a>
</g>
</g>
<!-- src/fixtures/ErrorBoundary.tsx -->
<g id="node2" class="node">
<title>src/fixtures/ErrorBoundary.tsx</title>
<g id="a_node2"><a xlink:href="src/fixtures/ErrorBoundary.tsx" xlink:title="ErrorBoundary.tsx">
<path fill="#bbfeff" stroke="black" d="M333.58,-49.88C333.58,-49.88 255.92,-49.88 255.92,-49.88 252.96,-49.88 250,-46.92 250,-43.96 250,-43.96 250,-38.04 250,-38.04 250,-35.08 252.96,-32.12 255.92,-32.12 255.92,-32.12 333.58,-32.12 333.58,-32.12 336.54,-32.12 339.5,-35.08 339.5,-38.04 339.5,-38.04 339.5,-43.96 339.5,-43.96 339.5,-46.92 336.54,-49.88 333.58,-49.88"/>
<text text-anchor="start" x="258" y="-37.33" font-family="Helvetica,sans-Serif" font-size="9.00">ErrorBoundary.tsx</text>
</a>
</g>
</g>
<!-- src/fixtures/ErrorBoundary.test.tsx&#45;&gt;src/fixtures/ErrorBoundary.tsx -->
<g id="edge1" class="edge">
<title>src/fixtures/ErrorBoundary.test.tsx&#45;&gt;src/fixtures/ErrorBoundary.tsx</title>
<path fill="none" stroke="#000000" stroke-width="2" stroke-opacity="0.200000" d="M171.96,-35.4C193.69,-36.4 218.89,-37.56 240.71,-38.56"/>
<polygon fill="#000000" fill-opacity="0.200000" stroke="#000000" stroke-width="2" stroke-opacity="0.200000" points="240.4,-40.65 246.49,-38.83 240.59,-36.45 240.4,-40.65"/>
</g>
<!-- src/fixtures/SuspenseBoundary.test.tsx -->
<g id="node3" class="node">
<title>src/fixtures/SuspenseBoundary.test.tsx</title>
<g id="a_node3"><a xlink:href="src/fixtures/SuspenseBoundary.test.tsx" xlink:title="SuspenseBoundary.test.tsx">
<path fill="#bbfeff" stroke="black" d="M176.33,-101.88C176.33,-101.88 61.17,-101.88 61.17,-101.88 58.21,-101.88 55.25,-98.92 55.25,-95.96 55.25,-95.96 55.25,-90.04 55.25,-90.04 55.25,-87.08 58.21,-84.12 61.17,-84.12 61.17,-84.12 176.33,-84.12 176.33,-84.12 179.29,-84.12 182.25,-87.08 182.25,-90.04 182.25,-90.04 182.25,-95.96 182.25,-95.96 182.25,-98.92 179.29,-101.88 176.33,-101.88"/>
<text text-anchor="start" x="63.25" y="-89.33" font-family="Helvetica,sans-Serif" font-size="9.00">SuspenseBoundary.test.tsx</text>
</a>
</g>
</g>
<!-- src/fixtures/SuspenseBoundary.tsx -->
<g id="node4" class="node">
<title>src/fixtures/SuspenseBoundary.tsx</title>
<g id="a_node4"><a xlink:href="src/fixtures/SuspenseBoundary.tsx" xlink:title="SuspenseBoundary.tsx">
<path fill="#bbfeff" stroke="black" d="M344.08,-94.88C344.08,-94.88 245.42,-94.88 245.42,-94.88 242.46,-94.88 239.5,-91.92 239.5,-88.96 239.5,-88.96 239.5,-83.04 239.5,-83.04 239.5,-80.08 242.46,-77.12 245.42,-77.12 245.42,-77.12 344.08,-77.12 344.08,-77.12 347.04,-77.12 350,-80.08 350,-83.04 350,-83.04 350,-88.96 350,-88.96 350,-91.92 347.04,-94.88 344.08,-94.88"/>
<text text-anchor="start" x="247.5" y="-82.33" font-family="Helvetica,sans-Serif" font-size="9.00">SuspenseBoundary.tsx</text>
</a>
</g>
</g>
<!-- src/fixtures/SuspenseBoundary.test.tsx&#45;&gt;src/fixtures/SuspenseBoundary.tsx -->
<g id="edge2" class="edge">
<title>src/fixtures/SuspenseBoundary.test.tsx&#45;&gt;src/fixtures/SuspenseBoundary.tsx</title>
<path fill="none" stroke="#000000" stroke-width="2" stroke-opacity="0.200000" d="M182.57,-90.47C198.03,-89.85 214.6,-89.18 230.1,-88.56"/>
<polygon fill="#000000" fill-opacity="0.200000" stroke="#000000" stroke-width="2" stroke-opacity="0.200000" points="230.15,-90.66 236.06,-88.32 229.98,-86.46 230.15,-90.66"/>
</g>
<!-- src/fixtures/query&#45;client.test.ts -->
<g id="node5" class="node">
<title>src/fixtures/query&#45;client.test.ts</title>
<g id="a_node5"><a xlink:href="src/fixtures/query-client.test.ts" xlink:title="query&#45;client.test.ts">
<path fill="#ddfeff" stroke="black" d="M157.58,-131.88C157.58,-131.88 79.92,-131.88 79.92,-131.88 76.96,-131.88 74,-128.92 74,-125.96 74,-125.96 74,-120.04 74,-120.04 74,-117.08 76.96,-114.12 79.92,-114.12 79.92,-114.12 157.58,-114.12 157.58,-114.12 160.54,-114.12 163.5,-117.08 163.5,-120.04 163.5,-120.04 163.5,-125.96 163.5,-125.96 163.5,-128.92 160.54,-131.88 157.58,-131.88"/>
<text text-anchor="start" x="82" y="-119.33" font-family="Helvetica,sans-Serif" font-size="9.00">query&#45;client.test.ts</text>
</a>
</g>
</g>
<!-- src/fixtures/query&#45;client.ts -->
<g id="node6" class="node">
<title>src/fixtures/query&#45;client.ts</title>
<g id="a_node6"><a xlink:href="src/fixtures/query-client.ts" xlink:title="query&#45;client.ts">
<path fill="#ddfeff" stroke="black" d="M325.33,-131.88C325.33,-131.88 264.17,-131.88 264.17,-131.88 261.21,-131.88 258.25,-128.92 258.25,-125.96 258.25,-125.96 258.25,-120.04 258.25,-120.04 258.25,-117.08 261.21,-114.12 264.17,-114.12 264.17,-114.12 325.33,-114.12 325.33,-114.12 328.29,-114.12 331.25,-117.08 331.25,-120.04 331.25,-120.04 331.25,-125.96 331.25,-125.96 331.25,-128.92 328.29,-131.88 325.33,-131.88"/>
<text text-anchor="start" x="266.25" y="-119.33" font-family="Helvetica,sans-Serif" font-size="9.00">query&#45;client.ts</text>
</a>
</g>
</g>
<!-- src/fixtures/query&#45;client.test.ts&#45;&gt;src/fixtures/query&#45;client.ts -->
<g id="edge3" class="edge">
<title>src/fixtures/query&#45;client.test.ts&#45;&gt;src/fixtures/query&#45;client.ts</title>
<path fill="none" stroke="#000000" stroke-width="2" stroke-opacity="0.200000" d="M163.66,-123C189.68,-123 222.59,-123 248.8,-123"/>
<polygon fill="#000000" fill-opacity="0.200000" stroke="#000000" stroke-width="2" stroke-opacity="0.200000" points="248.74,-125.1 254.74,-123 248.74,-120.9 248.74,-125.1"/>
</g>
<!-- src/fixtures/wrapper.tsx -->
<g id="node7" class="node">
<title>src/fixtures/wrapper.tsx</title>
<g id="a_node7"><a xlink:href="src/fixtures/wrapper.tsx" xlink:title="wrapper.tsx">
<path fill="#bbfeff" stroke="black" d="M144.46,-71.88C144.46,-71.88 93.04,-71.88 93.04,-71.88 90.08,-71.88 87.12,-68.92 87.12,-65.96 87.12,-65.96 87.12,-60.04 87.12,-60.04 87.12,-57.08 90.08,-54.12 93.04,-54.12 93.04,-54.12 144.46,-54.12 144.46,-54.12 147.42,-54.12 150.38,-57.08 150.38,-60.04 150.38,-60.04 150.38,-65.96 150.38,-65.96 150.38,-68.92 147.42,-71.88 144.46,-71.88"/>
<text text-anchor="start" x="95.12" y="-59.33" font-family="Helvetica,sans-Serif" font-size="9.00">wrapper.tsx</text>
</a>
</g>
</g>
<!-- src/fixtures/wrapper.tsx&#45;&gt;src/fixtures/ErrorBoundary.tsx -->
<g id="edge4" class="edge">
<title>src/fixtures/wrapper.tsx&#45;&gt;src/fixtures/ErrorBoundary.tsx</title>
<path fill="none" stroke="#000000" stroke-width="2" stroke-opacity="0.200000" d="M150.86,-59.07C175.75,-55.92 211.23,-51.43 240.61,-47.72"/>
<polygon fill="#000000" fill-opacity="0.200000" stroke="#000000" stroke-width="2" stroke-opacity="0.200000" points="240.82,-49.81 246.51,-46.97 240.29,-45.64 240.82,-49.81"/>
</g>
<!-- src/fixtures/wrapper.tsx&#45;&gt;src/fixtures/SuspenseBoundary.tsx -->
<g id="edge5" class="edge">
<title>src/fixtures/wrapper.tsx&#45;&gt;src/fixtures/SuspenseBoundary.tsx</title>
<path fill="none" stroke="#000000" stroke-width="2" stroke-opacity="0.200000" d="M150.86,-67.11C173,-70.04 203.51,-74.07 230.66,-77.66"/>
<polygon fill="#000000" fill-opacity="0.200000" stroke="#000000" stroke-width="2" stroke-opacity="0.200000" points="230.11,-79.71 236.34,-78.41 230.66,-75.54 230.11,-79.71"/>
</g>
<!-- src/index.ts -->
<g id="node8" class="node">
<title>src/index.ts</title>
<g id="a_node8"><a xlink:href="src/index.ts" xlink:title="index.ts">
<path fill="#ddfeff" stroke="black" d="M139.83,-467.88C139.83,-467.88 97.67,-467.88 97.67,-467.88 94.71,-467.88 91.75,-464.92 91.75,-461.96 91.75,-461.96 91.75,-456.04 91.75,-456.04 91.75,-453.08 94.71,-450.12 97.67,-450.12 97.67,-450.12 139.83,-450.12 139.83,-450.12 142.79,-450.12 145.75,-453.08 145.75,-456.04 145.75,-456.04 145.75,-461.96 145.75,-461.96 145.75,-464.92 142.79,-467.88 139.83,-467.88"/>
<text text-anchor="start" x="103" y="-455.32" font-family="Helvetica,sans-Serif" font-size="9.00">index.ts</text>
</a>
</g>
</g>
<!-- src/notification&#45;manager.ts -->
<g id="node9" class="node">
<title>src/notification&#45;manager.ts</title>
<g id="a_node9"><a xlink:href="src/notification-manager.ts" xlink:title="notification&#45;manager.ts">
<path fill="#ddfeff" stroke="black" d="M487.46,-467.88C487.46,-467.88 390.29,-467.88 390.29,-467.88 387.33,-467.88 384.38,-464.92 384.38,-461.96 384.38,-461.96 384.38,-456.04 384.38,-456.04 384.38,-453.08 387.33,-450.12 390.29,-450.12 390.29,-450.12 487.46,-450.12 487.46,-450.12 490.42,-450.12 493.38,-453.08 493.38,-456.04 493.38,-456.04 493.38,-461.96 493.38,-461.96 493.38,-464.92 490.42,-467.88 487.46,-467.88"/>
<text text-anchor="start" x="392.38" y="-455.32" font-family="Helvetica,sans-Serif" font-size="9.00">notification&#45;manager.ts</text>
</a>
</g>
</g>
<!-- src/index.ts&#45;&gt;src/notification&#45;manager.ts -->
<g id="edge6" class="edge">
<title>src/index.ts&#45;&gt;src/notification&#45;manager.ts</title>
<path fill="none" stroke="#000000" stroke-width="2" stroke-opacity="0.200000" d="M146.15,-458.66C166.04,-458.42 193.98,-458.12 218.5,-458 286.28,-457.66 303.22,-457.49 371,-458 373.01,-458.02 375.06,-458.03 377.13,-458.05"/>
<polygon fill="#000000" fill-opacity="0.200000" stroke="#000000" stroke-width="2" stroke-opacity="0.200000" points="383.2,-460.22 377.22,-458.05 383.24,-456.02 383.2,-460.22"/>
</g>
<!-- src/translators/reactjs/NotificationProvider.tsx -->
<g id="node10" class="node">
<title>src/translators/reactjs/NotificationProvider.tsx</title>
<g id="a_node10"><a xlink:href="src/translators/reactjs/NotificationProvider.tsx" xlink:title="NotificationProvider.tsx">
<path fill="#bbfeff" stroke="black" d="M487.83,-316.88C487.83,-316.88 389.92,-316.88 389.92,-316.88 386.96,-316.88 384,-313.92 384,-310.96 384,-310.96 384,-305.04 384,-305.04 384,-302.08 386.96,-299.12 389.92,-299.12 389.92,-299.12 487.83,-299.12 487.83,-299.12 490.79,-299.12 493.75,-302.08 493.75,-305.04 493.75,-305.04 493.75,-310.96 493.75,-310.96 493.75,-313.92 490.79,-316.88 487.83,-316.88"/>
<text text-anchor="start" x="392" y="-304.32" font-family="Helvetica,sans-Serif" font-size="9.00">NotificationProvider.tsx</text>
</a>
</g>
</g>
<!-- src/index.ts&#45;&gt;src/translators/reactjs/NotificationProvider.tsx -->
<g id="edge7" class="edge">
<title>src/index.ts&#45;&gt;src/translators/reactjs/NotificationProvider.tsx</title>
<path fill="none" stroke="#000000" stroke-width="2" stroke-opacity="0.200000" d="M146.16,-455.43C204.24,-447.04 340.36,-424.22 371,-391 391.03,-369.29 366.01,-347.12 383.83,-322.5"/>
<polygon fill="#000000" fill-opacity="0.200000" stroke="#000000" stroke-width="2" stroke-opacity="0.200000" points="389.27,-319.33 383.79,-322.55 386.06,-316.62 389.27,-319.33"/>
</g>
<!-- src/translators/reactjs/useNotificationsConfig.ts -->
<g id="node11" class="node">
<title>src/translators/reactjs/useNotificationsConfig.ts</title>
<g id="a_node11"><a xlink:href="src/translators/reactjs/useNotificationsConfig.ts" xlink:title="useNotificationsConfig.ts">
<path fill="#ddfeff" stroke="black" d="M347.46,-301.88C347.46,-301.88 242.04,-301.88 242.04,-301.88 239.08,-301.88 236.12,-298.92 236.12,-295.96 236.12,-295.96 236.12,-290.04 236.12,-290.04 236.12,-287.08 239.08,-284.12 242.04,-284.12 242.04,-284.12 347.46,-284.12 347.46,-284.12 350.42,-284.12 353.38,-287.08 353.38,-290.04 353.38,-290.04 353.38,-295.96 353.38,-295.96 353.38,-298.92 350.42,-301.88 347.46,-301.88"/>
<text text-anchor="start" x="244.12" y="-289.32" font-family="Helvetica,sans-Serif" font-size="9.00">useNotificationsConfig.ts</text>
</a>
</g>
</g>
<!-- src/index.ts&#45;&gt;src/translators/reactjs/useNotificationsConfig.ts -->
<g id="edge8" class="edge">
<title>src/index.ts&#45;&gt;src/translators/reactjs/useNotificationsConfig.ts</title>
<path fill="none" stroke="#000000" stroke-width="2" stroke-opacity="0.200000" d="M145.86,-453.96C165.54,-448.72 191.46,-438.44 205.5,-419 234.58,-378.73 184.81,-344.5 218.5,-308 221.72,-304.51 225.5,-301.71 229.62,-299.46"/>
<polygon fill="#000000" fill-opacity="0.200000" stroke="#000000" stroke-width="2" stroke-opacity="0.200000" points="235.85,-298.88 229.53,-299.5 234.08,-295.07 235.85,-298.88"/>
</g>
<!-- src/translators/reactjs/useReceivedNotificationEvents.ts -->
<g id="node12" class="node">
<title>src/translators/reactjs/useReceivedNotificationEvents.ts</title>
<g id="a_node12"><a xlink:href="src/translators/reactjs/useReceivedNotificationEvents.ts" xlink:title="useReceivedNotificationEvents.ts">
<path fill="#ddfeff" stroke="black" d="M365.08,-213.88C365.08,-213.88 224.42,-213.88 224.42,-213.88 221.46,-213.88 218.5,-210.92 218.5,-207.96 218.5,-207.96 218.5,-202.04 218.5,-202.04 218.5,-199.08 221.46,-196.12 224.42,-196.12 224.42,-196.12 365.08,-196.12 365.08,-196.12 368.04,-196.12 371,-199.08 371,-202.04 371,-202.04 371,-207.96 371,-207.96 371,-210.92 368.04,-213.88 365.08,-213.88"/>
<text text-anchor="start" x="226.5" y="-201.32" font-family="Helvetica,sans-Serif" font-size="9.00">useReceivedNotificationEvents.ts</text>
</a>
</g>
</g>
<!-- src/index.ts&#45;&gt;src/translators/reactjs/useReceivedNotificationEvents.ts -->
<g id="edge9" class="edge">
<title>src/index.ts&#45;&gt;src/translators/reactjs/useReceivedNotificationEvents.ts</title>
<path fill="none" stroke="#000000" stroke-width="2" stroke-opacity="0.200000" d="M146.08,-454.12C165.88,-448.96 191.86,-438.73 205.5,-419 227.18,-387.66 198.14,-280.21 218.5,-248 227.51,-233.76 243.03,-223.74 257.66,-216.99"/>
<polygon fill="#000000" fill-opacity="0.200000" stroke="#000000" stroke-width="2" stroke-opacity="0.200000" points="263.77,-216.62 257.43,-217.09 262.09,-212.77 263.77,-216.62"/>
</g>
<!-- src/translators/reactjs/useResetNotificationsConfig.ts -->
<g id="node13" class="node">
<title>src/translators/reactjs/useResetNotificationsConfig.ts</title>
<g id="a_node13"><a xlink:href="src/translators/reactjs/useResetNotificationsConfig.ts" xlink:title="useResetNotificationsConfig.ts">
<path fill="#ddfeff" stroke="black" d="M359.46,-331.88C359.46,-331.88 230.04,-331.88 230.04,-331.88 227.08,-331.88 224.12,-328.92 224.12,-325.96 224.12,-325.96 224.12,-320.04 224.12,-320.04 224.12,-317.08 227.08,-314.12 230.04,-314.12 230.04,-314.12 359.46,-314.12 359.46,-314.12 362.42,-314.12 365.38,-317.08 365.38,-320.04 365.38,-320.04 365.38,-325.96 365.38,-325.96 365.38,-328.92 362.42,-331.88 359.46,-331.88"/>
<text text-anchor="start" x="232.12" y="-319.32" font-family="Helvetica,sans-Serif" font-size="9.00">useResetNotificationsConfig.ts</text>
</a>
</g>
</g>
<!-- src/index.ts&#45;&gt;src/translators/reactjs/useResetNotificationsConfig.ts -->
<g id="edge10" class="edge">
<title>src/index.ts&#45;&gt;src/translators/reactjs/useResetNotificationsConfig.ts</title>
<path fill="none" stroke="#000000" stroke-width="2" stroke-opacity="0.200000" d="M145.87,-453.55C165.28,-448.11 190.84,-437.77 205.5,-419 224.17,-395.09 199.02,-375.25 218.5,-352 224.65,-344.66 232.88,-339.17 241.65,-335.07"/>
<polygon fill="#000000" fill-opacity="0.200000" stroke="#000000" stroke-width="2" stroke-opacity="0.200000" points="248.01,-334.64 241.67,-335.06 246.37,-330.78 248.01,-334.64"/>
</g>
<!-- src/translators/reactjs/useUpdateNotificationsConfig.ts -->
<g id="node14" class="node">
<title>src/translators/reactjs/useUpdateNotificationsConfig.ts</title>
<g id="a_node14"><a xlink:href="src/translators/reactjs/useUpdateNotificationsConfig.ts" xlink:title="useUpdateNotificationsConfig.ts">
<path fill="#ddfeff" stroke="black" d="M362.46,-375.88C362.46,-375.88 227.04,-375.88 227.04,-375.88 224.08,-375.88 221.12,-372.92 221.12,-369.96 221.12,-369.96 221.12,-364.04 221.12,-364.04 221.12,-361.08 224.08,-358.12 227.04,-358.12 227.04,-358.12 362.46,-358.12 362.46,-358.12 365.42,-358.12 368.38,-361.08 368.38,-364.04 368.38,-364.04 368.38,-369.96 368.38,-369.96 368.38,-372.92 365.42,-375.88 362.46,-375.88"/>
<text text-anchor="start" x="229.12" y="-363.32" font-family="Helvetica,sans-Serif" font-size="9.00">useUpdateNotificationsConfig.ts</text>
</a>
</g>
</g>
<!-- src/index.ts&#45;&gt;src/translators/reactjs/useUpdateNotificationsConfig.ts -->
<g id="edge11" class="edge">
<title>src/index.ts&#45;&gt;src/translators/reactjs/useUpdateNotificationsConfig.ts</title>
<path fill="none" stroke="#000000" stroke-width="2" stroke-opacity="0.200000" d="M145.99,-452.75C164.94,-446.96 189.87,-436.54 205.5,-419 216.42,-406.75 207.03,-394.64 218.74,-380.93"/>
<polygon fill="#000000" fill-opacity="0.200000" stroke="#000000" stroke-width="2" stroke-opacity="0.200000" points="224.34,-378.41 218.57,-381.09 221.4,-375.4 224.34,-378.41"/>
</g>
<!-- src/translators/reactjs/useNotificationsConfig.ts&#45;&gt;src/translators/reactjs/NotificationProvider.tsx -->
<g id="edge20" class="edge">
<title>src/translators/reactjs/useNotificationsConfig.ts&#45;&gt;src/translators/reactjs/NotificationProvider.tsx</title>
<path fill="none" stroke="#000000" stroke-width="2" stroke-opacity="0.200000" d="M353.56,-299.1C360.58,-299.84 367.79,-300.6 374.88,-301.35"/>
<polygon fill="#000000" fill-opacity="0.200000" stroke="#000000" stroke-width="2" stroke-opacity="0.200000" points="374.59,-303.43 380.78,-301.97 375.03,-299.26 374.59,-303.43"/>
</g>
<!-- src/translators/reactjs/useReceivedNotificationEvents.ts&#45;&gt;src/translators/reactjs/NotificationProvider.tsx -->
<g id="edge25" class="edge">
<title>src/translators/reactjs/useReceivedNotificationEvents.ts&#45;&gt;src/translators/reactjs/NotificationProvider.tsx</title>
<path fill="none" stroke="#000000" stroke-width="2" stroke-opacity="0.200000" d="M352.91,-214.31C359.28,-216.6 365.46,-219.45 371,-223 397.59,-240.02 418.09,-271.35 429.04,-290.85"/>
<polygon fill="#000000" fill-opacity="0.200000" stroke="#000000" stroke-width="2" stroke-opacity="0.200000" points="427.12,-291.7 431.82,-295.98 430.81,-289.7 427.12,-291.7"/>
</g>
<!-- src/translators/reactjs/useResetNotificationsConfig.ts&#45;&gt;src/translators/reactjs/NotificationProvider.tsx -->
<g id="edge30" class="edge">
<title>src/translators/reactjs/useResetNotificationsConfig.ts&#45;&gt;src/translators/reactjs/NotificationProvider.tsx</title>
<path fill="none" stroke="#000000" stroke-width="2" stroke-opacity="0.200000" d="M365.56,-315.63C368.58,-315.31 371.6,-314.99 374.61,-314.68"/>
<polygon fill="#000000" fill-opacity="0.200000" stroke="#000000" stroke-width="2" stroke-opacity="0.200000" points="374.78,-316.77 380.53,-314.05 374.34,-312.59 374.78,-316.77"/>
</g>
<!-- src/translators/reactjs/useUpdateNotificationsConfig.ts&#45;&gt;src/translators/reactjs/NotificationProvider.tsx -->
<g id="edge35" class="edge">
<title>src/translators/reactjs/useUpdateNotificationsConfig.ts&#45;&gt;src/translators/reactjs/NotificationProvider.tsx</title>
<path fill="none" stroke="#000000" stroke-width="2" stroke-opacity="0.200000" d="M356.43,-357.78C361.67,-355.46 366.63,-352.57 371,-349 379.8,-341.81 375.66,-333.29 382.98,-323.57"/>
<polygon fill="#000000" fill-opacity="0.200000" stroke="#000000" stroke-width="2" stroke-opacity="0.200000" points="384.3,-325.21 387.08,-319.5 381.34,-322.23 384.3,-325.21"/>
</g>
<!-- src/notification&#45;manager.test.ts -->
<g id="node15" class="node">
<title>src/notification&#45;manager.test.ts</title>
<g id="a_node15"><a xlink:href="src/notification-manager.test.ts" xlink:title="notification&#45;manager.test.ts">
<path fill="#ddfeff" stroke="black" d="M351.58,-481.88C351.58,-481.88 237.92,-481.88 237.92,-481.88 234.96,-481.88 232,-478.92 232,-475.96 232,-475.96 232,-470.04 232,-470.04 232,-467.08 234.96,-464.12 237.92,-464.12 237.92,-464.12 351.58,-464.12 351.58,-464.12 354.54,-464.12 357.5,-467.08 357.5,-470.04 357.5,-470.04 357.5,-475.96 357.5,-475.96 357.5,-478.92 354.54,-481.88 351.58,-481.88"/>
<text text-anchor="start" x="240" y="-469.32" font-family="Helvetica,sans-Serif" font-size="9.00">notification&#45;manager.test.ts</text>
</a>
</g>
</g>
<!-- src/notification&#45;manager.test.ts&#45;&gt;src/notification&#45;manager.ts -->
<g id="edge12" class="edge">
<title>src/notification&#45;manager.test.ts&#45;&gt;src/notification&#45;manager.ts</title>
<path fill="none" stroke="#000000" stroke-width="2" stroke-opacity="0.200000" d="M357.67,-466.9C363.61,-466.32 369.62,-465.72 375.56,-465.14"/>
<polygon fill="#000000" fill-opacity="0.200000" stroke="#000000" stroke-width="2" stroke-opacity="0.200000" points="375.39,-467.26 381.16,-464.59 374.98,-463.09 375.39,-467.26"/>
</g>
<!-- src/translators/reactjs/NotificationProvider.test.tsx -->
<g id="node16" class="node">
<title>src/translators/reactjs/NotificationProvider.test.tsx</title>
<g id="a_node16"><a xlink:href="src/translators/reactjs/NotificationProvider.test.tsx" xlink:title="NotificationProvider.test.tsx">
<path fill="#bbfeff" stroke="black" d="M175.96,-373.88C175.96,-373.88 61.54,-373.88 61.54,-373.88 58.58,-373.88 55.62,-370.92 55.62,-367.96 55.62,-367.96 55.62,-362.04 55.62,-362.04 55.62,-359.08 58.58,-356.12 61.54,-356.12 61.54,-356.12 175.96,-356.12 175.96,-356.12 178.92,-356.12 181.88,-359.08 181.88,-362.04 181.88,-362.04 181.88,-367.96 181.88,-367.96 181.88,-370.92 178.92,-373.88 175.96,-373.88"/>
<text text-anchor="start" x="63.62" y="-361.32" font-family="Helvetica,sans-Serif" font-size="9.00">NotificationProvider.test.tsx</text>
</a>
</g>
</g>
<!-- src/translators/reactjs/NotificationProvider.test.tsx&#45;&gt;src/translators/reactjs/NotificationProvider.tsx -->
<g id="edge14" class="edge">
<title>src/translators/reactjs/NotificationProvider.test.tsx&#45;&gt;src/translators/reactjs/NotificationProvider.tsx</title>
<path fill="none" stroke="#000000" stroke-width="2" stroke-opacity="0.200000" d="M182.24,-373.37C190.11,-374.75 198.01,-376.29 205.5,-378 211.39,-379.35 212.52,-381.1 218.5,-382 252.01,-387.04 344.66,-403.32 371,-382 390.44,-366.26 369.64,-345.43 382.8,-324.17"/>
<polygon fill="#000000" fill-opacity="0.200000" stroke="#000000" stroke-width="2" stroke-opacity="0.200000" points="384.34,-325.61 386.46,-319.62 381.06,-322.98 384.34,-325.61"/>
</g>
<!-- src/translators/reactjs/mocks.ts -->
<g id="node17" class="node">
<title>src/translators/reactjs/mocks.ts</title>
<g id="a_node17"><a xlink:href="src/translators/reactjs/mocks.ts" xlink:title="mocks.ts">
<path fill="#ddfeff" stroke="black" d="M315.83,-271.88C315.83,-271.88 273.67,-271.88 273.67,-271.88 270.71,-271.88 267.75,-268.92 267.75,-265.96 267.75,-265.96 267.75,-260.04 267.75,-260.04 267.75,-257.08 270.71,-254.12 273.67,-254.12 273.67,-254.12 315.83,-254.12 315.83,-254.12 318.79,-254.12 321.75,-257.08 321.75,-260.04 321.75,-260.04 321.75,-265.96 321.75,-265.96 321.75,-268.92 318.79,-271.88 315.83,-271.88"/>
<text text-anchor="start" x="277.12" y="-259.32" font-family="Helvetica,sans-Serif" font-size="9.00">mocks.ts</text>
</a>
</g>
</g>
<!-- src/translators/reactjs/NotificationProvider.test.tsx&#45;&gt;src/translators/reactjs/mocks.ts -->
<g id="edge13" class="edge">
<title>src/translators/reactjs/NotificationProvider.test.tsx&#45;&gt;src/translators/reactjs/mocks.ts</title>
<path fill="none" stroke="#000000" stroke-width="2" stroke-opacity="0.200000" d="M168.78,-355.77C182.33,-351.02 195.93,-343.84 205.5,-333 222.12,-314.16 200.43,-295.44 218.5,-278 229.14,-267.73 244.69,-263.55 258.9,-262.1"/>
<polygon fill="#000000" fill-opacity="0.200000" stroke="#000000" stroke-width="2" stroke-opacity="0.200000" points="258.65,-264.22 264.5,-261.73 258.37,-260.03 258.65,-264.22"/>
</g>
<!-- src/translators/reactjs/mocks.ts&#45;&gt;src/notification&#45;manager.ts -->
<g id="edge15" class="edge">
<title>src/translators/reactjs/mocks.ts&#45;&gt;src/notification&#45;manager.ts</title>
<path fill="none" stroke="#000000" stroke-width="2" stroke-opacity="0.200000" d="M322.23,-260.93C338.7,-261.19 358.97,-264.63 371,-278 392.05,-301.38 368.58,-391.57 384,-419 390.09,-429.84 400.48,-438.6 410.51,-445.13"/>
<polygon fill="#000000" fill-opacity="0.200000" stroke="#000000" stroke-width="2" stroke-opacity="0.200000" points="409.23,-446.8 415.45,-448.11 411.4,-443.21 409.23,-446.8"/>
</g>
<!-- src/translators/reactjs/useNotificationsConfig.test.tsx -->
<g id="node18" class="node">
<title>src/translators/reactjs/useNotificationsConfig.test.tsx</title>
<g id="a_node18"><a xlink:href="src/translators/reactjs/useNotificationsConfig.test.tsx" xlink:title="useNotificationsConfig.test.tsx">
<path fill="#bbfeff" stroke="black" d="M181.96,-236.88C181.96,-236.88 55.54,-236.88 55.54,-236.88 52.58,-236.88 49.62,-233.92 49.62,-230.96 49.62,-230.96 49.62,-225.04 49.62,-225.04 49.62,-222.08 52.58,-219.12 55.54,-219.12 55.54,-219.12 181.96,-219.12 181.96,-219.12 184.92,-219.12 187.88,-222.08 187.88,-225.04 187.88,-225.04 187.88,-230.96 187.88,-230.96 187.88,-233.92 184.92,-236.88 181.96,-236.88"/>
<text text-anchor="start" x="57.62" y="-224.32" font-family="Helvetica,sans-Serif" font-size="9.00">useNotificationsConfig.test.tsx</text>
</a>
</g>
</g>
<!-- src/translators/reactjs/useNotificationsConfig.test.tsx&#45;&gt;src/fixtures/query&#45;client.ts -->
<g id="edge16" class="edge">
<title>src/translators/reactjs/useNotificationsConfig.test.tsx&#45;&gt;src/fixtures/query&#45;client.ts</title>
<path fill="none" stroke="#000000" stroke-width="2" stroke-opacity="0.200000" d="M188.07,-220.76C194.43,-218.06 200.39,-214.55 205.5,-210 219.14,-197.84 207.26,-185.41 218.5,-171 230.27,-155.91 248.19,-144.21 263.59,-136.14"/>
<polygon fill="#000000" fill-opacity="0.200000" stroke="#000000" stroke-width="2" stroke-opacity="0.200000" points="264.23,-138.17 268.66,-133.61 262.36,-134.41 264.23,-138.17"/>
</g>
<!-- src/translators/reactjs/useNotificationsConfig.test.tsx&#45;&gt;src/translators/reactjs/NotificationProvider.tsx -->
<g id="edge18" class="edge">
<title>src/translators/reactjs/useNotificationsConfig.test.tsx&#45;&gt;src/translators/reactjs/NotificationProvider.tsx</title>
<path fill="none" stroke="#000000" stroke-width="2" stroke-opacity="0.200000" d="M188.19,-225.39C251.21,-223.98 339.54,-224.86 371,-239 395.58,-250.05 415.77,-274.63 427.32,-291.27"/>
<polygon fill="#000000" fill-opacity="0.200000" stroke="#000000" stroke-width="2" stroke-opacity="0.200000" points="425.53,-292.36 430.6,-296.18 429.02,-290.03 425.53,-292.36"/>
</g>
<!-- src/translators/reactjs/useNotificationsConfig.test.tsx&#45;&gt;src/translators/reactjs/useNotificationsConfig.ts -->
<g id="edge19" class="edge">
<title>src/translators/reactjs/useNotificationsConfig.test.tsx&#45;&gt;src/translators/reactjs/useNotificationsConfig.ts</title>
<path fill="none" stroke="#000000" stroke-width="2" stroke-opacity="0.200000" d="M188.2,-235.76C194.46,-238.36 200.36,-241.71 205.5,-246 217.28,-255.84 206.67,-268.22 218.5,-278 221.39,-280.39 224.55,-282.43 227.89,-284.18"/>
<polygon fill="#000000" fill-opacity="0.200000" stroke="#000000" stroke-width="2" stroke-opacity="0.200000" points="226.86,-286.02 233.19,-286.52 228.55,-282.17 226.86,-286.02"/>
</g>
<!-- src/translators/reactjs/useNotificationsConfig.test.tsx&#45;&gt;src/translators/reactjs/mocks.ts -->
<g id="edge17" class="edge">
<title>src/translators/reactjs/useNotificationsConfig.test.tsx&#45;&gt;src/translators/reactjs/mocks.ts</title>
<path fill="none" stroke="#000000" stroke-width="2" stroke-opacity="0.200000" d="M165.92,-237.29C195.05,-243.15 232.07,-250.59 258.77,-255.96"/>
<polygon fill="#000000" fill-opacity="0.200000" stroke="#000000" stroke-width="2" stroke-opacity="0.200000" points="258.13,-257.98 264.43,-257.1 258.96,-253.86 258.13,-257.98"/>
</g>
<!-- src/translators/reactjs/useReceivedNotificationEvents.test.tsx -->
<g id="node19" class="node">
<title>src/translators/reactjs/useReceivedNotificationEvents.test.tsx</title>
<g id="a_node19"><a xlink:href="src/translators/reactjs/useReceivedNotificationEvents.test.tsx" xlink:title="useReceivedNotificationEvents.test.tsx">
<path fill="#bbfeff" stroke="black" d="M199.58,-203.88C199.58,-203.88 37.92,-203.88 37.92,-203.88 34.96,-203.88 32,-200.92 32,-197.96 32,-197.96 32,-192.04 32,-192.04 32,-189.08 34.96,-186.12 37.92,-186.12 37.92,-186.12 199.58,-186.12 199.58,-186.12 202.54,-186.12 205.5,-189.08 205.5,-192.04 205.5,-192.04 205.5,-197.96 205.5,-197.96 205.5,-200.92 202.54,-203.88 199.58,-203.88"/>
<text text-anchor="start" x="40" y="-191.32" font-family="Helvetica,sans-Serif" font-size="9.00">useReceivedNotificationEvents.test.tsx</text>
</a>
</g>
</g>
<!-- src/translators/reactjs/useReceivedNotificationEvents.test.tsx&#45;&gt;src/fixtures/query&#45;client.ts -->
<g id="edge21" class="edge">
<title>src/translators/reactjs/useReceivedNotificationEvents.test.tsx&#45;&gt;src/fixtures/query&#45;client.ts</title>
<path fill="none" stroke="#000000" stroke-width="2" stroke-opacity="0.200000" d="M143.85,-185.66C161.08,-178.93 184.78,-169.57 205.5,-161 225.37,-152.78 247.61,-143.21 264.79,-135.72"/>
<polygon fill="#000000" fill-opacity="0.200000" stroke="#000000" stroke-width="2" stroke-opacity="0.200000" points="265.35,-137.77 270.01,-133.44 263.67,-133.92 265.35,-137.77"/>
</g>
<!-- src/translators/reactjs/useReceivedNotificationEvents.test.tsx&#45;&gt;src/translators/reactjs/NotificationProvider.tsx -->
<g id="edge23" class="edge">
<title>src/translators/reactjs/useReceivedNotificationEvents.test.tsx&#45;&gt;src/translators/reactjs/NotificationProvider.tsx</title>
<path fill="none" stroke="#000000" stroke-width="2" stroke-opacity="0.200000" d="M147.34,-185.74C196.22,-171.11 299.57,-148.38 371,-190 408.31,-211.74 426.48,-262.88 433.79,-290.15"/>
<polygon fill="#000000" fill-opacity="0.200000" stroke="#000000" stroke-width="2" stroke-opacity="0.200000" points="431.7,-290.46 435.2,-295.77 435.78,-289.44 431.7,-290.46"/>
</g>
<!-- src/translators/reactjs/useReceivedNotificationEvents.test.tsx&#45;&gt;src/translators/reactjs/useReceivedNotificationEvents.ts -->
<g id="edge24" class="edge">
<title>src/translators/reactjs/useReceivedNotificationEvents.test.tsx&#45;&gt;src/translators/reactjs/useReceivedNotificationEvents.ts</title>
<path fill="none" stroke="#000000" stroke-width="2" stroke-opacity="0.200000" d="M205.99,-199.96C206.99,-200.01 207.99,-200.07 209,-200.13"/>
<polygon fill="#000000" fill-opacity="0.200000" stroke="#000000" stroke-width="2" stroke-opacity="0.200000" points="208.87,-202.23 214.98,-200.47 209.12,-198.03 208.87,-202.23"/>
</g>
<!-- src/translators/reactjs/useReceivedNotificationEvents.test.tsx&#45;&gt;src/translators/reactjs/mocks.ts -->
<g id="edge22" class="edge">
<title>src/translators/reactjs/useReceivedNotificationEvents.test.tsx&#45;&gt;src/translators/reactjs/mocks.ts</title>
<path fill="none" stroke="#000000" stroke-width="2" stroke-opacity="0.200000" d="M176.28,-204.27C186.17,-206.63 196.25,-209.51 205.5,-213 207.22,-213.65 244.22,-234.71 269.76,-249.29"/>
<polygon fill="#000000" fill-opacity="0.200000" stroke="#000000" stroke-width="2" stroke-opacity="0.200000" points="268.71,-251.11 274.96,-252.26 270.79,-247.46 268.71,-251.11"/>
</g>
<!-- src/translators/reactjs/useResetNotificationsConfig.test.tsx -->
<g id="node20" class="node">
<title>src/translators/reactjs/useResetNotificationsConfig.test.tsx</title>
<g id="a_node20"><a xlink:href="src/translators/reactjs/useResetNotificationsConfig.test.tsx" xlink:title="useResetNotificationsConfig.test.tsx">
<path fill="#bbfeff" stroke="black" d="M193.96,-269.88C193.96,-269.88 43.54,-269.88 43.54,-269.88 40.58,-269.88 37.62,-266.92 37.62,-263.96 37.62,-263.96 37.62,-258.04 37.62,-258.04 37.62,-255.08 40.58,-252.12 43.54,-252.12 43.54,-252.12 193.96,-252.12 193.96,-252.12 196.92,-252.12 199.88,-255.08 199.88,-258.04 199.88,-258.04 199.88,-263.96 199.88,-263.96 199.88,-266.92 196.92,-269.88 193.96,-269.88"/>
<text text-anchor="start" x="45.62" y="-257.32" font-family="Helvetica,sans-Serif" font-size="9.00">useResetNotificationsConfig.test.tsx</text>
</a>
</g>
</g>
<!-- src/translators/reactjs/useResetNotificationsConfig.test.tsx&#45;&gt;src/fixtures/query&#45;client.ts -->
<g id="edge26" class="edge">
<title>src/translators/reactjs/useResetNotificationsConfig.test.tsx&#45;&gt;src/fixtures/query&#45;client.ts</title>
<path fill="none" stroke="#000000" stroke-width="2" stroke-opacity="0.200000" d="M194.02,-251.79C198.22,-249.39 202.11,-246.49 205.5,-243 228.17,-219.68 200.39,-198.01 218.5,-171 228.86,-155.55 246.06,-144.03 261.4,-136.16"/>
<polygon fill="#000000" fill-opacity="0.200000" stroke="#000000" stroke-width="2" stroke-opacity="0.200000" points="262,-138.2 266.48,-133.69 260.17,-134.42 262,-138.2"/>
</g>
<!-- src/translators/reactjs/useResetNotificationsConfig.test.tsx&#45;&gt;src/translators/reactjs/NotificationProvider.tsx -->
<g id="edge28" class="edge">
<title>src/translators/reactjs/useResetNotificationsConfig.test.tsx&#45;&gt;src/translators/reactjs/NotificationProvider.tsx</title>
<path fill="none" stroke="#000000" stroke-width="2" stroke-opacity="0.200000" d="M185.19,-251.65C248.1,-243.73 338.32,-235.49 371,-248 393.82,-256.74 413.76,-277.26 425.8,-291.86"/>
<polygon fill="#000000" fill-opacity="0.200000" stroke="#000000" stroke-width="2" stroke-opacity="0.200000" points="424.09,-293.09 429.46,-296.49 427.38,-290.49 424.09,-293.09"/>
</g>
<!-- src/translators/reactjs/useResetNotificationsConfig.test.tsx&#45;&gt;src/translators/reactjs/useResetNotificationsConfig.ts -->
<g id="edge29" class="edge">
<title>src/translators/reactjs/useResetNotificationsConfig.test.tsx&#45;&gt;src/translators/reactjs/useResetNotificationsConfig.ts</title>
<path fill="none" stroke="#000000" stroke-width="2" stroke-opacity="0.200000" d="M138.01,-270.36C161.91,-282.5 202.64,-302.74 218.5,-308 222.23,-309.24 226.09,-310.39 230.02,-311.46"/>
<polygon fill="#000000" fill-opacity="0.200000" stroke="#000000" stroke-width="2" stroke-opacity="0.200000" points="229.41,-313.47 235.74,-312.92 230.45,-309.4 229.41,-313.47"/>
</g>
<!-- src/translators/reactjs/useResetNotificationsConfig.test.tsx&#45;&gt;src/translators/reactjs/mocks.ts -->
<g id="edge27" class="edge">
<title>src/translators/reactjs/useResetNotificationsConfig.test.tsx&#45;&gt;src/translators/reactjs/mocks.ts</title>
<path fill="none" stroke="#000000" stroke-width="2" stroke-opacity="0.200000" d="M200.13,-261.92C220.56,-262.16 241.49,-262.4 258.36,-262.59"/>
<polygon fill="#000000" fill-opacity="0.200000" stroke="#000000" stroke-width="2" stroke-opacity="0.200000" points="258.24,-264.69 264.26,-262.66 258.29,-260.49 258.24,-264.69"/>
</g>
<!-- src/translators/reactjs/useUpdateNotificationsConfig.test.tsx -->
<g id="node21" class="node">
<title>src/translators/reactjs/useUpdateNotificationsConfig.test.tsx</title>
<g id="a_node21"><a xlink:href="src/translators/reactjs/useUpdateNotificationsConfig.test.tsx" xlink:title="useUpdateNotificationsConfig.test.tsx">
<path fill="#bbfeff" stroke="black" d="M196.96,-326.88C196.96,-326.88 40.54,-326.88 40.54,-326.88 37.58,-326.88 34.62,-323.92 34.62,-320.96 34.62,-320.96 34.62,-315.04 34.62,-315.04 34.62,-312.08 37.58,-309.12 40.54,-309.12 40.54,-309.12 196.96,-309.12 196.96,-309.12 199.92,-309.12 202.88,-312.08 202.88,-315.04 202.88,-315.04 202.88,-320.96 202.88,-320.96 202.88,-323.92 199.92,-326.88 196.96,-326.88"/>
<text text-anchor="start" x="42.62" y="-314.32" font-family="Helvetica,sans-Serif" font-size="9.00">useUpdateNotificationsConfig.test.tsx</text>
</a>
</g>
</g>
<!-- src/translators/reactjs/useUpdateNotificationsConfig.test.tsx&#45;&gt;src/fixtures/query&#45;client.ts -->
<g id="edge31" class="edge">
<title>src/translators/reactjs/useUpdateNotificationsConfig.test.tsx&#45;&gt;src/fixtures/query&#45;client.ts</title>
<path fill="none" stroke="#000000" stroke-width="2" stroke-opacity="0.200000" d="M156.86,-308.75C174.39,-302.44 193.95,-292.2 205.5,-276 232.79,-237.71 193.4,-210.76 218.5,-171 228.36,-155.38 245.36,-143.9 260.7,-136.09"/>
<polygon fill="#000000" fill-opacity="0.200000" stroke="#000000" stroke-width="2" stroke-opacity="0.200000" points="261.3,-138.13 265.8,-133.64 259.49,-134.34 261.3,-138.13"/>
</g>
<!-- src/translators/reactjs/useUpdateNotificationsConfig.test.tsx&#45;&gt;src/translators/reactjs/NotificationProvider.tsx -->
<g id="edge33" class="edge">
<title>src/translators/reactjs/useUpdateNotificationsConfig.test.tsx&#45;&gt;src/translators/reactjs/NotificationProvider.tsx</title>
<path fill="none" stroke="#000000" stroke-width="2" stroke-opacity="0.200000" d="M157,-327.37C175.38,-331.53 197.96,-335.94 218.5,-338 252.22,-341.38 340.62,-353.01 371,-338 377.8,-334.64 376.95,-329.14 383.72,-322.55"/>
<polygon fill="#000000" fill-opacity="0.200000" stroke="#000000" stroke-width="2" stroke-opacity="0.200000" points="384.7,-324.44 388.22,-319.15 382.17,-321.09 384.7,-324.44"/>
</g>
<!-- src/translators/reactjs/useUpdateNotificationsConfig.test.tsx&#45;&gt;src/translators/reactjs/useUpdateNotificationsConfig.ts -->
<g id="edge34" class="edge">
<title>src/translators/reactjs/useUpdateNotificationsConfig.test.tsx&#45;&gt;src/translators/reactjs/useUpdateNotificationsConfig.ts</title>
<path fill="none" stroke="#000000" stroke-width="2" stroke-opacity="0.200000" d="M147.69,-327.34C167.38,-333.78 194.42,-342.35 218.5,-349 226.67,-351.26 235.38,-353.49 243.87,-355.58"/>
<polygon fill="#000000" fill-opacity="0.200000" stroke="#000000" stroke-width="2" stroke-opacity="0.200000" points="243.34,-357.62 249.67,-356.99 244.33,-353.53 243.34,-357.62"/>
</g>
<!-- src/translators/reactjs/useUpdateNotificationsConfig.test.tsx&#45;&gt;src/translators/reactjs/mocks.ts -->
<g id="edge32" class="edge">
<title>src/translators/reactjs/useUpdateNotificationsConfig.test.tsx&#45;&gt;src/translators/reactjs/mocks.ts</title>
<path fill="none" stroke="#000000" stroke-width="2" stroke-opacity="0.200000" d="M139.4,-308.76C159.05,-299.82 190.32,-286.43 218.5,-278 231.46,-274.12 245.98,-270.96 258.79,-268.56"/>
<polygon fill="#000000" fill-opacity="0.200000" stroke="#000000" stroke-width="2" stroke-opacity="0.200000" points="258.82,-270.68 264.36,-267.55 258.08,-266.55 258.82,-270.68"/>
</g>
</g>
</svg>
