<?xml version="1.0" encoding="UTF-8" standalone="no"?>
<!DOCTYPE svg PUBLIC "-//W3C//DTD SVG 1.1//EN"
 "http://www.w3.org/Graphics/SVG/1.1/DTD/svg11.dtd">
<!-- Generated by graphviz version 12.2.1 (20241206.2353)
 -->
<!-- Title: dependency&#45;cruiser output Pages: 1 -->
<svg width="413pt" height="330pt"
 viewBox="0.00 0.00 413.00 330.00" xmlns="http://www.w3.org/2000/svg" xmlns:xlink="http://www.w3.org/1999/xlink">
<g id="graph0" class="graph" transform="scale(1 1) rotate(0) translate(4 326)">
<title>dependency&#45;cruiser output</title>
<polygon fill="white" stroke="none" points="-4,4 -4,-326 409,-326 409,4 -4,4"/>
<g id="clust1" class="cluster">
<title>cluster_src</title>
<path fill="#ffffff" stroke="black" stroke-width="2" d="M20,-8C20,-8 385,-8 385,-8 391,-8 397,-14 397,-20 397,-20 397,-302 397,-302 397,-308 391,-314 385,-314 385,-314 20,-314 20,-314 14,-314 8,-308 8,-302 8,-302 8,-20 8,-20 8,-14 14,-8 20,-8"/>
<text text-anchor="middle" x="202.5" y="-301.45" font-family="Helvetica,sans-Serif" font-weight="bold" font-size="9.00">src</text>
</g>
<g id="clust2" class="cluster">
<title>cluster_src/translators</title>
<path fill="#ffffff" stroke="black" stroke-width="2" d="M28,-16C28,-16 377,-16 377,-16 383,-16 389,-22 389,-28 389,-28 389,-250 389,-250 389,-256 383,-262 377,-262 377,-262 28,-262 28,-262 22,-262 16,-256 16,-250 16,-250 16,-28 16,-28 16,-22 22,-16 28,-16"/>
<text text-anchor="middle" x="202.5" y="-249.45" font-family="Helvetica,sans-Serif" font-weight="bold" font-size="9.00">translators</text>
</g>
<g id="clust3" class="cluster">
<title>cluster_src/translators/reactjs</title>
<path fill="#ffffff" stroke="black" stroke-width="2" d="M36,-24C36,-24 369,-24 369,-24 375,-24 381,-30 381,-36 381,-36 381,-224 381,-224 381,-230 375,-236 369,-236 369,-236 36,-236 36,-236 30,-236 24,-230 24,-224 24,-224 24,-36 24,-36 24,-30 30,-24 36,-24"/>
<text text-anchor="middle" x="202.5" y="-223.45" font-family="Helvetica,sans-Serif" font-weight="bold" font-size="9.00">reactjs</text>
</g>
<g id="clust4" class="cluster">
<title>cluster_src/translators/reactjs/hooks</title>
<path fill="#ffffff" stroke="black" stroke-width="2" d="M196,-98C196,-98 281.25,-98 281.25,-98 287.25,-98 293.25,-104 293.25,-110 293.25,-110 293.25,-138 293.25,-138 293.25,-144 287.25,-150 281.25,-150 281.25,-150 196,-150 196,-150 190,-150 184,-144 184,-138 184,-138 184,-110 184,-110 184,-104 190,-98 196,-98"/>
<text text-anchor="middle" x="238.62" y="-137.45" font-family="Helvetica,sans-Serif" font-weight="bold" font-size="9.00">hooks</text>
</g>
<g id="clust5" class="cluster">
<title>cluster_src/translators/reactjs/provider</title>
<path fill="#ffffff" stroke="black" stroke-width="2" d="M44,-38C44,-38 291,-38 291,-38 297,-38 303,-44 303,-50 303,-50 303,-78 303,-78 303,-84 297,-90 291,-90 291,-90 44,-90 44,-90 38,-90 32,-84 32,-78 32,-78 32,-50 32,-50 32,-44 38,-38 44,-38"/>
<text text-anchor="middle" x="167.5" y="-77.45" font-family="Helvetica,sans-Serif" font-weight="bold" font-size="9.00">provider</text>
</g>
<g id="clust6" class="cluster">
<title>cluster_src/translators/reactjs/state</title>
<path fill="#ffffff" stroke="black" stroke-width="2" d="M212.12,-158C212.12,-158 361,-158 361,-158 367,-158 373,-164 373,-170 373,-170 373,-198 373,-198 373,-204 367,-210 361,-210 361,-210 212.12,-210 212.12,-210 206.12,-210 200.12,-204 200.12,-198 200.12,-198 200.12,-170 200.12,-170 200.12,-164 206.12,-158 212.12,-158"/>
<text text-anchor="middle" x="286.56" y="-197.45" font-family="Helvetica,sans-Serif" font-weight="bold" font-size="9.00">state</text>
</g>
<!-- src/index.ts -->
<g id="node1" class="node">
<title>src/index.ts</title>
<g id="a_node1"><a xlink:href="src/index.ts" xlink:title="index.ts">
<path fill="#ddfeff" stroke="black" d="M125.71,-287.88C125.71,-287.88 83.54,-287.88 83.54,-287.88 80.58,-287.88 77.62,-284.92 77.62,-281.96 77.62,-281.96 77.62,-276.04 77.62,-276.04 77.62,-273.08 80.58,-270.12 83.54,-270.12 83.54,-270.12 125.71,-270.12 125.71,-270.12 128.67,-270.12 131.62,-273.08 131.62,-276.04 131.62,-276.04 131.62,-281.96 131.62,-281.96 131.62,-284.92 128.67,-287.88 125.71,-287.88"/>
<text text-anchor="start" x="88.88" y="-275.32" font-family="Helvetica,sans-Serif" font-size="9.00">index.ts</text>
</a>
</g>
</g>
<!-- src/translators/reactjs/hooks/useSetupWallet.tsx -->
<g id="node2" class="node">
<title>src/translators/reactjs/hooks/useSetupWallet.tsx</title>
<g id="a_node2"><a xlink:href="src/translators/reactjs/hooks/useSetupWallet.tsx" xlink:title="useSetupWallet.tsx">
<path fill="#bbfeff" stroke="black" d="M279.33,-123.88C279.33,-123.88 197.92,-123.88 197.92,-123.88 194.96,-123.88 192,-120.92 192,-117.96 192,-117.96 192,-112.04 192,-112.04 192,-109.08 194.96,-106.12 197.92,-106.12 197.92,-106.12 279.33,-106.12 279.33,-106.12 282.29,-106.12 285.25,-109.08 285.25,-112.04 285.25,-112.04 285.25,-117.96 285.25,-117.96 285.25,-120.92 282.29,-123.88 279.33,-123.88"/>
<text text-anchor="start" x="200" y="-111.33" font-family="Helvetica,sans-Serif" font-size="9.00">useSetupWallet.tsx</text>
</a>
</g>
</g>
<!-- src/index.ts&#45;&gt;src/translators/reactjs/hooks/useSetupWallet.tsx -->
<g id="edge1" class="edge">
<title>src/index.ts&#45;&gt;src/translators/reactjs/hooks/useSetupWallet.tsx</title>
<path fill="none" stroke="#000000" stroke-width="2" stroke-opacity="0.200000" d="M109.77,-269.77C119.85,-247.99 147.43,-192.43 182.25,-155 192,-144.52 204.86,-135.04 215.73,-127.93"/>
<polygon fill="#000000" fill-opacity="0.200000" stroke="#000000" stroke-width="2" stroke-opacity="0.200000" points="221.82,-126.55 215.63,-128 219.56,-123.01 221.82,-126.55"/>
</g>
<!-- src/translators/reactjs/provider/SetupWalletProvider.tsx -->
<g id="node3" class="node">
<title>src/translators/reactjs/provider/SetupWalletProvider.tsx</title>
<g id="a_node3"><a xlink:href="src/translators/reactjs/provider/SetupWalletProvider.tsx" xlink:title="SetupWalletProvider.tsx">
<path fill="#bbfeff" stroke="black" d="M289.08,-63.88C289.08,-63.88 188.17,-63.88 188.17,-63.88 185.21,-63.88 182.25,-60.92 182.25,-57.96 182.25,-57.96 182.25,-52.04 182.25,-52.04 182.25,-49.08 185.21,-46.12 188.17,-46.12 188.17,-46.12 289.08,-46.12 289.08,-46.12 292.04,-46.12 295,-49.08 295,-52.04 295,-52.04 295,-57.96 295,-57.96 295,-60.92 292.04,-63.88 289.08,-63.88"/>
<text text-anchor="start" x="190.25" y="-51.33" font-family="Helvetica,sans-Serif" font-size="9.00">SetupWalletProvider.tsx</text>
</a>
</g>
</g>
<!-- src/index.ts&#45;&gt;src/translators/reactjs/provider/SetupWalletProvider.tsx -->
<g id="edge2" class="edge">
<title>src/index.ts&#45;&gt;src/translators/reactjs/provider/SetupWalletProvider.tsx</title>
<path fill="none" stroke="#000000" stroke-width="2" stroke-opacity="0.200000" d="M107.6,-269.66C114.04,-240.95 136.7,-152.5 182.25,-95 190.89,-84.1 203.23,-74.79 214.08,-67.9"/>
<polygon fill="#000000" fill-opacity="0.200000" stroke="#000000" stroke-width="2" stroke-opacity="0.200000" points="220.15,-66.64 213.94,-67.98 217.96,-63.06 220.15,-66.64"/>
</g>
<!-- src/translators/reactjs/state/state.ts -->
<g id="node4" class="node">
<title>src/translators/reactjs/state/state.ts</title>
<g id="a_node4"><a xlink:href="src/translators/reactjs/state/state.ts" xlink:title="state.ts">
<path fill="#ddfeff" stroke="black" d="M359.08,-183.88C359.08,-183.88 316.92,-183.88 316.92,-183.88 313.96,-183.88 311,-180.92 311,-177.96 311,-177.96 311,-172.04 311,-172.04 311,-169.08 313.96,-166.12 316.92,-166.12 316.92,-166.12 359.08,-166.12 359.08,-166.12 362.04,-166.12 365,-169.08 365,-172.04 365,-172.04 365,-177.96 365,-177.96 365,-180.92 362.04,-183.88 359.08,-183.88"/>
<text text-anchor="start" x="323.75" y="-171.32" font-family="Helvetica,sans-Serif" font-size="9.00">state.ts</text>
</a>
</g>
</g>
<!-- src/index.ts&#45;&gt;src/translators/reactjs/state/state.ts -->
<g id="edge3" class="edge">
<title>src/index.ts&#45;&gt;src/translators/reactjs/state/state.ts</title>
<path fill="none" stroke="#000000" stroke-width="2" stroke-opacity="0.200000" d="M126.16,-269.77C167.99,-250.97 263.07,-208.23 309.9,-187.18"/>
<polygon fill="#000000" fill-opacity="0.200000" stroke="#000000" stroke-width="2" stroke-opacity="0.200000" points="316.13,-186.68 309.8,-187.23 314.41,-182.85 316.13,-186.68"/>
</g>
<!-- src/translators/reactjs/hooks/useSetupWallet.tsx&#45;&gt;src/translators/reactjs/provider/SetupWalletProvider.tsx -->
<g id="edge4" class="edge">
<title>src/translators/reactjs/hooks/useSetupWallet.tsx&#45;&gt;src/translators/reactjs/provider/SetupWalletProvider.tsx</title>
<path fill="none" stroke="#000000" stroke-width="2" stroke-opacity="0.200000" d="M238.62,-105.9C238.62,-94.98 238.62,-84.06 238.62,-73.13"/>
<polygon fill="#000000" fill-opacity="0.200000" stroke="#000000" stroke-width="2" stroke-opacity="0.200000" points="240.73,-73.4 238.63,-67.4 236.53,-73.4 240.73,-73.4"/>
</g>
<!-- src/translators/reactjs/provider/SetupWalletProvider.tsx&#45;&gt;src/translators/reactjs/state/state.ts -->
<g id="edge8" class="edge">
<title>src/translators/reactjs/provider/SetupWalletProvider.tsx&#45;&gt;src/translators/reactjs/state/state.ts</title>
<path fill="none" stroke="#000000" stroke-width="2" stroke-opacity="0.200000" d="M260.79,-64.24C274.37,-71.07 291.54,-81.52 303,-95 318.51,-113.23 327.85,-139.59 332.72,-157"/>
<polygon fill="#000000" fill-opacity="0.200000" stroke="#000000" stroke-width="2" stroke-opacity="0.200000" points="330.66,-157.43 334.21,-162.71 334.72,-156.37 330.66,-157.43"/>
</g>
<!-- src/translators/reactjs/provider/SetupWalletProvider.test.tsx -->
<g id="node5" class="node">
<title>src/translators/reactjs/provider/SetupWalletProvider.test.tsx</title>
<g id="a_node5"><a xlink:href="src/translators/reactjs/provider/SetupWalletProvider.test.tsx" xlink:title="SetupWalletProvider.test.tsx">
<path fill="#bbfeff" stroke="black" d="M163.33,-63.88C163.33,-63.88 45.92,-63.88 45.92,-63.88 42.96,-63.88 40,-60.92 40,-57.96 40,-57.96 40,-52.04 40,-52.04 40,-49.08 42.96,-46.12 45.92,-46.12 45.92,-46.12 163.33,-46.12 163.33,-46.12 166.29,-46.12 169.25,-49.08 169.25,-52.04 169.25,-52.04 169.25,-57.96 169.25,-57.96 169.25,-60.92 166.29,-63.88 163.33,-63.88"/>
<text text-anchor="start" x="48" y="-51.33" font-family="Helvetica,sans-Serif" font-size="9.00">SetupWalletProvider.test.tsx</text>
</a>
</g>
</g>
<!-- src/translators/reactjs/provider/SetupWalletProvider.test.tsx&#45;&gt;src/translators/reactjs/hooks/useSetupWallet.tsx -->
<g id="edge5" class="edge">
<title>src/translators/reactjs/provider/SetupWalletProvider.test.tsx&#45;&gt;src/translators/reactjs/hooks/useSetupWallet.tsx</title>
<path fill="none" stroke="#000000" stroke-width="2" stroke-opacity="0.200000" d="M163.56,-64.31C165.54,-65.42 167.45,-66.64 169.25,-68 179.25,-75.54 172.96,-84.6 182.25,-93 186.09,-96.47 190.53,-99.42 195.21,-101.92"/>
<polygon fill="#000000" fill-opacity="0.200000" stroke="#000000" stroke-width="2" stroke-opacity="0.200000" points="194.17,-103.75 200.49,-104.43 195.97,-99.96 194.17,-103.75"/>
</g>
<!-- src/translators/reactjs/provider/SetupWalletProvider.test.tsx&#45;&gt;src/translators/reactjs/provider/SetupWalletProvider.tsx -->
<g id="edge7" class="edge">
<title>src/translators/reactjs/provider/SetupWalletProvider.test.tsx&#45;&gt;src/translators/reactjs/provider/SetupWalletProvider.tsx</title>
<path fill="none" stroke="#000000" stroke-width="2" stroke-opacity="0.200000" d="M169.69,-55C170.84,-55 171.98,-55 173.13,-55"/>
<polygon fill="#000000" fill-opacity="0.200000" stroke="#000000" stroke-width="2" stroke-opacity="0.200000" points="172.85,-57.1 178.85,-55 172.85,-52.9 172.85,-57.1"/>
</g>
<!-- src/translators/reactjs/provider/SetupWalletProvider.test.tsx&#45;&gt;src/translators/reactjs/state/state.ts -->
<g id="edge6" class="edge">
<title>src/translators/reactjs/provider/SetupWalletProvider.test.tsx&#45;&gt;src/translators/reactjs/state/state.ts</title>
<path fill="none" stroke="#000000" stroke-width="2" stroke-opacity="0.200000" d="M125.2,-45.7C163.74,-28.92 250.28,1.09 303,-40 321.39,-54.33 331.37,-123.75 335.18,-157.08"/>
<polygon fill="#000000" fill-opacity="0.200000" stroke="#000000" stroke-width="2" stroke-opacity="0.200000" points="333.06,-157.05 335.8,-162.79 337.24,-156.6 333.06,-157.05"/>
</g>
<!-- src/translators/reactjs/state/state.test.ts -->
<g id="node6" class="node">
<title>src/translators/reactjs/state/state.test.ts</title>
<g id="a_node6"><a xlink:href="src/translators/reactjs/state/state.test.ts" xlink:title="state.test.ts">
<path fill="#ddfeff" stroke="black" d="M263.21,-183.88C263.21,-183.88 214.04,-183.88 214.04,-183.88 211.08,-183.88 208.12,-180.92 208.12,-177.96 208.12,-177.96 208.12,-172.04 208.12,-172.04 208.12,-169.08 211.08,-166.12 214.04,-166.12 214.04,-166.12 263.21,-166.12 263.21,-166.12 266.17,-166.12 269.12,-169.08 269.12,-172.04 269.12,-172.04 269.12,-177.96 269.12,-177.96 269.12,-180.92 266.17,-183.88 263.21,-183.88"/>
<text text-anchor="start" x="216.12" y="-171.32" font-family="Helvetica,sans-Serif" font-size="9.00">state.test.ts</text>
</a>
</g>
</g>
<!-- src/translators/reactjs/state/state.test.ts&#45;&gt;src/translators/reactjs/state/state.ts -->
<g id="edge9" class="edge">
<title>src/translators/reactjs/state/state.test.ts&#45;&gt;src/translators/reactjs/state/state.ts</title>
<path fill="none" stroke="#000000" stroke-width="2" stroke-opacity="0.200000" d="M269.37,-175C279.68,-175 291.34,-175 302.03,-175"/>
<polygon fill="#000000" fill-opacity="0.200000" stroke="#000000" stroke-width="2" stroke-opacity="0.200000" points="301.71,-177.1 307.71,-175 301.71,-172.9 301.71,-177.1"/>
</g>
</g>
</svg>
