<?xml version="1.0" encoding="UTF-8" standalone="no"?>
<!DOCTYPE svg PUBLIC "-//W3C//DTD SVG 1.1//EN"
 "http://www.w3.org/Graphics/SVG/1.1/DTD/svg11.dtd">
<!-- Generated by graphviz version 12.2.1 (20241206.2353)
 -->
<!-- Title: dependency&#45;cruiser output Pages: 1 -->
<svg width="729pt" height="407pt"
 viewBox="0.00 0.00 729.00 407.17" xmlns="http://www.w3.org/2000/svg" xmlns:xlink="http://www.w3.org/1999/xlink">
<g id="graph0" class="graph" transform="scale(1 1) rotate(0) translate(4 403.17)">
<title>dependency&#45;cruiser output</title>
<polygon fill="white" stroke="none" points="-4,4 -4,-403.17 725,-403.17 725,4 -4,4"/>
<g id="clust1" class="cluster">
<title>cluster_src</title>
<path fill="#ffffff" stroke="black" stroke-width="2" d="M20,-17.17C20,-17.17 701,-17.17 701,-17.17 707,-17.17 713,-23.17 713,-29.17 713,-29.17 713,-379.17 713,-379.17 713,-385.17 707,-391.17 701,-391.17 701,-391.17 20,-391.17 20,-391.17 14,-391.17 8,-385.17 8,-379.17 8,-379.17 8,-29.17 8,-29.17 8,-23.17 14,-17.17 20,-17.17"/>
<text text-anchor="middle" x="360.5" y="-378.62" font-family="Helvetica,sans-Serif" font-weight="bold" font-size="9.00">src</text>
</g>
<g id="clust2" class="cluster">
<title>cluster_src/addresses</title>
<path fill="#ffffff" stroke="black" stroke-width="2" d="M28,-231.17C28,-231.17 348.5,-231.17 348.5,-231.17 354.5,-231.17 360.5,-237.17 360.5,-243.17 360.5,-243.17 360.5,-301.17 360.5,-301.17 360.5,-307.17 354.5,-313.17 348.5,-313.17 348.5,-313.17 28,-313.17 28,-313.17 22,-313.17 16,-307.17 16,-301.17 16,-301.17 16,-243.17 16,-243.17 16,-237.17 22,-231.17 28,-231.17"/>
<text text-anchor="middle" x="188.25" y="-300.62" font-family="Helvetica,sans-Serif" font-weight="bold" font-size="9.00">addresses</text>
</g>
<g id="clust3" class="cluster">
<title>cluster_src/cardano</title>
<path fill="#ffffff" stroke="black" stroke-width="2" d="M380.5,-193.17C380.5,-193.17 693,-193.17 693,-193.17 699,-193.17 705,-199.17 705,-205.17 705,-205.17 705,-353.17 705,-353.17 705,-359.17 699,-365.17 693,-365.17 693,-365.17 380.5,-365.17 380.5,-365.17 374.5,-365.17 368.5,-359.17 368.5,-353.17 368.5,-353.17 368.5,-205.17 368.5,-205.17 368.5,-199.17 374.5,-193.17 380.5,-193.17"/>
<text text-anchor="middle" x="536.75" y="-352.62" font-family="Helvetica,sans-Serif" font-weight="bold" font-size="9.00">cardano</text>
</g>
<g id="clust4" class="cluster">
<title>cluster_src/cardano/helpers</title>
<path fill="#ffffff" stroke="black" stroke-width="2" d="M388.5,-227.17C388.5,-227.17 685,-227.17 685,-227.17 691,-227.17 697,-233.17 697,-239.17 697,-239.17 697,-327.17 697,-327.17 697,-333.17 691,-339.17 685,-339.17 685,-339.17 388.5,-339.17 388.5,-339.17 382.5,-339.17 376.5,-333.17 376.5,-327.17 376.5,-327.17 376.5,-239.17 376.5,-239.17 376.5,-233.17 382.5,-227.17 388.5,-227.17"/>
<text text-anchor="middle" x="536.75" y="-326.62" font-family="Helvetica,sans-Serif" font-weight="bold" font-size="9.00">helpers</text>
</g>
<g id="clust5" class="cluster">
<title>cluster_src/networks</title>
<path fill="#ffffff" stroke="black" stroke-width="2" d="M54.25,-31.17C54.25,-31.17 502.25,-31.17 502.25,-31.17 508.25,-31.17 514.25,-37.17 514.25,-43.17 514.25,-43.17 514.25,-115.17 514.25,-115.17 514.25,-121.17 508.25,-127.17 502.25,-127.17 502.25,-127.17 54.25,-127.17 54.25,-127.17 48.25,-127.17 42.25,-121.17 42.25,-115.17 42.25,-115.17 42.25,-43.17 42.25,-43.17 42.25,-37.17 48.25,-31.17 54.25,-31.17"/>
<text text-anchor="middle" x="278.25" y="-114.62" font-family="Helvetica,sans-Serif" font-weight="bold" font-size="9.00">networks</text>
</g>
<!-- src/addresses/address&#45;visual&#45;derivation&#45;path.test.ts -->
<g id="node1" class="node">
<title>src/addresses/address&#45;visual&#45;derivation&#45;path.test.ts</title>
<g id="a_node1"><a xlink:href="src/addresses/address-visual-derivation-path.test.ts" xlink:title="address&#45;visual&#45;derivation&#45;path.test.ts">
<path fill="#ddfeff" stroke="black" d="M184.08,-257.04C184.08,-257.04 29.92,-257.04 29.92,-257.04 26.96,-257.04 24,-254.08 24,-251.13 24,-251.13 24,-245.21 24,-245.21 24,-242.25 26.96,-239.29 29.92,-239.29 29.92,-239.29 184.08,-239.29 184.08,-239.29 187.04,-239.29 190,-242.25 190,-245.21 190,-245.21 190,-251.13 190,-251.13 190,-254.08 187.04,-257.04 184.08,-257.04"/>
<text text-anchor="start" x="32" y="-244.49" font-family="Helvetica,sans-Serif" font-size="9.00">address&#45;visual&#45;derivation&#45;path.test.ts</text>
</a>
</g>
</g>
<!-- src/addresses/address&#45;visual&#45;derivation&#45;path.ts -->
<g id="node2" class="node">
<title>src/addresses/address&#45;visual&#45;derivation&#45;path.ts</title>
<g id="a_node2"><a xlink:href="src/addresses/address-visual-derivation-path.ts" xlink:title="address&#45;visual&#45;derivation&#45;path.ts">
<path fill="#ddfeff" stroke="black" d="M346.58,-257.04C346.58,-257.04 208.92,-257.04 208.92,-257.04 205.96,-257.04 203,-254.08 203,-251.13 203,-251.13 203,-245.21 203,-245.21 203,-242.25 205.96,-239.29 208.92,-239.29 208.92,-239.29 346.58,-239.29 346.58,-239.29 349.54,-239.29 352.5,-242.25 352.5,-245.21 352.5,-245.21 352.5,-251.13 352.5,-251.13 352.5,-254.08 349.54,-257.04 346.58,-257.04"/>
<text text-anchor="start" x="211" y="-244.49" font-family="Helvetica,sans-Serif" font-size="9.00">address&#45;visual&#45;derivation&#45;path.ts</text>
</a>
</g>
</g>
<!-- src/addresses/address&#45;visual&#45;derivation&#45;path.test.ts&#45;&gt;src/addresses/address&#45;visual&#45;derivation&#45;path.ts -->
<g id="edge1" class="edge">
<title>src/addresses/address&#45;visual&#45;derivation&#45;path.test.ts&#45;&gt;src/addresses/address&#45;visual&#45;derivation&#45;path.ts</title>
<path fill="none" stroke="#000000" stroke-width="2" stroke-opacity="0.200000" d="M190.4,-248.17C191.57,-248.17 192.75,-248.17 193.93,-248.17"/>
<polygon fill="#000000" fill-opacity="0.200000" stroke="#000000" stroke-width="2" stroke-opacity="0.200000" points="193.9,-250.27 199.9,-248.17 193.9,-246.07 193.9,-250.27"/>
</g>
<!-- src/cardano/constants.ts -->
<g id="node3" class="node">
<title>src/cardano/constants.ts</title>
<g id="a_node3"><a xlink:href="src/cardano/constants.ts" xlink:title="constants.ts">
<path fill="#ddfeff" stroke="black" d="M646.33,-219.04C646.33,-219.04 594.17,-219.04 594.17,-219.04 591.21,-219.04 588.25,-216.08 588.25,-213.13 588.25,-213.13 588.25,-207.21 588.25,-207.21 588.25,-204.25 591.21,-201.29 594.17,-201.29 594.17,-201.29 646.33,-201.29 646.33,-201.29 649.29,-201.29 652.25,-204.25 652.25,-207.21 652.25,-207.21 652.25,-213.13 652.25,-213.13 652.25,-216.08 649.29,-219.04 646.33,-219.04"/>
<text text-anchor="start" x="596.25" y="-206.49" font-family="Helvetica,sans-Serif" font-size="9.00">constants.ts</text>
</a>
</g>
</g>
<!-- src/addresses/address&#45;visual&#45;derivation&#45;path.ts&#45;&gt;src/cardano/constants.ts -->
<g id="edge2" class="edge">
<title>src/addresses/address&#45;visual&#45;derivation&#45;path.ts&#45;&gt;src/cardano/constants.ts</title>
<path fill="none" stroke="#000000" stroke-width="2" stroke-opacity="0.200000" d="M352.83,-239.22C355.48,-238.02 358.05,-236.67 360.5,-235.17 365.65,-232.01 363.19,-227.06 368.5,-224.17 435.28,-187.78 527.45,-194.48 579.42,-202.44"/>
<polygon fill="#000000" fill-opacity="0.200000" stroke="#000000" stroke-width="2" stroke-opacity="0.200000" points="578.78,-204.46 585.04,-203.34 579.45,-200.32 578.78,-204.46"/>
</g>
<!-- src/addresses/derivation&#45;config.test.ts -->
<g id="node4" class="node">
<title>src/addresses/derivation&#45;config.test.ts</title>
<g id="a_node4"><a xlink:href="src/addresses/derivation-config.test.ts" xlink:title="derivation&#45;config.test.ts">
<path fill="#ddfeff" stroke="black" d="M155.96,-287.04C155.96,-287.04 58.04,-287.04 58.04,-287.04 55.08,-287.04 52.12,-284.08 52.12,-281.13 52.12,-281.13 52.12,-275.21 52.12,-275.21 52.12,-272.25 55.08,-269.29 58.04,-269.29 58.04,-269.29 155.96,-269.29 155.96,-269.29 158.92,-269.29 161.88,-272.25 161.88,-275.21 161.88,-275.21 161.88,-281.13 161.88,-281.13 161.88,-284.08 158.92,-287.04 155.96,-287.04"/>
<text text-anchor="start" x="60.12" y="-274.49" font-family="Helvetica,sans-Serif" font-size="9.00">derivation&#45;config.test.ts</text>
</a>
</g>
</g>
<!-- src/addresses/derivation&#45;config.ts -->
<g id="node5" class="node">
<title>src/addresses/derivation&#45;config.ts</title>
<g id="a_node5"><a xlink:href="src/addresses/derivation-config.ts" xlink:title="derivation&#45;config.ts">
<path fill="#ddfeff" stroke="black" d="M318.46,-287.04C318.46,-287.04 237.04,-287.04 237.04,-287.04 234.08,-287.04 231.12,-284.08 231.12,-281.13 231.12,-281.13 231.12,-275.21 231.12,-275.21 231.12,-272.25 234.08,-269.29 237.04,-269.29 237.04,-269.29 318.46,-269.29 318.46,-269.29 321.42,-269.29 324.38,-272.25 324.38,-275.21 324.38,-275.21 324.38,-281.13 324.38,-281.13 324.38,-284.08 321.42,-287.04 318.46,-287.04"/>
<text text-anchor="start" x="239.12" y="-274.49" font-family="Helvetica,sans-Serif" font-size="9.00">derivation&#45;config.ts</text>
</a>
</g>
</g>
<!-- src/addresses/derivation&#45;config.test.ts&#45;&gt;src/addresses/derivation&#45;config.ts -->
<g id="edge3" class="edge">
<title>src/addresses/derivation&#45;config.test.ts&#45;&gt;src/addresses/derivation&#45;config.ts</title>
<path fill="none" stroke="#000000" stroke-width="2" stroke-opacity="0.200000" d="M162.32,-278.17C181.37,-278.17 202.77,-278.17 221.86,-278.17"/>
<polygon fill="#000000" fill-opacity="0.200000" stroke="#000000" stroke-width="2" stroke-opacity="0.200000" points="221.71,-280.27 227.71,-278.17 221.71,-276.07 221.71,-280.27"/>
</g>
<!-- src/cardano/helpers/date&#45;to&#45;epoch&#45;info.test.ts -->
<g id="node6" class="node">
<title>src/cardano/helpers/date&#45;to&#45;epoch&#45;info.test.ts</title>
<g id="a_node6"><a xlink:href="src/cardano/helpers/date-to-epoch-info.test.ts" xlink:title="date&#45;to&#45;epoch&#45;info.test.ts">
<path fill="#ddfeff" stroke="black" d="M513.83,-253.04C513.83,-253.04 409.17,-253.04 409.17,-253.04 406.21,-253.04 403.25,-250.08 403.25,-247.13 403.25,-247.13 403.25,-241.21 403.25,-241.21 403.25,-238.25 406.21,-235.29 409.17,-235.29 409.17,-235.29 513.83,-235.29 513.83,-235.29 516.79,-235.29 519.75,-238.25 519.75,-241.21 519.75,-241.21 519.75,-247.13 519.75,-247.13 519.75,-250.08 516.79,-253.04 513.83,-253.04"/>
<text text-anchor="start" x="411.25" y="-240.49" font-family="Helvetica,sans-Serif" font-size="9.00">date&#45;to&#45;epoch&#45;info.test.ts</text>
</a>
</g>
</g>
<!-- src/cardano/helpers/date&#45;to&#45;epoch&#45;info.test.ts&#45;&gt;src/cardano/constants.ts -->
<g id="edge5" class="edge">
<title>src/cardano/helpers/date&#45;to&#45;epoch&#45;info.test.ts&#45;&gt;src/cardano/constants.ts</title>
<path fill="none" stroke="#000000" stroke-width="2" stroke-opacity="0.200000" d="M503.23,-234.86C518.37,-231.44 535.71,-227.57 551.5,-224.17 560.49,-222.23 570.16,-220.2 579.3,-218.3"/>
<polygon fill="#000000" fill-opacity="0.200000" stroke="#000000" stroke-width="2" stroke-opacity="0.200000" points="579.44,-220.42 584.89,-217.15 578.59,-216.3 579.44,-220.42"/>
</g>
<!-- src/networks/network&#45;configs.ts -->
<g id="node7" class="node">
<title>src/networks/network&#45;configs.ts</title>
<g id="a_node7"><a xlink:href="src/networks/network-configs.ts" xlink:title="network&#45;configs.ts">
<path fill="#ddfeff" stroke="black" d="M500.33,-101.04C500.33,-101.04 422.67,-101.04 422.67,-101.04 419.71,-101.04 416.75,-98.08 416.75,-95.13 416.75,-95.13 416.75,-89.21 416.75,-89.21 416.75,-86.25 419.71,-83.29 422.67,-83.29 422.67,-83.29 500.33,-83.29 500.33,-83.29 503.29,-83.29 506.25,-86.25 506.25,-89.21 506.25,-89.21 506.25,-95.13 506.25,-95.13 506.25,-98.08 503.29,-101.04 500.33,-101.04"/>
<text text-anchor="start" x="424.75" y="-88.49" font-family="Helvetica,sans-Serif" font-size="9.00">network&#45;configs.ts</text>
</a>
</g>
</g>
<!-- src/cardano/helpers/date&#45;to&#45;epoch&#45;info.test.ts&#45;&gt;src/networks/network&#45;configs.ts -->
<g id="edge4" class="edge">
<title>src/cardano/helpers/date&#45;to&#45;epoch&#45;info.test.ts&#45;&gt;src/networks/network&#45;configs.ts</title>
<path fill="none" stroke="#000000" stroke-width="2" stroke-opacity="0.200000" d="M402.88,-249.9C385.36,-248.08 369.47,-241.59 364.5,-225.17 360.83,-213.04 360.83,-123.29 364.5,-111.17 365.43,-108.1 365.79,-106.87 368.5,-105.17 380.05,-97.91 393.99,-94.01 407.51,-92.05"/>
<polygon fill="#000000" fill-opacity="0.200000" stroke="#000000" stroke-width="2" stroke-opacity="0.200000" points="407.59,-94.15 413.31,-91.37 407.1,-89.98 407.59,-94.15"/>
</g>
<!-- src/cardano/helpers/date&#45;to&#45;epoch&#45;info.ts -->
<g id="node8" class="node">
<title>src/cardano/helpers/date&#45;to&#45;epoch&#45;info.ts</title>
<g id="a_node8"><a xlink:href="src/cardano/helpers/date-to-epoch-info.ts" xlink:title="date&#45;to&#45;epoch&#45;info.ts">
<path fill="#ddfeff" stroke="black" d="M664.33,-283.04C664.33,-283.04 576.17,-283.04 576.17,-283.04 573.21,-283.04 570.25,-280.08 570.25,-277.13 570.25,-277.13 570.25,-271.21 570.25,-271.21 570.25,-268.25 573.21,-265.29 576.17,-265.29 576.17,-265.29 664.33,-265.29 664.33,-265.29 667.29,-265.29 670.25,-268.25 670.25,-271.21 670.25,-271.21 670.25,-277.13 670.25,-277.13 670.25,-280.08 667.29,-283.04 664.33,-283.04"/>
<text text-anchor="start" x="578.25" y="-270.49" font-family="Helvetica,sans-Serif" font-size="9.00">date&#45;to&#45;epoch&#45;info.ts</text>
</a>
</g>
</g>
<!-- src/cardano/helpers/date&#45;to&#45;epoch&#45;info.test.ts&#45;&gt;src/cardano/helpers/date&#45;to&#45;epoch&#45;info.ts -->
<g id="edge6" class="edge">
<title>src/cardano/helpers/date&#45;to&#45;epoch&#45;info.test.ts&#45;&gt;src/cardano/helpers/date&#45;to&#45;epoch&#45;info.ts</title>
<path fill="none" stroke="#000000" stroke-width="2" stroke-opacity="0.200000" d="M511.24,-253.49C527.23,-256.56 545.16,-259.99 561.74,-263.16"/>
<polygon fill="#000000" fill-opacity="0.200000" stroke="#000000" stroke-width="2" stroke-opacity="0.200000" points="561.01,-265.16 567.3,-264.22 561.8,-261.03 561.01,-265.16"/>
</g>
<!-- src/networks/network&#45;configs.ts&#45;&gt;src/cardano/constants.ts -->
<g id="edge22" class="edge">
<title>src/networks/network&#45;configs.ts&#45;&gt;src/cardano/constants.ts</title>
<path fill="none" stroke="#000000" stroke-width="2" stroke-opacity="0.200000" d="M506.68,-94.1C517.65,-96.05 528.98,-99.43 538.5,-105.17 573.76,-126.41 599.19,-169.29 611.3,-193.16"/>
<polygon fill="#000000" fill-opacity="0.200000" stroke="#000000" stroke-width="2" stroke-opacity="0.200000" points="609.29,-193.83 613.82,-198.3 613.06,-191.98 609.29,-193.83"/>
</g>
<!-- src/networks/network&#45;configs.ts&#45;&gt;src/cardano/helpers/date&#45;to&#45;epoch&#45;info.ts -->
<g id="edge23" class="edge">
<title>src/networks/network&#45;configs.ts&#45;&gt;src/cardano/helpers/date&#45;to&#45;epoch&#45;info.ts</title>
<path fill="none" stroke="#000000" stroke-width="2" stroke-opacity="0.200000" d="M506.65,-90.28C518.54,-92.05 530.35,-96.29 538.5,-105.17 561.73,-130.46 528.89,-233.31 551.5,-259.17 554.5,-262.59 558.08,-265.33 562.02,-267.52"/>
<polygon fill="#000000" fill-opacity="0.200000" stroke="#000000" stroke-width="2" stroke-opacity="0.200000" points="560.87,-269.3 567.2,-269.83 562.58,-265.47 560.87,-269.3"/>
</g>
<!-- src/cardano/helpers/epoch&#45;progress.ts -->
<g id="node10" class="node">
<title>src/cardano/helpers/epoch&#45;progress.ts</title>
<g id="a_node10"><a xlink:href="src/cardano/helpers/epoch-progress.ts" xlink:title="epoch&#45;progress.ts">
<path fill="#ddfeff" stroke="black" d="M659.08,-253.04C659.08,-253.04 581.42,-253.04 581.42,-253.04 578.46,-253.04 575.5,-250.08 575.5,-247.13 575.5,-247.13 575.5,-241.21 575.5,-241.21 575.5,-238.25 578.46,-235.29 581.42,-235.29 581.42,-235.29 659.08,-235.29 659.08,-235.29 662.04,-235.29 665,-238.25 665,-241.21 665,-241.21 665,-247.13 665,-247.13 665,-250.08 662.04,-253.04 659.08,-253.04"/>
<text text-anchor="start" x="583.5" y="-240.49" font-family="Helvetica,sans-Serif" font-size="9.00">epoch&#45;progress.ts</text>
</a>
</g>
</g>
<!-- src/networks/network&#45;configs.ts&#45;&gt;src/cardano/helpers/epoch&#45;progress.ts -->
<g id="edge24" class="edge">
<title>src/networks/network&#45;configs.ts&#45;&gt;src/cardano/helpers/epoch&#45;progress.ts</title>
<path fill="none" stroke="#000000" stroke-width="2" stroke-opacity="0.200000" d="M506.54,-90.38C518.43,-92.15 530.27,-96.37 538.5,-105.17 576.96,-146.28 513.46,-189.67 551.5,-231.17 555.78,-235.84 561.19,-239.14 567.08,-241.43"/>
<polygon fill="#000000" fill-opacity="0.200000" stroke="#000000" stroke-width="2" stroke-opacity="0.200000" points="566.1,-243.32 572.45,-243.07 567.33,-239.3 566.1,-243.32"/>
</g>
<!-- src/cardano/helpers/epoch&#45;progress.test.ts -->
<g id="node9" class="node">
<title>src/cardano/helpers/epoch&#45;progress.test.ts</title>
<g id="a_node9"><a xlink:href="src/cardano/helpers/epoch-progress.test.ts" xlink:title="epoch&#45;progress.test.ts">
<path fill="#ddfeff" stroke="black" d="M508.58,-283.04C508.58,-283.04 414.42,-283.04 414.42,-283.04 411.46,-283.04 408.5,-280.08 408.5,-277.13 408.5,-277.13 408.5,-271.21 408.5,-271.21 408.5,-268.25 411.46,-265.29 414.42,-265.29 414.42,-265.29 508.58,-265.29 508.58,-265.29 511.54,-265.29 514.5,-268.25 514.5,-271.21 514.5,-271.21 514.5,-277.13 514.5,-277.13 514.5,-280.08 511.54,-283.04 508.58,-283.04"/>
<text text-anchor="start" x="416.5" y="-270.49" font-family="Helvetica,sans-Serif" font-size="9.00">epoch&#45;progress.test.ts</text>
</a>
</g>
</g>
<!-- src/cardano/helpers/epoch&#45;progress.test.ts&#45;&gt;src/cardano/constants.ts -->
<g id="edge8" class="edge">
<title>src/cardano/helpers/epoch&#45;progress.test.ts&#45;&gt;src/cardano/constants.ts</title>
<path fill="none" stroke="#000000" stroke-width="2" stroke-opacity="0.200000" d="M514.78,-271.15C523.41,-268.7 531.74,-264.92 538.5,-259.17 551.14,-248.41 538.91,-234.98 551.5,-224.17 559.25,-217.51 569.34,-213.73 579.34,-211.65"/>
<polygon fill="#000000" fill-opacity="0.200000" stroke="#000000" stroke-width="2" stroke-opacity="0.200000" points="579.48,-213.76 585.07,-210.72 578.81,-209.61 579.48,-213.76"/>
</g>
<!-- src/cardano/helpers/epoch&#45;progress.test.ts&#45;&gt;src/networks/network&#45;configs.ts -->
<g id="edge7" class="edge">
<title>src/cardano/helpers/epoch&#45;progress.test.ts&#45;&gt;src/networks/network&#45;configs.ts</title>
<path fill="none" stroke="#000000" stroke-width="2" stroke-opacity="0.200000" d="M408.1,-273.09C394.37,-270.86 380.19,-266.68 368.5,-259.17 365.8,-257.43 365.43,-256.23 364.5,-253.17 359.93,-238.07 359.93,-126.27 364.5,-111.17 369.91,-93.29 388.25,-87.18 407.55,-86.06"/>
<polygon fill="#000000" fill-opacity="0.200000" stroke="#000000" stroke-width="2" stroke-opacity="0.200000" points="407.46,-88.17 413.42,-85.94 407.38,-83.97 407.46,-88.17"/>
</g>
<!-- src/cardano/helpers/epoch&#45;progress.test.ts&#45;&gt;src/cardano/helpers/date&#45;to&#45;epoch&#45;info.ts -->
<g id="edge9" class="edge">
<title>src/cardano/helpers/epoch&#45;progress.test.ts&#45;&gt;src/cardano/helpers/date&#45;to&#45;epoch&#45;info.ts</title>
<path fill="none" stroke="#000000" stroke-width="2" stroke-opacity="0.200000" d="M514.7,-274.17C529.59,-274.17 545.9,-274.17 561.12,-274.17"/>
<polygon fill="#000000" fill-opacity="0.200000" stroke="#000000" stroke-width="2" stroke-opacity="0.200000" points="560.91,-276.27 566.91,-274.17 560.91,-272.07 560.91,-276.27"/>
</g>
<!-- src/cardano/helpers/epoch&#45;progress.test.ts&#45;&gt;src/cardano/helpers/epoch&#45;progress.ts -->
<g id="edge10" class="edge">
<title>src/cardano/helpers/epoch&#45;progress.test.ts&#45;&gt;src/cardano/helpers/epoch&#45;progress.ts</title>
<path fill="none" stroke="#000000" stroke-width="2" stroke-opacity="0.200000" d="M511.24,-264.84C528.77,-261.48 548.62,-257.68 566.48,-254.27"/>
<polygon fill="#000000" fill-opacity="0.200000" stroke="#000000" stroke-width="2" stroke-opacity="0.200000" points="566.6,-256.38 572.1,-253.19 565.81,-252.26 566.6,-256.38"/>
</g>
<!-- src/cardano/helpers/to&#45;chain&#45;supported&#45;network.test.ts -->
<g id="node11" class="node">
<title>src/cardano/helpers/to&#45;chain&#45;supported&#45;network.test.ts</title>
<g id="a_node11"><a xlink:href="src/cardano/helpers/to-chain-supported-network.test.ts" xlink:title="to&#45;chain&#45;supported&#45;network.test.ts">
<path fill="#ddfeff" stroke="black" d="M532.58,-313.04C532.58,-313.04 390.42,-313.04 390.42,-313.04 387.46,-313.04 384.5,-310.08 384.5,-307.13 384.5,-307.13 384.5,-301.21 384.5,-301.21 384.5,-298.25 387.46,-295.29 390.42,-295.29 390.42,-295.29 532.58,-295.29 532.58,-295.29 535.54,-295.29 538.5,-298.25 538.5,-301.21 538.5,-301.21 538.5,-307.13 538.5,-307.13 538.5,-310.08 535.54,-313.04 532.58,-313.04"/>
<text text-anchor="start" x="392.5" y="-300.49" font-family="Helvetica,sans-Serif" font-size="9.00">to&#45;chain&#45;supported&#45;network.test.ts</text>
</a>
</g>
</g>
<!-- src/cardano/helpers/to&#45;chain&#45;supported&#45;network.ts -->
<g id="node12" class="node">
<title>src/cardano/helpers/to&#45;chain&#45;supported&#45;network.ts</title>
<g id="a_node12"><a xlink:href="src/cardano/helpers/to-chain-supported-network.ts" xlink:title="to&#45;chain&#45;supported&#45;network.ts">
<path fill="#ddfeff" stroke="black" d="M683.08,-313.04C683.08,-313.04 557.42,-313.04 557.42,-313.04 554.46,-313.04 551.5,-310.08 551.5,-307.13 551.5,-307.13 551.5,-301.21 551.5,-301.21 551.5,-298.25 554.46,-295.29 557.42,-295.29 557.42,-295.29 683.08,-295.29 683.08,-295.29 686.04,-295.29 689,-298.25 689,-301.21 689,-301.21 689,-307.13 689,-307.13 689,-310.08 686.04,-313.04 683.08,-313.04"/>
<text text-anchor="start" x="559.5" y="-300.49" font-family="Helvetica,sans-Serif" font-size="9.00">to&#45;chain&#45;supported&#45;network.ts</text>
</a>
</g>
</g>
<!-- src/cardano/helpers/to&#45;chain&#45;supported&#45;network.test.ts&#45;&gt;src/cardano/helpers/to&#45;chain&#45;supported&#45;network.ts -->
<g id="edge11" class="edge">
<title>src/cardano/helpers/to&#45;chain&#45;supported&#45;network.test.ts&#45;&gt;src/cardano/helpers/to&#45;chain&#45;supported&#45;network.ts</title>
<path fill="none" stroke="#000000" stroke-width="2" stroke-opacity="0.200000" d="M538.58,-304.17C539.9,-304.17 541.21,-304.17 542.53,-304.17"/>
<polygon fill="#000000" fill-opacity="0.200000" stroke="#000000" stroke-width="2" stroke-opacity="0.200000" points="542.17,-306.27 548.17,-304.17 542.17,-302.07 542.17,-306.27"/>
</g>
<!-- src/index.ts -->
<g id="node13" class="node">
<title>src/index.ts</title>
<g id="a_node13"><a xlink:href="src/index.ts" xlink:title="index.ts">
<path fill="#ddfeff" stroke="black" d="M128.08,-203.04C128.08,-203.04 85.92,-203.04 85.92,-203.04 82.96,-203.04 80,-200.08 80,-197.13 80,-197.13 80,-191.21 80,-191.21 80,-188.25 82.96,-185.29 85.92,-185.29 85.92,-185.29 128.08,-185.29 128.08,-185.29 131.04,-185.29 134,-188.25 134,-191.21 134,-191.21 134,-197.13 134,-197.13 134,-200.08 131.04,-203.04 128.08,-203.04"/>
<text text-anchor="start" x="91.25" y="-190.49" font-family="Helvetica,sans-Serif" font-size="9.00">index.ts</text>
</a>
</g>
</g>
<!-- src/index.ts&#45;&gt;src/addresses/address&#45;visual&#45;derivation&#45;path.ts -->
<g id="edge12" class="edge">
<title>src/index.ts&#45;&gt;src/addresses/address&#45;visual&#45;derivation&#45;path.ts</title>
<path fill="none" stroke="#000000" stroke-width="2" stroke-opacity="0.200000" d="M132.32,-203.5C148.79,-210.01 170.93,-219.11 190,-228.17 195.93,-230.98 196.8,-233.01 203,-235.17 204.84,-235.81 206.72,-236.42 208.63,-237"/>
<polygon fill="#000000" fill-opacity="0.200000" stroke="#000000" stroke-width="2" stroke-opacity="0.200000" points="213.66,-240.61 208.46,-236.95 214.81,-236.57 213.66,-240.61"/>
</g>
<!-- src/index.ts&#45;&gt;src/cardano/constants.ts -->
<g id="edge14" class="edge">
<title>src/index.ts&#45;&gt;src/cardano/constants.ts</title>
<path fill="none" stroke="#000000" stroke-width="2" stroke-opacity="0.200000" d="M134.2,-192.77C153.27,-191.82 179.73,-190.66 203,-190.17 352.08,-187.03 390.32,-176.47 538.5,-193.17 552.56,-194.75 567.8,-197.64 581.2,-200.6"/>
<polygon fill="#000000" fill-opacity="0.200000" stroke="#000000" stroke-width="2" stroke-opacity="0.200000" points="586.59,-203.97 581.2,-200.6 587.52,-199.88 586.59,-203.97"/>
</g>
<!-- src/index.ts&#45;&gt;src/addresses/derivation&#45;config.ts -->
<g id="edge13" class="edge">
<title>src/index.ts&#45;&gt;src/addresses/derivation&#45;config.ts</title>
<path fill="none" stroke="#000000" stroke-width="2" stroke-opacity="0.200000" d="M134.42,-199.31C152.24,-204.04 175.14,-212.74 190,-228.17 201.51,-240.12 190.39,-252.38 203,-263.17 209.13,-268.41 216.59,-272 224.38,-274.42"/>
<polygon fill="#000000" fill-opacity="0.200000" stroke="#000000" stroke-width="2" stroke-opacity="0.200000" points="229.47,-277.97 224.22,-274.38 230.56,-273.91 229.47,-277.97"/>
</g>
<!-- src/index.ts&#45;&gt;src/networks/network&#45;configs.ts -->
<g id="edge18" class="edge">
<title>src/index.ts&#45;&gt;src/networks/network&#45;configs.ts</title>
<path fill="none" stroke="#000000" stroke-width="2" stroke-opacity="0.200000" d="M121.88,-184.92C139.87,-173.34 172.55,-153.62 203,-142.17 270.12,-116.92 290.71,-123.64 360.5,-107.17 364.07,-106.32 364.9,-105.87 368.5,-105.17 381.71,-102.59 396.09,-100.31 409.46,-98.41"/>
<polygon fill="#000000" fill-opacity="0.200000" stroke="#000000" stroke-width="2" stroke-opacity="0.200000" points="415.65,-99.67 409.42,-98.42 415.08,-95.51 415.65,-99.67"/>
</g>
<!-- src/index.ts&#45;&gt;src/cardano/helpers/date&#45;to&#45;epoch&#45;info.ts -->
<g id="edge15" class="edge">
<title>src/index.ts&#45;&gt;src/cardano/helpers/date&#45;to&#45;epoch&#45;info.ts</title>
<path fill="none" stroke="#000000" stroke-width="2" stroke-opacity="0.200000" d="M134.44,-194.82C225.66,-197.17 522.49,-205.75 538.5,-218.17 553.6,-229.88 537.39,-246.27 551.5,-259.17 555.02,-262.39 559.08,-264.97 563.42,-267.04"/>
<polygon fill="#000000" fill-opacity="0.200000" stroke="#000000" stroke-width="2" stroke-opacity="0.200000" points="568.23,-271.28 563.48,-267.06 569.82,-267.39 568.23,-271.28"/>
</g>
<!-- src/index.ts&#45;&gt;src/cardano/helpers/epoch&#45;progress.ts -->
<g id="edge16" class="edge">
<title>src/index.ts&#45;&gt;src/cardano/helpers/epoch&#45;progress.ts</title>
<path fill="none" stroke="#000000" stroke-width="2" stroke-opacity="0.200000" d="M134.37,-193.2C222.73,-190.18 504.65,-182.34 538.5,-204.17 549.69,-211.38 540.94,-223.05 551.5,-231.17 556.52,-235.03 562.35,-237.85 568.46,-239.9"/>
<polygon fill="#000000" fill-opacity="0.200000" stroke="#000000" stroke-width="2" stroke-opacity="0.200000" points="573.61,-243.56 568.43,-239.89 574.77,-239.53 573.61,-243.56"/>
</g>
<!-- src/index.ts&#45;&gt;src/cardano/helpers/to&#45;chain&#45;supported&#45;network.ts -->
<g id="edge17" class="edge">
<title>src/index.ts&#45;&gt;src/cardano/helpers/to&#45;chain&#45;supported&#45;network.ts</title>
<path fill="none" stroke="#000000" stroke-width="2" stroke-opacity="0.200000" d="M134.2,-196.77C153.27,-198.64 179.73,-201.16 203,-203.17 207.66,-203.57 534.98,-226.09 538.5,-229.17 559.06,-247.1 532.25,-269.83 551.5,-289.17 552.05,-289.72 552.62,-290.26 553.2,-290.78"/>
<polygon fill="#000000" fill-opacity="0.200000" stroke="#000000" stroke-width="2" stroke-opacity="0.200000" points="556.75,-296.06 553.2,-290.78 559.26,-292.69 556.75,-296.06"/>
</g>
<!-- src/networks/network&#45;manager.ts -->
<g id="node14" class="node">
<title>src/networks/network&#45;manager.ts</title>
<g id="a_node14"><a xlink:href="src/networks/network-manager.ts" xlink:title="network&#45;manager.ts">
<path fill="#ddfeff" stroke="black" d="M320.33,-101.04C320.33,-101.04 235.17,-101.04 235.17,-101.04 232.21,-101.04 229.25,-98.08 229.25,-95.13 229.25,-95.13 229.25,-89.21 229.25,-89.21 229.25,-86.25 232.21,-83.29 235.17,-83.29 235.17,-83.29 320.33,-83.29 320.33,-83.29 323.29,-83.29 326.25,-86.25 326.25,-89.21 326.25,-89.21 326.25,-95.13 326.25,-95.13 326.25,-98.08 323.29,-101.04 320.33,-101.04"/>
<text text-anchor="start" x="237.25" y="-88.49" font-family="Helvetica,sans-Serif" font-size="9.00">network&#45;manager.ts</text>
</a>
</g>
</g>
<!-- src/index.ts&#45;&gt;src/networks/network&#45;manager.ts -->
<g id="edge19" class="edge">
<title>src/index.ts&#45;&gt;src/networks/network&#45;manager.ts</title>
<path fill="none" stroke="#000000" stroke-width="2" stroke-opacity="0.200000" d="M123.53,-184.95C141.35,-173.77 170.6,-153.49 190,-130.17 198.01,-120.54 192.9,-112.57 203,-105.17 208.66,-101.01 215.22,-98.04 222.03,-95.92"/>
<polygon fill="#000000" fill-opacity="0.200000" stroke="#000000" stroke-width="2" stroke-opacity="0.200000" points="228.49,-96.37 222.15,-95.89 227.41,-92.31 228.49,-96.37"/>
</g>
<!-- src/types.ts -->
<g id="node15" class="node">
<title>src/types.ts</title>
<g id="a_node15"><a xlink:href="src/types.ts" xlink:title="types.ts">
<path fill="#ddfeff" stroke="black" d="M482.58,-153.04C482.58,-153.04 440.42,-153.04 440.42,-153.04 437.46,-153.04 434.5,-150.08 434.5,-147.13 434.5,-147.13 434.5,-141.21 434.5,-141.21 434.5,-138.25 437.46,-135.29 440.42,-135.29 440.42,-135.29 482.58,-135.29 482.58,-135.29 485.54,-135.29 488.5,-138.25 488.5,-141.21 488.5,-141.21 488.5,-147.13 488.5,-147.13 488.5,-150.08 485.54,-153.04 482.58,-153.04"/>
<text text-anchor="start" x="446.12" y="-140.49" font-family="Helvetica,sans-Serif" font-size="9.00">types.ts</text>
</a>
</g>
</g>
<!-- src/index.ts&#45;&gt;src/types.ts -->
<g id="edge20" class="edge">
<title>src/index.ts&#45;&gt;src/types.ts</title>
<path fill="none" stroke="#000000" stroke-width="2" stroke-opacity="0.200000" d="M130.21,-184.88C149.19,-177.39 177.4,-167.29 203,-162.17 282.37,-146.3 377.92,-143.86 427.31,-143.8"/>
<polygon fill="#000000" fill-opacity="0.200000" stroke="#000000" stroke-width="2" stroke-opacity="0.200000" points="433.26,-145.91 427.26,-143.8 433.26,-141.71 433.26,-145.91"/>
</g>
<!-- src/networks/network&#45;manager.ts&#45;&gt;src/cardano/constants.ts -->
<g id="edge28" class="edge">
<title>src/networks/network&#45;manager.ts&#45;&gt;src/cardano/constants.ts</title>
<path fill="none" stroke="#000000" stroke-width="2" stroke-opacity="0.200000" d="M302.52,-82.79C350.64,-65.45 461.54,-33.86 538.5,-77.17 582.68,-102.03 605.49,-161.93 614.51,-192.12"/>
<polygon fill="#000000" fill-opacity="0.200000" stroke="#000000" stroke-width="2" stroke-opacity="0.200000" points="612.48,-192.68 616.14,-197.89 616.53,-191.54 612.48,-192.68"/>
</g>
<!-- src/networks/network&#45;manager.ts&#45;&gt;src/networks/network&#45;configs.ts -->
<g id="edge30" class="edge">
<title>src/networks/network&#45;manager.ts&#45;&gt;src/networks/network&#45;configs.ts</title>
<path fill="none" stroke="#000000" stroke-width="2" stroke-opacity="0.200000" d="M326.5,-92.17C351.43,-92.17 382,-92.17 407.65,-92.17"/>
<polygon fill="#000000" fill-opacity="0.200000" stroke="#000000" stroke-width="2" stroke-opacity="0.200000" points="407.47,-94.27 413.47,-92.17 407.47,-90.07 407.47,-94.27"/>
</g>
<!-- src/networks/network&#45;manager.ts&#45;&gt;src/types.ts -->
<g id="edge29" class="edge">
<title>src/networks/network&#45;manager.ts&#45;&gt;src/types.ts</title>
<path fill="none" stroke="#000000" stroke-width="2" stroke-opacity="0.200000" d="M326.62,-91.1C338.82,-93.01 351.12,-97.12 360.5,-105.17 369.35,-112.77 359.62,-122.6 368.5,-130.17 383.92,-143.32 406.33,-146.94 425.17,-147.22"/>
<polygon fill="#000000" fill-opacity="0.200000" stroke="#000000" stroke-width="2" stroke-opacity="0.200000" points="425.08,-149.32 431.05,-147.15 425.03,-145.12 425.08,-149.32"/>
</g>
<!-- src/networks/network&#45;configs.test.ts -->
<g id="node16" class="node">
<title>src/networks/network&#45;configs.test.ts</title>
<g id="a_node16"><a xlink:href="src/networks/network-configs.test.ts" xlink:title="network&#45;configs.test.ts">
<path fill="#ddfeff" stroke="black" d="M324.83,-57.04C324.83,-57.04 230.67,-57.04 230.67,-57.04 227.71,-57.04 224.75,-54.08 224.75,-51.13 224.75,-51.13 224.75,-45.21 224.75,-45.21 224.75,-42.25 227.71,-39.29 230.67,-39.29 230.67,-39.29 324.83,-39.29 324.83,-39.29 327.79,-39.29 330.75,-42.25 330.75,-45.21 330.75,-45.21 330.75,-51.13 330.75,-51.13 330.75,-54.08 327.79,-57.04 324.83,-57.04"/>
<text text-anchor="start" x="232.75" y="-44.49" font-family="Helvetica,sans-Serif" font-size="9.00">network&#45;configs.test.ts</text>
</a>
</g>
</g>
<!-- src/networks/network&#45;configs.test.ts&#45;&gt;src/networks/network&#45;configs.ts -->
<g id="edge21" class="edge">
<title>src/networks/network&#45;configs.test.ts&#45;&gt;src/networks/network&#45;configs.ts</title>
<path fill="none" stroke="#000000" stroke-width="2" stroke-opacity="0.200000" d="M322.52,-57.49C334.83,-60.19 348.21,-63.22 360.5,-66.17 379.24,-70.66 399.86,-75.97 417.48,-80.6"/>
<polygon fill="#000000" fill-opacity="0.200000" stroke="#000000" stroke-width="2" stroke-opacity="0.200000" points="416.61,-82.54 422.94,-82.05 417.68,-78.48 416.61,-82.54"/>
</g>
<!-- src/networks/network&#45;manager.test.ts -->
<g id="node17" class="node">
<title>src/networks/network&#45;manager.test.ts</title>
<g id="a_node17"><a xlink:href="src/networks/network-manager.test.ts" xlink:title="network&#45;manager.test.ts">
<path fill="#ddfeff" stroke="black" d="M157.83,-79.04C157.83,-79.04 56.17,-79.04 56.17,-79.04 53.21,-79.04 50.25,-76.08 50.25,-73.13 50.25,-73.13 50.25,-67.21 50.25,-67.21 50.25,-64.25 53.21,-61.29 56.17,-61.29 56.17,-61.29 157.83,-61.29 157.83,-61.29 160.79,-61.29 163.75,-64.25 163.75,-67.21 163.75,-67.21 163.75,-73.13 163.75,-73.13 163.75,-76.08 160.79,-79.04 157.83,-79.04"/>
<text text-anchor="start" x="58.25" y="-66.49" font-family="Helvetica,sans-Serif" font-size="9.00">network&#45;manager.test.ts</text>
</a>
</g>
</g>
<!-- src/networks/network&#45;manager.test.ts&#45;&gt;src/cardano/constants.ts -->
<g id="edge25" class="edge">
<title>src/networks/network&#45;manager.test.ts&#45;&gt;src/cardano/constants.ts</title>
<path fill="none" stroke="#000000" stroke-width="2" stroke-opacity="0.200000" d="M125.97,-60.84C144.64,-51.71 174.99,-38.43 203,-33.17 349.78,-5.59 415.43,32.45 538.5,-52.17 587.48,-85.84 608.5,-158.51 615.88,-192.27"/>
<polygon fill="#000000" fill-opacity="0.200000" stroke="#000000" stroke-width="2" stroke-opacity="0.200000" points="613.81,-192.63 617.07,-198.08 617.93,-191.78 613.81,-192.63"/>
</g>
<!-- src/networks/network&#45;manager.test.ts&#45;&gt;src/networks/network&#45;configs.ts -->
<g id="edge26" class="edge">
<title>src/networks/network&#45;manager.test.ts&#45;&gt;src/networks/network&#45;configs.ts</title>
<path fill="none" stroke="#000000" stroke-width="2" stroke-opacity="0.200000" d="M163.78,-69.78C215.01,-69.88 293.01,-71.19 360.5,-77.17 375.85,-78.53 392.43,-80.72 407.59,-83.01"/>
<polygon fill="#000000" fill-opacity="0.200000" stroke="#000000" stroke-width="2" stroke-opacity="0.200000" points="407.09,-85.06 413.34,-83.9 407.73,-80.91 407.09,-85.06"/>
</g>
<!-- src/networks/network&#45;manager.test.ts&#45;&gt;src/networks/network&#45;manager.ts -->
<g id="edge27" class="edge">
<title>src/networks/network&#45;manager.test.ts&#45;&gt;src/networks/network&#45;manager.ts</title>
<path fill="none" stroke="#000000" stroke-width="2" stroke-opacity="0.200000" d="M164.19,-77.49C182.24,-79.85 202.22,-82.45 220.29,-84.81"/>
<polygon fill="#000000" fill-opacity="0.200000" stroke="#000000" stroke-width="2" stroke-opacity="0.200000" points="219.76,-86.85 225.98,-85.55 220.3,-82.69 219.76,-86.85"/>
</g>
</g>
</svg>
