<?xml version="1.0" encoding="UTF-8" standalone="no"?>
<!DOCTYPE svg PUBLIC "-//W3C//DTD SVG 1.1//EN"
 "http://www.w3.org/Graphics/SVG/1.1/DTD/svg11.dtd">
<!-- Generated by graphviz version 12.2.1 (20241206.2353)
 -->
<!-- Title: dependency&#45;cruiser output Pages: 1 -->
<svg width="625pt" height="709pt"
 viewBox="0.00 0.00 625.25 709.49" xmlns="http://www.w3.org/2000/svg" xmlns:xlink="http://www.w3.org/1999/xlink">
<g id="graph0" class="graph" transform="scale(1 1) rotate(0) translate(4 705.49)">
<title>dependency&#45;cruiser output</title>
<polygon fill="white" stroke="none" points="-4,4 -4,-705.49 621.25,-705.49 621.25,4 -4,4"/>
<g id="clust1" class="cluster">
<title>cluster_src</title>
<path fill="#ffffff" stroke="black" stroke-width="2" d="M20,-21.49C20,-21.49 597.25,-21.49 597.25,-21.49 603.25,-21.49 609.25,-27.49 609.25,-33.49 609.25,-33.49 609.25,-681.49 609.25,-681.49 609.25,-687.49 603.25,-693.49 597.25,-693.49 597.25,-693.49 20,-693.49 20,-693.49 14,-693.49 8,-687.49 8,-681.49 8,-681.49 8,-33.49 8,-33.49 8,-27.49 14,-21.49 20,-21.49"/>
<text text-anchor="middle" x="308.62" y="-680.94" font-family="Helvetica,sans-Serif" font-weight="bold" font-size="9.00">src</text>
</g>
<g id="clust2" class="cluster">
<title>cluster_src/cardano</title>
<path fill="#ffffff" stroke="black" stroke-width="2" d="M280.88,-263.49C280.88,-263.49 589.25,-263.49 589.25,-263.49 595.25,-263.49 601.25,-269.49 601.25,-275.49 601.25,-275.49 601.25,-377.49 601.25,-377.49 601.25,-383.49 595.25,-389.49 589.25,-389.49 589.25,-389.49 280.88,-389.49 280.88,-389.49 274.88,-389.49 268.88,-383.49 268.88,-377.49 268.88,-377.49 268.88,-275.49 268.88,-275.49 268.88,-269.49 274.88,-263.49 280.88,-263.49"/>
<text text-anchor="middle" x="435.06" y="-376.94" font-family="Helvetica,sans-Serif" font-weight="bold" font-size="9.00">cardano</text>
</g>
<g id="clust3" class="cluster">
<title>cluster_src/translators</title>
<path fill="#ffffff" stroke="black" stroke-width="2" d="M28,-397.49C28,-397.49 361.5,-397.49 361.5,-397.49 367.5,-397.49 373.5,-403.49 373.5,-409.49 373.5,-409.49 373.5,-655.49 373.5,-655.49 373.5,-661.49 367.5,-667.49 361.5,-667.49 361.5,-667.49 28,-667.49 28,-667.49 22,-667.49 16,-661.49 16,-655.49 16,-655.49 16,-409.49 16,-409.49 16,-403.49 22,-397.49 28,-397.49"/>
<text text-anchor="middle" x="194.75" y="-654.94" font-family="Helvetica,sans-Serif" font-weight="bold" font-size="9.00">translators</text>
</g>
<g id="clust4" class="cluster">
<title>cluster_src/translators/reactjs</title>
<path fill="#ffffff" stroke="black" stroke-width="2" d="M36,-405.49C36,-405.49 353.5,-405.49 353.5,-405.49 359.5,-405.49 365.5,-411.49 365.5,-417.49 365.5,-417.49 365.5,-629.49 365.5,-629.49 365.5,-635.49 359.5,-641.49 353.5,-641.49 353.5,-641.49 36,-641.49 36,-641.49 30,-641.49 24,-635.49 24,-629.49 24,-629.49 24,-417.49 24,-417.49 24,-411.49 30,-405.49 36,-405.49"/>
<text text-anchor="middle" x="194.75" y="-628.94" font-family="Helvetica,sans-Serif" font-weight="bold" font-size="9.00">reactjs</text>
</g>
<g id="clust5" class="cluster">
<title>cluster_src/translators/reactjs/hooks</title>
<path fill="#ffffff" stroke="black" stroke-width="2" d="M172.38,-413.49C172.38,-413.49 230.62,-413.49 230.62,-413.49 236.62,-413.49 242.62,-419.49 242.62,-425.49 242.62,-425.49 242.62,-453.49 242.62,-453.49 242.62,-459.49 236.62,-465.49 230.62,-465.49 230.62,-465.49 172.38,-465.49 172.38,-465.49 166.38,-465.49 160.38,-459.49 160.38,-453.49 160.38,-453.49 160.38,-425.49 160.38,-425.49 160.38,-419.49 166.38,-413.49 172.38,-413.49"/>
<text text-anchor="middle" x="201.5" y="-452.94" font-family="Helvetica,sans-Serif" font-weight="bold" font-size="9.00">hooks</text>
</g>
<g id="clust6" class="cluster">
<title>cluster_src/translators/reactjs/provider</title>
<path fill="#ffffff" stroke="black" stroke-width="2" d="M44,-563.49C44,-563.49 240.38,-563.49 240.38,-563.49 246.38,-563.49 252.38,-569.49 252.38,-575.49 252.38,-575.49 252.38,-603.49 252.38,-603.49 252.38,-609.49 246.38,-615.49 240.38,-615.49 240.38,-615.49 44,-615.49 44,-615.49 38,-615.49 32,-609.49 32,-603.49 32,-603.49 32,-575.49 32,-575.49 32,-569.49 38,-563.49 44,-563.49"/>
<text text-anchor="middle" x="142.19" y="-602.94" font-family="Helvetica,sans-Serif" font-weight="bold" font-size="9.00">provider</text>
</g>
<g id="clust7" class="cluster">
<title>cluster_src/translators/reactjs/state</title>
<path fill="#ffffff" stroke="black" stroke-width="2" d="M175,-473.49C175,-473.49 345.5,-473.49 345.5,-473.49 351.5,-473.49 357.5,-479.49 357.5,-485.49 357.5,-485.49 357.5,-543.49 357.5,-543.49 357.5,-549.49 351.5,-555.49 345.5,-555.49 345.5,-555.49 175,-555.49 175,-555.49 169,-555.49 163,-549.49 163,-543.49 163,-543.49 163,-485.49 163,-485.49 163,-479.49 169,-473.49 175,-473.49"/>
<text text-anchor="middle" x="260.25" y="-542.94" font-family="Helvetica,sans-Serif" font-weight="bold" font-size="9.00">state</text>
</g>
<g id="clust8" class="cluster">
<title>cluster_src/yoroi</title>
<path fill="#ffffff" stroke="black" stroke-width="2" d="M50.38,-53.49C50.38,-53.49 442.25,-53.49 442.25,-53.49 448.25,-53.49 454.25,-59.49 454.25,-65.49 454.25,-65.49 454.25,-243.49 454.25,-243.49 454.25,-249.49 448.25,-255.49 442.25,-255.49 442.25,-255.49 50.37,-255.49 50.37,-255.49 44.38,-255.49 38.38,-249.49 38.38,-243.49 38.38,-243.49 38.38,-65.49 38.38,-65.49 38.38,-59.49 44.38,-53.49 50.38,-53.49"/>
<text text-anchor="middle" x="246.31" y="-242.94" font-family="Helvetica,sans-Serif" font-weight="bold" font-size="9.00">yoroi</text>
</g>
<!-- src/cardano/constants.ts -->
<g id="node1" class="node">
<title>src/cardano/constants.ts</title>
<g id="a_node1"><a xlink:href="src/cardano/constants.ts" xlink:title="constants.ts">
<path fill="#ddfeff" stroke="black" d="M520.33,-289.37C520.33,-289.37 468.17,-289.37 468.17,-289.37 465.21,-289.37 462.25,-286.41 462.25,-283.45 462.25,-283.45 462.25,-277.53 462.25,-277.53 462.25,-274.58 465.21,-271.62 468.17,-271.62 468.17,-271.62 520.33,-271.62 520.33,-271.62 523.29,-271.62 526.25,-274.58 526.25,-277.53 526.25,-277.53 526.25,-283.45 526.25,-283.45 526.25,-286.41 523.29,-289.37 520.33,-289.37"/>
<text text-anchor="start" x="470.25" y="-276.82" font-family="Helvetica,sans-Serif" font-size="9.00">constants.ts</text>
</a>
</g>
</g>
<!-- src/cardano/types.ts -->
<g id="node2" class="node">
<title>src/cardano/types.ts</title>
<g id="a_node2"><a xlink:href="src/cardano/types.ts" xlink:title="types.ts">
<path fill="#ddfeff" stroke="black" d="M587.33,-352.37C587.33,-352.37 545.17,-352.37 545.17,-352.37 542.21,-352.37 539.25,-349.41 539.25,-346.45 539.25,-346.45 539.25,-340.53 539.25,-340.53 539.25,-337.58 542.21,-334.62 545.17,-334.62 545.17,-334.62 587.33,-334.62 587.33,-334.62 590.29,-334.62 593.25,-337.58 593.25,-340.53 593.25,-340.53 593.25,-346.45 593.25,-346.45 593.25,-349.41 590.29,-352.37 587.33,-352.37"/>
<text text-anchor="start" x="550.88" y="-339.82" font-family="Helvetica,sans-Serif" font-size="9.00">types.ts</text>
</a>
</g>
</g>
<!-- src/cardano/constants.ts&#45;&gt;src/cardano/types.ts -->
<g id="edge1" class="edge">
<title>src/cardano/constants.ts&#45;&gt;src/cardano/types.ts</title>
<path fill="none" stroke="#000000" stroke-width="2" stroke-opacity="0.200000" d="M517.64,-289.85C520.66,-291.53 523.62,-293.41 526.25,-295.49 537.41,-304.33 547.47,-316.88 554.58,-326.94"/>
<polygon fill="#000000" fill-opacity="0.200000" stroke="#000000" stroke-width="2" stroke-opacity="0.200000" points="552.8,-328.06 557.91,-331.84 556.27,-325.7 552.8,-328.06"/>
</g>
<!-- src/cardano/helpers.ts -->
<g id="node3" class="node">
<title>src/cardano/helpers.ts</title>
<g id="a_node3"><a xlink:href="src/cardano/helpers.ts" xlink:title="helpers.ts">
<path fill="#ddfeff" stroke="black" d="M516.21,-319.37C516.21,-319.37 472.29,-319.37 472.29,-319.37 469.33,-319.37 466.38,-316.41 466.38,-313.45 466.38,-313.45 466.38,-307.53 466.38,-307.53 466.38,-304.58 469.33,-301.62 472.29,-301.62 472.29,-301.62 516.21,-301.62 516.21,-301.62 519.17,-301.62 522.12,-304.58 522.12,-307.53 522.12,-307.53 522.12,-313.45 522.12,-313.45 522.12,-316.41 519.17,-319.37 516.21,-319.37"/>
<text text-anchor="start" x="474.38" y="-306.82" font-family="Helvetica,sans-Serif" font-size="9.00">helpers.ts</text>
</a>
</g>
</g>
<!-- src/cardano/module.test.ts -->
<g id="node4" class="node">
<title>src/cardano/module.test.ts</title>
<g id="a_node4"><a xlink:href="src/cardano/module.test.ts" xlink:title="module.test.ts">
<path fill="#ddfeff" stroke="black" d="M343.21,-351.37C343.21,-351.37 282.79,-351.37 282.79,-351.37 279.83,-351.37 276.88,-348.41 276.88,-345.45 276.88,-345.45 276.88,-339.53 276.88,-339.53 276.88,-336.58 279.83,-333.62 282.79,-333.62 282.79,-333.62 343.21,-333.62 343.21,-333.62 346.17,-333.62 349.12,-336.58 349.12,-339.53 349.12,-339.53 349.12,-345.45 349.12,-345.45 349.12,-348.41 346.17,-351.37 343.21,-351.37"/>
<text text-anchor="start" x="284.88" y="-338.82" font-family="Helvetica,sans-Serif" font-size="9.00">module.test.ts</text>
</a>
</g>
</g>
<!-- src/cardano/module.test.ts&#45;&gt;src/cardano/constants.ts -->
<g id="edge2" class="edge">
<title>src/cardano/module.test.ts&#45;&gt;src/cardano/constants.ts</title>
<path fill="none" stroke="#000000" stroke-width="2" stroke-opacity="0.200000" d="M349.45,-343.18C385.8,-343.12 439.1,-340.67 454.25,-327.49 463.67,-319.3 456.14,-310.1 463.39,-296.95"/>
<polygon fill="#000000" fill-opacity="0.200000" stroke="#000000" stroke-width="2" stroke-opacity="0.200000" points="465.06,-298.22 466.91,-292.14 461.67,-295.74 465.06,-298.22"/>
</g>
<!-- src/cardano/module.ts -->
<g id="node5" class="node">
<title>src/cardano/module.ts</title>
<g id="a_node5"><a xlink:href="src/cardano/module.ts" xlink:title="module.ts">
<path fill="#ddfeff" stroke="black" d="M435.83,-321.37C435.83,-321.37 391.92,-321.37 391.92,-321.37 388.96,-321.37 386,-318.41 386,-315.45 386,-315.45 386,-309.53 386,-309.53 386,-306.58 388.96,-303.62 391.92,-303.62 391.92,-303.62 435.83,-303.62 435.83,-303.62 438.79,-303.62 441.75,-306.58 441.75,-309.53 441.75,-309.53 441.75,-315.45 441.75,-315.45 441.75,-318.41 438.79,-321.37 435.83,-321.37"/>
<text text-anchor="start" x="394" y="-308.82" font-family="Helvetica,sans-Serif" font-size="9.00">module.ts</text>
</a>
</g>
</g>
<!-- src/cardano/module.test.ts&#45;&gt;src/cardano/module.ts -->
<g id="edge3" class="edge">
<title>src/cardano/module.test.ts&#45;&gt;src/cardano/module.ts</title>
<path fill="none" stroke="#000000" stroke-width="2" stroke-opacity="0.200000" d="M349.54,-335.9C357.5,-334.1 365.85,-331.95 373.5,-329.49 377.35,-328.25 381.34,-326.77 385.24,-325.21"/>
<polygon fill="#000000" fill-opacity="0.200000" stroke="#000000" stroke-width="2" stroke-opacity="0.200000" points="386.03,-327.16 390.74,-322.9 384.4,-323.29 386.03,-327.16"/>
</g>
<!-- src/cardano/module.ts&#45;&gt;src/cardano/constants.ts -->
<g id="edge4" class="edge">
<title>src/cardano/module.ts&#45;&gt;src/cardano/constants.ts</title>
<path fill="none" stroke="#000000" stroke-width="2" stroke-opacity="0.200000" d="M437.54,-303.24C445.19,-300.11 453.87,-296.57 462.06,-293.23"/>
<polygon fill="#000000" fill-opacity="0.200000" stroke="#000000" stroke-width="2" stroke-opacity="0.200000" points="462.8,-295.19 467.56,-290.98 461.21,-291.31 462.8,-295.19"/>
</g>
<!-- src/cardano/module.ts&#45;&gt;src/cardano/types.ts -->
<g id="edge7" class="edge">
<title>src/cardano/module.ts&#45;&gt;src/cardano/types.ts</title>
<path fill="none" stroke="#000000" stroke-width="2" stroke-opacity="0.200000" d="M442.07,-320.43C448.65,-322.22 455.68,-324.02 462.25,-325.49 484.68,-330.52 510.11,-334.97 530.1,-338.2"/>
<polygon fill="#000000" fill-opacity="0.200000" stroke="#000000" stroke-width="2" stroke-opacity="0.200000" points="529.62,-340.25 535.88,-339.11 530.28,-336.1 529.62,-340.25"/>
</g>
<!-- src/cardano/module.ts&#45;&gt;src/cardano/helpers.ts -->
<g id="edge5" class="edge">
<title>src/cardano/module.ts&#45;&gt;src/cardano/helpers.ts</title>
<path fill="none" stroke="#000000" stroke-width="2" stroke-opacity="0.200000" d="M441.85,-311.8C446.72,-311.68 451.87,-311.55 456.95,-311.42"/>
<polygon fill="#000000" fill-opacity="0.200000" stroke="#000000" stroke-width="2" stroke-opacity="0.200000" points="456.99,-313.52 462.94,-311.27 456.88,-309.32 456.99,-313.52"/>
</g>
<!-- src/cardano/params.ts -->
<g id="node6" class="node">
<title>src/cardano/params.ts</title>
<g id="a_node6"><a xlink:href="src/cardano/params.ts" xlink:title="params.ts">
<path fill="#ddfeff" stroke="black" d="M516.21,-363.37C516.21,-363.37 472.29,-363.37 472.29,-363.37 469.33,-363.37 466.38,-360.41 466.38,-357.45 466.38,-357.45 466.38,-351.53 466.38,-351.53 466.38,-348.58 469.33,-345.62 472.29,-345.62 472.29,-345.62 516.21,-345.62 516.21,-345.62 519.17,-345.62 522.12,-348.58 522.12,-351.53 522.12,-351.53 522.12,-357.45 522.12,-357.45 522.12,-360.41 519.17,-363.37 516.21,-363.37"/>
<text text-anchor="start" x="474.38" y="-350.82" font-family="Helvetica,sans-Serif" font-size="9.00">params.ts</text>
</a>
</g>
</g>
<!-- src/cardano/module.ts&#45;&gt;src/cardano/params.ts -->
<g id="edge6" class="edge">
<title>src/cardano/module.ts&#45;&gt;src/cardano/params.ts</title>
<path fill="none" stroke="#000000" stroke-width="2" stroke-opacity="0.200000" d="M442.23,-319.04C446.48,-320.74 450.64,-322.86 454.25,-325.49 459.13,-329.06 457.76,-332.44 462.25,-336.49 463.71,-337.81 465.29,-339.08 466.93,-340.29"/>
<polygon fill="#000000" fill-opacity="0.200000" stroke="#000000" stroke-width="2" stroke-opacity="0.200000" points="465.67,-341.98 471.83,-343.53 467.98,-338.47 465.67,-341.98"/>
</g>
<!-- src/cardano/params.ts&#45;&gt;src/cardano/types.ts -->
<g id="edge8" class="edge">
<title>src/cardano/params.ts&#45;&gt;src/cardano/types.ts</title>
<path fill="none" stroke="#000000" stroke-width="2" stroke-opacity="0.200000" d="M522.51,-350.21C525.03,-349.81 527.61,-349.41 530.19,-349"/>
<polygon fill="#000000" fill-opacity="0.200000" stroke="#000000" stroke-width="2" stroke-opacity="0.200000" points="530.27,-351.11 535.87,-348.11 529.62,-346.97 530.27,-351.11"/>
</g>
<!-- src/index.ts -->
<g id="node7" class="node">
<title>src/index.ts</title>
<g id="a_node7"><a xlink:href="src/index.ts" xlink:title="index.ts">
<path fill="#ddfeff" stroke="black" d="M112.21,-329.37C112.21,-329.37 70.04,-329.37 70.04,-329.37 67.08,-329.37 64.12,-326.41 64.12,-323.45 64.12,-323.45 64.12,-317.53 64.12,-317.53 64.12,-314.58 67.08,-311.62 70.04,-311.62 70.04,-311.62 112.21,-311.62 112.21,-311.62 115.17,-311.62 118.12,-314.58 118.12,-317.53 118.12,-317.53 118.12,-323.45 118.12,-323.45 118.12,-326.41 115.17,-329.37 112.21,-329.37"/>
<text text-anchor="start" x="75.38" y="-316.82" font-family="Helvetica,sans-Serif" font-size="9.00">index.ts</text>
</a>
</g>
</g>
<!-- src/index.ts&#45;&gt;src/cardano/constants.ts -->
<g id="edge9" class="edge">
<title>src/index.ts&#45;&gt;src/cardano/constants.ts</title>
<path fill="none" stroke="#000000" stroke-width="2" stroke-opacity="0.200000" d="M100.06,-311.47C111.12,-299.58 132.37,-279.06 155.25,-269.49 175.29,-261.11 237.58,-274.4 252.38,-258.49 268.13,-241.55 244.07,-66.51 260.75,-50.49 276.26,-35.6 437.83,-36.62 454.25,-50.49 486.86,-78.03 492.21,-216.13 493.08,-264.07"/>
<polygon fill="#000000" fill-opacity="0.200000" stroke="#000000" stroke-width="2" stroke-opacity="0.200000" points="491.07,-270.23 493.08,-264.2 495.27,-270.17 491.07,-270.23"/>
</g>
<!-- src/index.ts&#45;&gt;src/cardano/types.ts -->
<g id="edge11" class="edge">
<title>src/index.ts&#45;&gt;src/cardano/types.ts</title>
<path fill="none" stroke="#000000" stroke-width="2" stroke-opacity="0.200000" d="M113.82,-329.87C152.74,-345.81 237.35,-376.49 312,-376.49 312,-376.49 312,-376.49 414.88,-376.49 464.47,-376.49 479.25,-385.35 526.25,-369.49 534.4,-366.74 542.46,-361.83 549.13,-357.02"/>
<polygon fill="#000000" fill-opacity="0.200000" stroke="#000000" stroke-width="2" stroke-opacity="0.200000" points="555.29,-354.96 549.24,-356.93 552.74,-351.62 555.29,-354.96"/>
</g>
<!-- src/index.ts&#45;&gt;src/cardano/module.ts -->
<g id="edge10" class="edge">
<title>src/index.ts&#45;&gt;src/cardano/module.ts</title>
<path fill="none" stroke="#000000" stroke-width="2" stroke-opacity="0.200000" d="M118.37,-319.84C176.14,-318.4 314.27,-314.95 378.7,-313.34"/>
<polygon fill="#000000" fill-opacity="0.200000" stroke="#000000" stroke-width="2" stroke-opacity="0.200000" points="384.86,-315.29 378.81,-313.34 384.76,-311.09 384.86,-315.29"/>
</g>
<!-- src/translators/reactjs/hooks/useLinks.tsx -->
<g id="node8" class="node">
<title>src/translators/reactjs/hooks/useLinks.tsx</title>
<g id="a_node8"><a xlink:href="src/translators/reactjs/hooks/useLinks.tsx" xlink:title="useLinks.tsx">
<path fill="#bbfeff" stroke="black" d="M228.71,-439.37C228.71,-439.37 174.29,-439.37 174.29,-439.37 171.33,-439.37 168.38,-436.41 168.38,-433.45 168.38,-433.45 168.38,-427.53 168.38,-427.53 168.38,-424.58 171.33,-421.62 174.29,-421.62 174.29,-421.62 228.71,-421.62 228.71,-421.62 231.67,-421.62 234.62,-424.58 234.62,-427.53 234.62,-427.53 234.62,-433.45 234.62,-433.45 234.62,-436.41 231.67,-439.37 228.71,-439.37"/>
<text text-anchor="start" x="176.38" y="-426.82" font-family="Helvetica,sans-Serif" font-size="9.00">useLinks.tsx</text>
</a>
</g>
</g>
<!-- src/index.ts&#45;&gt;src/translators/reactjs/hooks/useLinks.tsx -->
<g id="edge12" class="edge">
<title>src/index.ts&#45;&gt;src/translators/reactjs/hooks/useLinks.tsx</title>
<path fill="none" stroke="#000000" stroke-width="2" stroke-opacity="0.200000" d="M95.57,-329.82C103.2,-349.2 123.43,-393.96 155.25,-417.49 157.27,-418.99 159.47,-420.32 161.76,-421.49"/>
<polygon fill="#000000" fill-opacity="0.200000" stroke="#000000" stroke-width="2" stroke-opacity="0.200000" points="166.24,-425.77 161.6,-421.42 167.94,-421.93 166.24,-425.77"/>
</g>
<!-- src/translators/reactjs/provider/LinksProvider.tsx -->
<g id="node9" class="node">
<title>src/translators/reactjs/provider/LinksProvider.tsx</title>
<g id="a_node9"><a xlink:href="src/translators/reactjs/provider/LinksProvider.tsx" xlink:title="LinksProvider.tsx">
<path fill="#bbfeff" stroke="black" d="M238.46,-589.37C238.46,-589.37 164.54,-589.37 164.54,-589.37 161.58,-589.37 158.62,-586.41 158.62,-583.45 158.62,-583.45 158.62,-577.53 158.62,-577.53 158.62,-574.58 161.58,-571.62 164.54,-571.62 164.54,-571.62 238.46,-571.62 238.46,-571.62 241.42,-571.62 244.38,-574.58 244.38,-577.53 244.38,-577.53 244.38,-583.45 244.38,-583.45 244.38,-586.41 241.42,-589.37 238.46,-589.37"/>
<text text-anchor="start" x="166.62" y="-576.82" font-family="Helvetica,sans-Serif" font-size="9.00">LinksProvider.tsx</text>
</a>
</g>
</g>
<!-- src/index.ts&#45;&gt;src/translators/reactjs/provider/LinksProvider.tsx -->
<g id="edge13" class="edge">
<title>src/index.ts&#45;&gt;src/translators/reactjs/provider/LinksProvider.tsx</title>
<path fill="none" stroke="#000000" stroke-width="2" stroke-opacity="0.200000" d="M91.97,-329.44C91.85,-363.42 95.75,-486.22 155.25,-558.49 158.23,-562.12 161.96,-565.19 165.98,-567.78"/>
<polygon fill="#000000" fill-opacity="0.200000" stroke="#000000" stroke-width="2" stroke-opacity="0.200000" points="170.13,-572.57 165.97,-567.77 172.22,-568.93 170.13,-572.57"/>
</g>
<!-- src/translators/reactjs/state/state.ts -->
<g id="node10" class="node">
<title>src/translators/reactjs/state/state.ts</title>
<g id="a_node10"><a xlink:href="src/translators/reactjs/state/state.ts" xlink:title="state.ts">
<path fill="#ddfeff" stroke="black" d="M334.08,-499.37C334.08,-499.37 291.92,-499.37 291.92,-499.37 288.96,-499.37 286,-496.41 286,-493.45 286,-493.45 286,-487.53 286,-487.53 286,-484.58 288.96,-481.62 291.92,-481.62 291.92,-481.62 334.08,-481.62 334.08,-481.62 337.04,-481.62 340,-484.58 340,-487.53 340,-487.53 340,-493.45 340,-493.45 340,-496.41 337.04,-499.37 334.08,-499.37"/>
<text text-anchor="start" x="298.75" y="-486.82" font-family="Helvetica,sans-Serif" font-size="9.00">state.ts</text>
</a>
</g>
</g>
<!-- src/index.ts&#45;&gt;src/translators/reactjs/state/state.ts -->
<g id="edge14" class="edge">
<title>src/index.ts&#45;&gt;src/translators/reactjs/state/state.ts</title>
<path fill="none" stroke="#000000" stroke-width="2" stroke-opacity="0.200000" d="M99.3,-329.58C110.1,-342.66 131.77,-366.74 155.25,-380.49 194.24,-403.32 223.35,-375.87 252.38,-410.49 271.66,-433.49 240.89,-455 260.75,-477.49 265.44,-482.81 271.97,-486.1 278.8,-488.1"/>
<polygon fill="#000000" fill-opacity="0.200000" stroke="#000000" stroke-width="2" stroke-opacity="0.200000" points="284.22,-491.52 278.85,-488.12 285.17,-487.43 284.22,-491.52"/>
</g>
<!-- src/yoroi/constants.ts -->
<g id="node11" class="node">
<title>src/yoroi/constants.ts</title>
<g id="a_node11"><a xlink:href="src/yoroi/constants.ts" xlink:title="constants.ts">
<path fill="#ddfeff" stroke="black" d="M339.08,-229.37C339.08,-229.37 286.92,-229.37 286.92,-229.37 283.96,-229.37 281,-226.41 281,-223.45 281,-223.45 281,-217.53 281,-217.53 281,-214.58 283.96,-211.62 286.92,-211.62 286.92,-211.62 339.08,-211.62 339.08,-211.62 342.04,-211.62 345,-214.58 345,-217.53 345,-217.53 345,-223.45 345,-223.45 345,-226.41 342.04,-229.37 339.08,-229.37"/>
<text text-anchor="start" x="289" y="-216.82" font-family="Helvetica,sans-Serif" font-size="9.00">constants.ts</text>
</a>
</g>
</g>
<!-- src/index.ts&#45;&gt;src/yoroi/constants.ts -->
<g id="edge15" class="edge">
<title>src/index.ts&#45;&gt;src/yoroi/constants.ts</title>
<path fill="none" stroke="#000000" stroke-width="2" stroke-opacity="0.200000" d="M118.42,-317.76C159.06,-312.97 234.33,-301.73 252.38,-282.49 267.49,-266.38 245.76,-249.72 260.75,-233.49 264.39,-229.56 269.03,-226.74 274.03,-224.74"/>
<polygon fill="#000000" fill-opacity="0.200000" stroke="#000000" stroke-width="2" stroke-opacity="0.200000" points="280.21,-224.92 273.85,-224.79 278.9,-220.93 280.21,-224.92"/>
</g>
<!-- src/yoroi/links&#45;parser.ts -->
<g id="node12" class="node">
<title>src/yoroi/links&#45;parser.ts</title>
<g id="a_node12"><a xlink:href="src/yoroi/links-parser.ts" xlink:title="links&#45;parser.ts">
<path fill="#ddfeff" stroke="black" d="M343.58,-169.37C343.58,-169.37 282.42,-169.37 282.42,-169.37 279.46,-169.37 276.5,-166.41 276.5,-163.45 276.5,-163.45 276.5,-157.53 276.5,-157.53 276.5,-154.58 279.46,-151.62 282.42,-151.62 282.42,-151.62 343.58,-151.62 343.58,-151.62 346.54,-151.62 349.5,-154.58 349.5,-157.53 349.5,-157.53 349.5,-163.45 349.5,-163.45 349.5,-166.41 346.54,-169.37 343.58,-169.37"/>
<text text-anchor="start" x="284.5" y="-156.82" font-family="Helvetica,sans-Serif" font-size="9.00">links&#45;parser.ts</text>
</a>
</g>
</g>
<!-- src/index.ts&#45;&gt;src/yoroi/links&#45;parser.ts -->
<g id="edge16" class="edge">
<title>src/index.ts&#45;&gt;src/yoroi/links&#45;parser.ts</title>
<path fill="none" stroke="#000000" stroke-width="2" stroke-opacity="0.200000" d="M104.48,-311.33C116.73,-302.74 136.34,-290.22 155.25,-283.49 196.4,-268.86 222.48,-300.34 252.38,-268.49 266.58,-253.36 247.57,-191.52 260.75,-175.49 263.25,-172.45 266.34,-170 269.74,-168.04"/>
<polygon fill="#000000" fill-opacity="0.200000" stroke="#000000" stroke-width="2" stroke-opacity="0.200000" points="276.15,-167.33 269.83,-168 274.35,-163.53 276.15,-167.33"/>
</g>
<!-- src/yoroi/module.ts -->
<g id="node13" class="node">
<title>src/yoroi/module.ts</title>
<g id="a_node13"><a xlink:href="src/yoroi/module.ts" xlink:title="module.ts">
<path fill="#ddfeff" stroke="black" d="M223.46,-221.37C223.46,-221.37 179.54,-221.37 179.54,-221.37 176.58,-221.37 173.62,-218.41 173.62,-215.45 173.62,-215.45 173.62,-209.53 173.62,-209.53 173.62,-206.58 176.58,-203.62 179.54,-203.62 179.54,-203.62 223.46,-203.62 223.46,-203.62 226.42,-203.62 229.38,-206.58 229.38,-209.53 229.38,-209.53 229.38,-215.45 229.38,-215.45 229.38,-218.41 226.42,-221.37 223.46,-221.37"/>
<text text-anchor="start" x="181.62" y="-208.82" font-family="Helvetica,sans-Serif" font-size="9.00">module.ts</text>
</a>
</g>
</g>
<!-- src/index.ts&#45;&gt;src/yoroi/module.ts -->
<g id="edge17" class="edge">
<title>src/index.ts&#45;&gt;src/yoroi/module.ts</title>
<path fill="none" stroke="#000000" stroke-width="2" stroke-opacity="0.200000" d="M100.9,-311.49C111.76,-299.98 130.26,-279.06 142.25,-258.49 150.19,-244.87 143.58,-236.09 155.25,-225.49 158.58,-222.46 162.58,-220.13 166.8,-218.35"/>
<polygon fill="#000000" fill-opacity="0.200000" stroke="#000000" stroke-width="2" stroke-opacity="0.200000" points="173.31,-218.27 166.95,-218.29 171.91,-214.31 173.31,-218.27"/>
</g>
<!-- src/translators/reactjs/hooks/useLinks.tsx&#45;&gt;src/translators/reactjs/provider/LinksProvider.tsx -->
<g id="edge18" class="edge">
<title>src/translators/reactjs/hooks/useLinks.tsx&#45;&gt;src/translators/reactjs/provider/LinksProvider.tsx</title>
<path fill="none" stroke="#000000" stroke-width="2" stroke-opacity="0.200000" d="M184.33,-439.83C171.8,-447.74 155.82,-460.35 148.75,-476.49 141.98,-491.96 141.98,-537.02 148.75,-552.49 151.32,-558.37 155.73,-563.04 160.94,-566.75"/>
<polygon fill="#000000" fill-opacity="0.200000" stroke="#000000" stroke-width="2" stroke-opacity="0.200000" points="159.62,-568.4 165.85,-569.67 161.77,-564.79 159.62,-568.4"/>
</g>
<!-- src/translators/reactjs/provider/LinksProvider.tsx&#45;&gt;src/translators/reactjs/state/state.ts -->
<g id="edge22" class="edge">
<title>src/translators/reactjs/provider/LinksProvider.tsx&#45;&gt;src/translators/reactjs/state/state.ts</title>
<path fill="none" stroke="#000000" stroke-width="2" stroke-opacity="0.200000" d="M236.06,-571.23C242.29,-568.11 248.16,-563.97 252.38,-558.49 266.92,-539.59 245,-523.4 260.75,-505.49 265.09,-500.56 270.94,-497.21 277.15,-494.95"/>
<polygon fill="#000000" fill-opacity="0.200000" stroke="#000000" stroke-width="2" stroke-opacity="0.200000" points="277.63,-496.99 282.81,-493.32 276.47,-492.96 277.63,-496.99"/>
</g>
<!-- src/yoroi/helpers.ts -->
<g id="node18" class="node">
<title>src/yoroi/helpers.ts</title>
<g id="a_node18"><a xlink:href="src/yoroi/helpers.ts" xlink:title="helpers.ts">
<path fill="#ddfeff" stroke="black" d="M435.83,-139.37C435.83,-139.37 391.92,-139.37 391.92,-139.37 388.96,-139.37 386,-136.41 386,-133.45 386,-133.45 386,-127.53 386,-127.53 386,-124.58 388.96,-121.62 391.92,-121.62 391.92,-121.62 435.83,-121.62 435.83,-121.62 438.79,-121.62 441.75,-124.58 441.75,-127.53 441.75,-127.53 441.75,-133.45 441.75,-133.45 441.75,-136.41 438.79,-139.37 435.83,-139.37"/>
<text text-anchor="start" x="394" y="-126.82" font-family="Helvetica,sans-Serif" font-size="9.00">helpers.ts</text>
</a>
</g>
</g>
<!-- src/yoroi/links&#45;parser.ts&#45;&gt;src/yoroi/helpers.ts -->
<g id="edge30" class="edge">
<title>src/yoroi/links&#45;parser.ts&#45;&gt;src/yoroi/helpers.ts</title>
<path fill="none" stroke="#000000" stroke-width="2" stroke-opacity="0.200000" d="M349.74,-152.2C357.62,-150.18 365.88,-147.89 373.5,-145.49 376.07,-144.68 378.71,-143.8 381.36,-142.87"/>
<polygon fill="#000000" fill-opacity="0.200000" stroke="#000000" stroke-width="2" stroke-opacity="0.200000" points="381.95,-144.89 386.87,-140.87 380.51,-140.94 381.95,-144.89"/>
</g>
<!-- src/yoroi/validators.ts -->
<g id="node22" class="node">
<title>src/yoroi/validators.ts</title>
<g id="a_node22"><a xlink:href="src/yoroi/validators.ts" xlink:title="validators.ts">
<path fill="#ddfeff" stroke="black" d="M440.33,-184.37C440.33,-184.37 387.42,-184.37 387.42,-184.37 384.46,-184.37 381.5,-181.41 381.5,-178.45 381.5,-178.45 381.5,-172.53 381.5,-172.53 381.5,-169.58 384.46,-166.62 387.42,-166.62 387.42,-166.62 440.33,-166.62 440.33,-166.62 443.29,-166.62 446.25,-169.58 446.25,-172.53 446.25,-172.53 446.25,-178.45 446.25,-178.45 446.25,-181.41 443.29,-184.37 440.33,-184.37"/>
<text text-anchor="start" x="389.5" y="-171.82" font-family="Helvetica,sans-Serif" font-size="9.00">validators.ts</text>
</a>
</g>
</g>
<!-- src/yoroi/links&#45;parser.ts&#45;&gt;src/yoroi/validators.ts -->
<g id="edge31" class="edge">
<title>src/yoroi/links&#45;parser.ts&#45;&gt;src/yoroi/validators.ts</title>
<path fill="none" stroke="#000000" stroke-width="2" stroke-opacity="0.200000" d="M349.98,-165.95C357.28,-167.06 365,-168.23 372.45,-169.36"/>
<polygon fill="#000000" fill-opacity="0.200000" stroke="#000000" stroke-width="2" stroke-opacity="0.200000" points="371.78,-171.38 378.02,-170.2 372.41,-167.23 371.78,-171.38"/>
</g>
<!-- src/yoroi/module.ts&#45;&gt;src/yoroi/constants.ts -->
<g id="edge35" class="edge">
<title>src/yoroi/module.ts&#45;&gt;src/yoroi/constants.ts</title>
<path fill="none" stroke="#000000" stroke-width="2" stroke-opacity="0.200000" d="M229.85,-214.49C242.53,-215.42 257.85,-216.54 271.81,-217.56"/>
<polygon fill="#000000" fill-opacity="0.200000" stroke="#000000" stroke-width="2" stroke-opacity="0.200000" points="271.59,-219.64 277.72,-217.99 271.89,-215.46 271.59,-219.64"/>
</g>
<!-- src/yoroi/links&#45;builder.ts -->
<g id="node19" class="node">
<title>src/yoroi/links&#45;builder.ts</title>
<g id="a_node19"><a xlink:href="src/yoroi/links-builder.ts" xlink:title="links&#45;builder.ts">
<path fill="#ddfeff" stroke="black" d="M344.71,-109.37C344.71,-109.37 281.29,-109.37 281.29,-109.37 278.33,-109.37 275.38,-106.41 275.38,-103.45 275.38,-103.45 275.38,-97.53 275.38,-97.53 275.38,-94.58 278.33,-91.62 281.29,-91.62 281.29,-91.62 344.71,-91.62 344.71,-91.62 347.67,-91.62 350.62,-94.58 350.62,-97.53 350.62,-97.53 350.62,-103.45 350.62,-103.45 350.62,-106.41 347.67,-109.37 344.71,-109.37"/>
<text text-anchor="start" x="283.38" y="-96.82" font-family="Helvetica,sans-Serif" font-size="9.00">links&#45;builder.ts</text>
</a>
</g>
</g>
<!-- src/yoroi/module.ts&#45;&gt;src/yoroi/links&#45;builder.ts -->
<g id="edge36" class="edge">
<title>src/yoroi/module.ts&#45;&gt;src/yoroi/links&#45;builder.ts</title>
<path fill="none" stroke="#000000" stroke-width="2" stroke-opacity="0.200000" d="M229.86,-210.15C238.28,-208.05 246.79,-204.26 252.38,-197.49 275.7,-169.24 237.32,-143.65 260.75,-115.49 262.62,-113.25 264.8,-111.33 267.2,-109.69"/>
<polygon fill="#000000" fill-opacity="0.200000" stroke="#000000" stroke-width="2" stroke-opacity="0.200000" points="267.94,-111.67 272.23,-106.99 265.95,-107.97 267.94,-111.67"/>
</g>
<!-- src/yoroi/transformers.ts -->
<g id="node24" class="node">
<title>src/yoroi/transformers.ts</title>
<g id="a_node24"><a xlink:href="src/yoroi/transformers.ts" xlink:title="transformers.ts">
<path fill="#ddfeff" stroke="black" d="M345.08,-199.37C345.08,-199.37 280.92,-199.37 280.92,-199.37 277.96,-199.37 275,-196.41 275,-193.45 275,-193.45 275,-187.53 275,-187.53 275,-184.58 277.96,-181.62 280.92,-181.62 280.92,-181.62 345.08,-181.62 345.08,-181.62 348.04,-181.62 351,-184.58 351,-187.53 351,-187.53 351,-193.45 351,-193.45 351,-196.41 348.04,-199.37 345.08,-199.37"/>
<text text-anchor="start" x="283" y="-186.82" font-family="Helvetica,sans-Serif" font-size="9.00">transformers.ts</text>
</a>
</g>
</g>
<!-- src/yoroi/module.ts&#45;&gt;src/yoroi/transformers.ts -->
<g id="edge37" class="edge">
<title>src/yoroi/module.ts&#45;&gt;src/yoroi/transformers.ts</title>
<path fill="none" stroke="#000000" stroke-width="2" stroke-opacity="0.200000" d="M229.85,-207C240.76,-204.81 253.62,-202.22 265.89,-199.76"/>
<polygon fill="#000000" fill-opacity="0.200000" stroke="#000000" stroke-width="2" stroke-opacity="0.200000" points="266.25,-201.83 271.72,-198.59 265.42,-197.71 266.25,-201.83"/>
</g>
<!-- src/translators/reactjs/provider/LinksProvider.test.tsx -->
<g id="node14" class="node">
<title>src/translators/reactjs/provider/LinksProvider.test.tsx</title>
<g id="a_node14"><a xlink:href="src/translators/reactjs/provider/LinksProvider.test.tsx" xlink:title="LinksProvider.test.tsx">
<path fill="#bbfeff" stroke="black" d="M136.33,-589.37C136.33,-589.37 45.92,-589.37 45.92,-589.37 42.96,-589.37 40,-586.41 40,-583.45 40,-583.45 40,-577.53 40,-577.53 40,-574.58 42.96,-571.62 45.92,-571.62 45.92,-571.62 136.33,-571.62 136.33,-571.62 139.29,-571.62 142.25,-574.58 142.25,-577.53 142.25,-577.53 142.25,-583.45 142.25,-583.45 142.25,-586.41 139.29,-589.37 136.33,-589.37"/>
<text text-anchor="start" x="48" y="-576.82" font-family="Helvetica,sans-Serif" font-size="9.00">LinksProvider.test.tsx</text>
</a>
</g>
</g>
<!-- src/translators/reactjs/provider/LinksProvider.test.tsx&#45;&gt;src/translators/reactjs/hooks/useLinks.tsx -->
<g id="edge19" class="edge">
<title>src/translators/reactjs/provider/LinksProvider.test.tsx&#45;&gt;src/translators/reactjs/hooks/useLinks.tsx</title>
<path fill="none" stroke="#000000" stroke-width="2" stroke-opacity="0.200000" d="M138.34,-571.15C139.75,-570.05 141.06,-568.84 142.25,-567.49 171.1,-534.94 134.78,-508.87 155.25,-470.49 160.65,-460.37 169.69,-451.6 178.28,-444.87"/>
<polygon fill="#000000" fill-opacity="0.200000" stroke="#000000" stroke-width="2" stroke-opacity="0.200000" points="179.27,-446.75 182.86,-441.5 176.79,-443.36 179.27,-446.75"/>
</g>
<!-- src/translators/reactjs/provider/LinksProvider.test.tsx&#45;&gt;src/translators/reactjs/provider/LinksProvider.tsx -->
<g id="edge21" class="edge">
<title>src/translators/reactjs/provider/LinksProvider.test.tsx&#45;&gt;src/translators/reactjs/provider/LinksProvider.tsx</title>
<path fill="none" stroke="#000000" stroke-width="2" stroke-opacity="0.200000" d="M142.51,-580.49C144.83,-580.49 147.16,-580.49 149.48,-580.49"/>
<polygon fill="#000000" fill-opacity="0.200000" stroke="#000000" stroke-width="2" stroke-opacity="0.200000" points="149.34,-582.59 155.34,-580.49 149.34,-578.39 149.34,-582.59"/>
</g>
<!-- src/translators/reactjs/state/state.mocks.ts -->
<g id="node15" class="node">
<title>src/translators/reactjs/state/state.mocks.ts</title>
<g id="a_node15"><a xlink:href="src/translators/reactjs/state/state.mocks.ts" xlink:title="state.mocks.ts">
<path fill="#ddfeff" stroke="black" d="M343.58,-529.37C343.58,-529.37 282.42,-529.37 282.42,-529.37 279.46,-529.37 276.5,-526.41 276.5,-523.45 276.5,-523.45 276.5,-517.53 276.5,-517.53 276.5,-514.58 279.46,-511.62 282.42,-511.62 282.42,-511.62 343.58,-511.62 343.58,-511.62 346.54,-511.62 349.5,-514.58 349.5,-517.53 349.5,-517.53 349.5,-523.45 349.5,-523.45 349.5,-526.41 346.54,-529.37 343.58,-529.37"/>
<text text-anchor="start" x="284.5" y="-516.82" font-family="Helvetica,sans-Serif" font-size="9.00">state.mocks.ts</text>
</a>
</g>
</g>
<!-- src/translators/reactjs/provider/LinksProvider.test.tsx&#45;&gt;src/translators/reactjs/state/state.mocks.ts -->
<g id="edge20" class="edge">
<title>src/translators/reactjs/provider/LinksProvider.test.tsx&#45;&gt;src/translators/reactjs/state/state.mocks.ts</title>
<path fill="none" stroke="#000000" stroke-width="2" stroke-opacity="0.200000" d="M115.21,-589.84C147.6,-601.41 207.58,-617.11 252.38,-595.49 277.09,-583.56 294.72,-555.86 304.12,-537.66"/>
<polygon fill="#000000" fill-opacity="0.200000" stroke="#000000" stroke-width="2" stroke-opacity="0.200000" points="305.99,-538.64 306.74,-532.33 302.22,-536.79 305.99,-538.64"/>
</g>
<!-- src/translators/reactjs/state/state.test.ts -->
<g id="node16" class="node">
<title>src/translators/reactjs/state/state.test.ts</title>
<g id="a_node16"><a xlink:href="src/translators/reactjs/state/state.test.ts" xlink:title="state.test.ts">
<path fill="#ddfeff" stroke="black" d="M226.08,-514.37C226.08,-514.37 176.92,-514.37 176.92,-514.37 173.96,-514.37 171,-511.41 171,-508.45 171,-508.45 171,-502.53 171,-502.53 171,-499.58 173.96,-496.62 176.92,-496.62 176.92,-496.62 226.08,-496.62 226.08,-496.62 229.04,-496.62 232,-499.58 232,-502.53 232,-502.53 232,-508.45 232,-508.45 232,-511.41 229.04,-514.37 226.08,-514.37"/>
<text text-anchor="start" x="179" y="-501.82" font-family="Helvetica,sans-Serif" font-size="9.00">state.test.ts</text>
</a>
</g>
</g>
<!-- src/translators/reactjs/state/state.test.ts&#45;&gt;src/translators/reactjs/state/state.ts -->
<g id="edge23" class="edge">
<title>src/translators/reactjs/state/state.test.ts&#45;&gt;src/translators/reactjs/state/state.ts</title>
<path fill="none" stroke="#000000" stroke-width="2" stroke-opacity="0.200000" d="M232.42,-501.39C246.27,-499.5 262.8,-497.23 277.19,-495.26"/>
<polygon fill="#000000" fill-opacity="0.200000" stroke="#000000" stroke-width="2" stroke-opacity="0.200000" points="277.18,-497.38 282.84,-494.49 276.61,-493.22 277.18,-497.38"/>
</g>
<!-- src/translators/reactjs/state/state.test.ts&#45;&gt;src/translators/reactjs/state/state.mocks.ts -->
<g id="edge24" class="edge">
<title>src/translators/reactjs/state/state.test.ts&#45;&gt;src/translators/reactjs/state/state.mocks.ts</title>
<path fill="none" stroke="#000000" stroke-width="2" stroke-opacity="0.200000" d="M232.42,-509.59C243.22,-511.07 255.65,-512.77 267.43,-514.39"/>
<polygon fill="#000000" fill-opacity="0.200000" stroke="#000000" stroke-width="2" stroke-opacity="0.200000" points="267.05,-516.45 273.28,-515.19 267.62,-512.29 267.05,-516.45"/>
</g>
<!-- src/yoroi/helpers.test.ts -->
<g id="node17" class="node">
<title>src/yoroi/helpers.test.ts</title>
<g id="a_node17"><a xlink:href="src/yoroi/helpers.test.ts" xlink:title="helpers.test.ts">
<path fill="#ddfeff" stroke="black" d="M343.21,-139.37C343.21,-139.37 282.79,-139.37 282.79,-139.37 279.83,-139.37 276.88,-136.41 276.88,-133.45 276.88,-133.45 276.88,-127.53 276.88,-127.53 276.88,-124.58 279.83,-121.62 282.79,-121.62 282.79,-121.62 343.21,-121.62 343.21,-121.62 346.17,-121.62 349.12,-124.58 349.12,-127.53 349.12,-127.53 349.12,-133.45 349.12,-133.45 349.12,-136.41 346.17,-139.37 343.21,-139.37"/>
<text text-anchor="start" x="284.88" y="-126.82" font-family="Helvetica,sans-Serif" font-size="9.00">helpers.test.ts</text>
</a>
</g>
</g>
<!-- src/yoroi/helpers.test.ts&#45;&gt;src/yoroi/helpers.ts -->
<g id="edge25" class="edge">
<title>src/yoroi/helpers.test.ts&#45;&gt;src/yoroi/helpers.ts</title>
<path fill="none" stroke="#000000" stroke-width="2" stroke-opacity="0.200000" d="M349.42,-130.49C358.3,-130.49 367.84,-130.49 376.76,-130.49"/>
<polygon fill="#000000" fill-opacity="0.200000" stroke="#000000" stroke-width="2" stroke-opacity="0.200000" points="376.74,-132.59 382.74,-130.49 376.74,-128.39 376.74,-132.59"/>
</g>
<!-- src/yoroi/links&#45;builder.ts&#45;&gt;src/yoroi/helpers.ts -->
<g id="edge26" class="edge">
<title>src/yoroi/links&#45;builder.ts&#45;&gt;src/yoroi/helpers.ts</title>
<path fill="none" stroke="#000000" stroke-width="2" stroke-opacity="0.200000" d="M351.01,-109.11C358.5,-111.05 366.29,-113.22 373.5,-115.49 376.07,-116.3 378.71,-117.19 381.36,-118.11"/>
<polygon fill="#000000" fill-opacity="0.200000" stroke="#000000" stroke-width="2" stroke-opacity="0.200000" points="380.51,-120.04 386.87,-120.12 381.95,-116.09 380.51,-120.04"/>
</g>
<!-- src/yoroi/types.ts -->
<g id="node20" class="node">
<title>src/yoroi/types.ts</title>
<g id="a_node20"><a xlink:href="src/yoroi/types.ts" xlink:title="types.ts">
<path fill="#ddfeff" stroke="black" d="M434.96,-109.37C434.96,-109.37 392.79,-109.37 392.79,-109.37 389.83,-109.37 386.88,-106.41 386.88,-103.45 386.88,-103.45 386.88,-97.53 386.88,-97.53 386.88,-94.58 389.83,-91.62 392.79,-91.62 392.79,-91.62 434.96,-91.62 434.96,-91.62 437.92,-91.62 440.88,-94.58 440.88,-97.53 440.88,-97.53 440.88,-103.45 440.88,-103.45 440.88,-106.41 437.92,-109.37 434.96,-109.37"/>
<text text-anchor="start" x="398.5" y="-96.82" font-family="Helvetica,sans-Serif" font-size="9.00">types.ts</text>
</a>
</g>
</g>
<!-- src/yoroi/links&#45;builder.ts&#45;&gt;src/yoroi/types.ts -->
<g id="edge27" class="edge">
<title>src/yoroi/links&#45;builder.ts&#45;&gt;src/yoroi/types.ts</title>
<path fill="none" stroke="#000000" stroke-width="2" stroke-opacity="0.200000" d="M351.1,-100.49C359.88,-100.49 369.22,-100.49 377.91,-100.49"/>
<polygon fill="#000000" fill-opacity="0.200000" stroke="#000000" stroke-width="2" stroke-opacity="0.200000" points="377.65,-102.59 383.65,-100.49 377.65,-98.39 377.65,-102.59"/>
</g>
<!-- src/yoroi/links&#45;parser.test.ts -->
<g id="node21" class="node">
<title>src/yoroi/links&#45;parser.test.ts</title>
<g id="a_node21"><a xlink:href="src/yoroi/links-parser.test.ts" xlink:title="links&#45;parser.test.ts">
<path fill="#ddfeff" stroke="black" d="M129.96,-180.37C129.96,-180.37 52.29,-180.37 52.29,-180.37 49.33,-180.37 46.38,-177.41 46.38,-174.45 46.38,-174.45 46.38,-168.53 46.38,-168.53 46.38,-165.58 49.33,-162.62 52.29,-162.62 52.29,-162.62 129.96,-162.62 129.96,-162.62 132.92,-162.62 135.88,-165.58 135.88,-168.53 135.88,-168.53 135.88,-174.45 135.88,-174.45 135.88,-177.41 132.92,-180.37 129.96,-180.37"/>
<text text-anchor="start" x="54.38" y="-167.82" font-family="Helvetica,sans-Serif" font-size="9.00">links&#45;parser.test.ts</text>
</a>
</g>
</g>
<!-- src/yoroi/links&#45;parser.test.ts&#45;&gt;src/yoroi/links&#45;parser.ts -->
<g id="edge28" class="edge">
<title>src/yoroi/links&#45;parser.test.ts&#45;&gt;src/yoroi/links&#45;parser.ts</title>
<path fill="none" stroke="#000000" stroke-width="2" stroke-opacity="0.200000" d="M136.27,-168.59C142.63,-168.2 149.11,-167.82 155.25,-167.49 193,-165.45 235.9,-163.57 267.26,-162.27"/>
<polygon fill="#000000" fill-opacity="0.200000" stroke="#000000" stroke-width="2" stroke-opacity="0.200000" points="267.26,-164.37 273.17,-162.03 267.09,-160.17 267.26,-164.37"/>
</g>
<!-- src/yoroi/links&#45;parser.test.ts&#45;&gt;src/yoroi/module.ts -->
<g id="edge29" class="edge">
<title>src/yoroi/links&#45;parser.test.ts&#45;&gt;src/yoroi/module.ts</title>
<path fill="none" stroke="#000000" stroke-width="2" stroke-opacity="0.200000" d="M113.6,-180.78C125.74,-185.92 141.25,-192.3 155.25,-197.49 158.47,-198.69 161.85,-199.89 165.23,-201.07"/>
<polygon fill="#000000" fill-opacity="0.200000" stroke="#000000" stroke-width="2" stroke-opacity="0.200000" points="164.37,-203 170.73,-202.94 165.73,-199.02 164.37,-203"/>
</g>
<!-- src/yoroi/module.test.ts -->
<g id="node23" class="node">
<title>src/yoroi/module.test.ts</title>
<g id="a_node23"><a xlink:href="src/yoroi/module.test.ts" xlink:title="module.test.ts">
<path fill="#ddfeff" stroke="black" d="M121.33,-221.37C121.33,-221.37 60.92,-221.37 60.92,-221.37 57.96,-221.37 55,-218.41 55,-215.45 55,-215.45 55,-209.53 55,-209.53 55,-206.58 57.96,-203.62 60.92,-203.62 60.92,-203.62 121.33,-203.62 121.33,-203.62 124.29,-203.62 127.25,-206.58 127.25,-209.53 127.25,-209.53 127.25,-215.45 127.25,-215.45 127.25,-218.41 124.29,-221.37 121.33,-221.37"/>
<text text-anchor="start" x="63" y="-208.82" font-family="Helvetica,sans-Serif" font-size="9.00">module.test.ts</text>
</a>
</g>
</g>
<!-- src/yoroi/module.test.ts&#45;&gt;src/cardano/constants.ts -->
<g id="edge32" class="edge">
<title>src/yoroi/module.test.ts&#45;&gt;src/cardano/constants.ts</title>
<path fill="none" stroke="#000000" stroke-width="2" stroke-opacity="0.200000" d="M115.83,-203.15C124.73,-198.92 134.54,-193.32 142.25,-186.49 149.91,-179.71 149.16,-175.72 155.25,-167.49 199.93,-107.13 193.07,-68.04 260.75,-35.49 338.25,1.78 388.83,20.34 454.25,-35.49 488.64,-64.84 492.85,-210.86 493.26,-262.42"/>
<polygon fill="#000000" fill-opacity="0.200000" stroke="#000000" stroke-width="2" stroke-opacity="0.200000" points="491.16,-262.14 493.28,-268.13 495.36,-262.12 491.16,-262.14"/>
</g>
<!-- src/yoroi/module.test.ts&#45;&gt;src/cardano/module.ts -->
<g id="edge33" class="edge">
<title>src/yoroi/module.test.ts&#45;&gt;src/cardano/module.ts</title>
<path fill="none" stroke="#000000" stroke-width="2" stroke-opacity="0.200000" d="M127.51,-221.44C132.47,-222.76 137.49,-224.14 142.25,-225.49 245.77,-255.01 271.77,-262.31 373.5,-297.49 375.9,-298.32 378.37,-299.2 380.85,-300.1"/>
<polygon fill="#000000" fill-opacity="0.200000" stroke="#000000" stroke-width="2" stroke-opacity="0.200000" points="380.03,-302.04 386.39,-302.16 381.49,-298.1 380.03,-302.04"/>
</g>
<!-- src/yoroi/module.test.ts&#45;&gt;src/yoroi/module.ts -->
<g id="edge34" class="edge">
<title>src/yoroi/module.test.ts&#45;&gt;src/yoroi/module.ts</title>
<path fill="none" stroke="#000000" stroke-width="2" stroke-opacity="0.200000" d="M127.61,-212.49C139.42,-212.49 152.57,-212.49 164.42,-212.49"/>
<polygon fill="#000000" fill-opacity="0.200000" stroke="#000000" stroke-width="2" stroke-opacity="0.200000" points="164.16,-214.59 170.16,-212.49 164.16,-210.39 164.16,-214.59"/>
</g>
<!-- src/yoroi/transformers.ts&#45;&gt;src/cardano/module.ts -->
<g id="edge40" class="edge">
<title>src/yoroi/transformers.ts&#45;&gt;src/cardano/module.ts</title>
<path fill="none" stroke="#000000" stroke-width="2" stroke-opacity="0.200000" d="M351.27,-192.98C359.62,-195.25 367.7,-199.1 373.5,-205.49 389.51,-223.13 373.6,-236.02 381.5,-258.49 386.21,-271.89 394.31,-285.71 401.11,-296.02"/>
<polygon fill="#000000" fill-opacity="0.200000" stroke="#000000" stroke-width="2" stroke-opacity="0.200000" points="399.36,-297.19 404.48,-300.96 402.83,-294.82 399.36,-297.19"/>
</g>
<!-- src/yoroi/transformers.ts&#45;&gt;src/yoroi/validators.ts -->
<g id="edge41" class="edge">
<title>src/yoroi/transformers.ts&#45;&gt;src/yoroi/validators.ts</title>
<path fill="none" stroke="#000000" stroke-width="2" stroke-opacity="0.200000" d="M351.38,-184.82C358.3,-183.77 365.56,-182.67 372.56,-181.61"/>
<polygon fill="#000000" fill-opacity="0.200000" stroke="#000000" stroke-width="2" stroke-opacity="0.200000" points="372.64,-183.72 378.26,-180.74 372.01,-179.57 372.64,-183.72"/>
</g>
<!-- src/yoroi/transformers.mocks.ts -->
<g id="node25" class="node">
<title>src/yoroi/transformers.mocks.ts</title>
<g id="a_node25"><a xlink:href="src/yoroi/transformers.mocks.ts" xlink:title="transformers.mocks.ts">
<path fill="#ddfeff" stroke="black" d="M359.33,-79.37C359.33,-79.37 266.67,-79.37 266.67,-79.37 263.71,-79.37 260.75,-76.41 260.75,-73.45 260.75,-73.45 260.75,-67.53 260.75,-67.53 260.75,-64.58 263.71,-61.62 266.67,-61.62 266.67,-61.62 359.33,-61.62 359.33,-61.62 362.29,-61.62 365.25,-64.58 365.25,-67.53 365.25,-67.53 365.25,-73.45 365.25,-73.45 365.25,-76.41 362.29,-79.37 359.33,-79.37"/>
<text text-anchor="start" x="268.75" y="-66.82" font-family="Helvetica,sans-Serif" font-size="9.00">transformers.mocks.ts</text>
</a>
</g>
</g>
<!-- src/yoroi/transformers.test.ts -->
<g id="node26" class="node">
<title>src/yoroi/transformers.test.ts</title>
<g id="a_node26"><a xlink:href="src/yoroi/transformers.test.ts" xlink:title="transformers.test.ts">
<path fill="#ddfeff" stroke="black" d="M241.83,-191.37C241.83,-191.37 161.17,-191.37 161.17,-191.37 158.21,-191.37 155.25,-188.41 155.25,-185.45 155.25,-185.45 155.25,-179.53 155.25,-179.53 155.25,-176.58 158.21,-173.62 161.17,-173.62 161.17,-173.62 241.83,-173.62 241.83,-173.62 244.79,-173.62 247.75,-176.58 247.75,-179.53 247.75,-179.53 247.75,-185.45 247.75,-185.45 247.75,-188.41 244.79,-191.37 241.83,-191.37"/>
<text text-anchor="start" x="163.25" y="-178.82" font-family="Helvetica,sans-Serif" font-size="9.00">transformers.test.ts</text>
</a>
</g>
</g>
<!-- src/yoroi/transformers.test.ts&#45;&gt;src/yoroi/transformers.ts -->
<g id="edge38" class="edge">
<title>src/yoroi/transformers.test.ts&#45;&gt;src/yoroi/transformers.ts</title>
<path fill="none" stroke="#000000" stroke-width="2" stroke-opacity="0.200000" d="M247.99,-185.82C253.99,-186.25 260.14,-186.7 266.15,-187.14"/>
<polygon fill="#000000" fill-opacity="0.200000" stroke="#000000" stroke-width="2" stroke-opacity="0.200000" points="265.65,-189.21 271.79,-187.55 265.96,-185.02 265.65,-189.21"/>
</g>
<!-- src/yoroi/transformers.test.ts&#45;&gt;src/yoroi/transformers.mocks.ts -->
<g id="edge39" class="edge">
<title>src/yoroi/transformers.test.ts&#45;&gt;src/yoroi/transformers.mocks.ts</title>
<path fill="none" stroke="#000000" stroke-width="2" stroke-opacity="0.200000" d="M205.47,-173.18C212.14,-153.83 230.12,-109.14 260.75,-85.49 261.29,-85.08 261.83,-84.67 262.39,-84.28"/>
<polygon fill="#000000" fill-opacity="0.200000" stroke="#000000" stroke-width="2" stroke-opacity="0.200000" points="263.37,-86.14 267.51,-81.31 261.26,-82.51 263.37,-86.14"/>
</g>
</g>
</svg>
